<svg xmlns="http://www.w3.org/2000/svg" width="11.227" height="8.645" viewBox="0 0 11.227 8.645">
  <path id="Path_2042" data-name="Path 2042" d="M80.541,152.631a2.779,2.779,0,0,1,2.7,1.614c.068.15.048.31.113.487.052.144.246.152.276.355l-.072.081.02.03c.173.063.175.412.133.65a2.906,2.906,0,0,1-.553,1.4,3.8,3.8,0,0,1-.87.731l-.164.173c-.093.051-.2-.01-.286-.02l-.4.132-.123.264a1.889,1.889,0,0,1-.409.507,2.9,2.9,0,0,1-2.548.294l-.041-.122-.051.01a1.8,1.8,0,0,1-.573.223c-.8.128-1.879-.474-1.77-1.177.089-.575.306-1,.43-1.553a1.128,1.128,0,0,0-1.095-1.35.918.918,0,0,0-.839.6c-.142.51.026.963-.256,1.36a.908.908,0,0,1-.593.335c-.306.054-.774-.121-.9.122-.137.263.11.658.215.832a2.376,2.376,0,0,0,1.381,1.015,5.107,5.107,0,0,1,.976.608l.188-.018.8.78c.058.163-.115.237-.235.283l-.842-.819c-.356-.751-1.712-.907-2.207-1.565-.154-.2-.556-.68-.409-1.086s.61-.17,1.054-.264a.8.8,0,0,0,.491-.315c.241-.34.1-.755.215-1.228a.984.984,0,0,1,.563-.65,1.092,1.092,0,0,1,.573-.061,1.154,1.154,0,0,1,1.064.974,4.014,4.014,0,0,1-.368,1.543,1.3,1.3,0,0,0-.041.761,1.376,1.376,0,0,0,1.514.721c.187-.055.343-.074.43-.223l-.01-.02c-.23.023-.352-.149-.491-.254a1.629,1.629,0,0,1-.573-1.675,2.333,2.333,0,0,1,.235-.639l.184-.264q-.005-.147-.01-.294c.025-.15.111-.208.143-.315s-.021-.27.01-.386a3.288,3.288,0,0,1,1.31-2.111c.11-.067.156-.265.287-.294l.225.041c.021-.07.055-.081.1-.122.1.006.127.046.2.061.17.033.318-.081.45-.112Zm-.327.4c-.195.141-.242.016-.389.061a2.031,2.031,0,0,0-.2.142l-.153-.051c-.066.238-.405.3-.593.416a1.954,1.954,0,0,0-.747,1.715c.04.124-.1.281-.02.375.119.042.178-.055.256-.081a.712.712,0,0,1,.542.173,1.662,1.662,0,0,1,.123,1.248,5.706,5.706,0,0,1-.8,1.979,3.536,3.536,0,0,1-.379.315H77.9c.381-.167.529-.453.8-.721a13.126,13.126,0,0,1,1.31-1.137c.156-.118.752-.64,1.013-.548.1.037.172.13.276.183v.071a.254.254,0,0,0-.092.132.5.5,0,0,1,.246.406l.031.02c.161-.039.314-.028.45-.071.054-.111.12-.245.3-.233a.342.342,0,0,0,.174-.01l.358-.294a2.226,2.226,0,0,0,.491-.944v-.68l.1-.2c-.148-.09-.044-.212-.123-.376l-.164-.142c-.1-.152-.139-.34-.235-.487A2.745,2.745,0,0,0,80.213,153.026Zm-5.236,7.345.122.131Z" transform="translate(-72.508 -152.63)" fill="rgba(255,255,255,0.9)"/>
</svg>
