<svg xmlns="http://www.w3.org/2000/svg" width="17.575" height="15.941" viewBox="0 0 17.575 15.941">
  <path id="heart" d="M12.452,22.543a5.068,5.068,0,0,0-2.328.558,5.163,5.163,0,0,0-1.336.985A5.164,5.164,0,0,0,7.451,23.1a5.068,5.068,0,0,0-2.328-.558A5.129,5.129,0,0,0,0,27.667c0,2,1.057,4.126,3.141,6.317a30.372,30.372,0,0,0,5.352,4.31l.3.191.3-.191a30.372,30.372,0,0,0,5.352-4.31c2.084-2.19,3.141-4.316,3.141-6.317A5.129,5.129,0,0,0,12.452,22.543Zm1.2,10.691a28.747,28.747,0,0,1-4.859,3.954,28.747,28.747,0,0,1-4.859-3.954c-1.885-1.982-2.841-3.855-2.841-5.567a4.036,4.036,0,0,1,7.266-2.422l.435.579.435-.579a4.036,4.036,0,0,1,7.266,2.422C16.488,29.379,15.532,31.252,13.647,33.234Z" transform="translate(0 -22.543)" fill="#302e2e"/>
</svg>
