<svg xmlns="http://www.w3.org/2000/svg" xmlns:xlink="http://www.w3.org/1999/xlink" width="22.838" height="22.841" viewBox="0 0 22.838 22.841">
  <defs>
    <linearGradient id="linear-gradient" x1="0.5" x2="0.5" y2="1" gradientUnits="objectBoundingBox">
      <stop offset="0" stop-color="#8c37f6"/>
      <stop offset="1" stop-color="#1431fb"/>
    </linearGradient>
  </defs>
  <path id="home" d="M22.224,9.934l0,0L12.906.616a2.1,2.1,0,0,0-2.974,0L.62,9.927l-.009.01a2.1,2.1,0,0,0,1.4,3.582q.032,0,.065,0h.371v6.857A2.464,2.464,0,0,0,4.907,22.84H8.552a.669.669,0,0,0,.669-.669V16.8a1.124,1.124,0,0,1,1.123-1.123h2.15A1.124,1.124,0,0,1,13.617,16.8v5.376a.669.669,0,0,0,.669.669h3.645a2.464,2.464,0,0,0,2.461-2.461V13.523h.344a2.1,2.1,0,0,0,1.488-3.589Zm0,0" transform="translate(0 0.001)" fill="url(#linear-gradient)"/>
</svg>
