<svg xmlns="http://www.w3.org/2000/svg" width="84" height="46.776" viewBox="0 0 84 46.776">
  <g id="infinite" transform="translate(0 -113.445)">
    <path id="Path_2098" data-name="Path 2098" d="M257.339,146.312,256,147.793l3.5,8.92,5.469,4.84,3.931-4.792-2.4-7.048-6.163-6.206A24.512,24.512,0,0,0,257.339,146.312Z" transform="translate(-214 -25.131)" fill="#3685fc"/>
    <path id="Path_2099" data-name="Path 2099" d="M259.985,131.632a7.314,7.314,0,0,1,5.582-2.6c3.066,0,7.93,2.118,7.93,7.8s-4.864,7.8-7.93,7.8a7.314,7.314,0,0,1-5.582-2.6l-3.933-5.611-8.969-13.76-1.75,15.92,1.75,12.42,1.339,1.481a23.118,23.118,0,0,0,12.409,7.242,23.786,23.786,0,0,0,23.9-9.2,23.724,23.724,0,0,0,0-27.387,23.787,23.787,0,0,0-23.9-9.2,22.721,22.721,0,0,0-9.411,4.438Z" transform="translate(-205.083 -0.001)" fill="#36b3fc"/>
    <g id="Group_1089" data-name="Group 1089" transform="translate(0 113.445)">
      <path id="Path_2100" data-name="Path 2100" d="M188.937,273.741l1.339-1.481-3.5-8.92-5.469-4.84-3.931,4.792,2.4,7.048,6.163,6.205A24.5,24.5,0,0,0,188.937,273.741Z" transform="translate(-148.275 -234.702)" fill="#3685fc"/>
      <path id="Path_2101" data-name="Path 2101" d="M29.1,142.034a7.314,7.314,0,0,1-5.582,2.6c-3.066,0-7.93-2.118-7.93-7.8s4.864-7.8,7.93-7.8a7.314,7.314,0,0,1,5.582,2.6l3.933,5.611L42,151V122.662l-1.339-1.481a23.119,23.119,0,0,0-12.409-7.242,23.786,23.786,0,0,0-23.9,9.2,23.724,23.724,0,0,0,0,27.387,23.787,23.787,0,0,0,23.9,9.2,22.721,22.721,0,0,0,9.411-4.438Z" transform="translate(0 -113.445)" fill="#3f9afc"/>
    </g>
  </g>
</svg>
