<svg xmlns="http://www.w3.org/2000/svg" width="13.504" height="22" viewBox="0 0 13.504 22">
  <g id="microphone" transform="translate(-103.071 0.5)">
    <path id="Path_2108" data-name="Path 2108" d="M116.075,224.686a.615.615,0,1,0-1.23,0,5.022,5.022,0,1,1-10.043,0,.615.615,0,0,0-1.23,0,6.261,6.261,0,0,0,5.637,6.222v1.271h-.62a3.09,3.09,0,0,0-3.086,3.086.615.615,0,0,0,.615.615h7.414a.615.615,0,0,0,.615-.615,3.09,3.09,0,0,0-3.086-3.086h-.62v-1.271A6.261,6.261,0,0,0,116.075,224.686Z" transform="translate(0 -214.881)" fill="none" stroke="rgba(46,46,46,0.5)" stroke-width="1"/>
    <path id="Path_2109" data-name="Path 2109" d="M167.581,6.178a.615.615,0,0,1,0,1.23h-1.894V8.649h1.894a.615.615,0,0,1,0,1.23h-1.894v0a3.7,3.7,0,0,0,7.408,0v0H171.2a.615.615,0,0,1,0-1.23H173.1V7.408H171.2a.615.615,0,0,1,0-1.23H173.1V4.937H171.2a.615.615,0,0,1,0-1.23H173.1v0a3.7,3.7,0,1,0-7.408,0v0h1.894a.615.615,0,0,1,0,1.23h-1.894V6.178Z" transform="translate(-59.568)" fill="none" stroke="rgba(46,46,46,0.5)" stroke-width="1"/>
  </g>
</svg>
