<svg xmlns="http://www.w3.org/2000/svg" width="21.607" height="21.561" viewBox="0 0 21.607 21.561">
  <path id="Path_2084" data-name="Path 2084" d="M95.909,152.631a8.374,8.374,0,0,1,8.139,4.863c.206.452.145.934.339,1.468.158.434.743.457.832,1.071l-.216.244.062.092c.522.191.528,1.241.4,1.957a8.757,8.757,0,0,1-1.665,4.22,11.445,11.445,0,0,1-2.62,2.2l-.493.52c-.282.153-.613-.031-.863-.061l-1.2.4-.37.8a5.693,5.693,0,0,1-1.233,1.529c-2.113,1.674-4.628,1.511-7.677.887l-.123-.367-.154.031c-.556.263-.97-.01-.709-.459l-.031-.061c-.693.07-1.06-.45-1.48-.765a4.908,4.908,0,0,1-1.726-5.046,7.028,7.028,0,0,1,.709-1.926l.555-.8q-.015-.443-.031-.887c.075-.453.333-.628.432-.948.107-.347-.063-.813.031-1.162.738-2.732,1.781-5.036,3.946-6.361.331-.2.471-.8.863-.887l.678.122c.063-.212.165-.246.308-.367.3.019.383.138.617.184.511.1.959-.244,1.357-.336Zm-.987,1.193c-.586.424-.729.048-1.172.183a6.14,6.14,0,0,0-.617.428l-.462-.153c-.2.716-1.221.895-1.788,1.254-1.079.683-2.8,3.438-2.251,5.168.12.374-.311.847-.061,1.131.358.128.535-.166.771-.245a2.147,2.147,0,0,1,1.634.52c.686.762.628,2.554.37,3.762a17.194,17.194,0,0,1-2.4,5.963c-.308.4.606-.417,1.418-1.223a39.562,39.562,0,0,1,3.946-3.425c.47-.356,2.266-1.929,3.052-1.651.314.111.519.393.832.551v.214a.765.765,0,0,0-.277.4,1.505,1.505,0,0,1,.74,1.223l.092.061c.485-.118.946-.085,1.357-.214.162-.335.362-.738.894-.7a1.03,1.03,0,0,0,.524-.031l1.079-.887a6.709,6.709,0,0,0,1.48-2.844v-2.049l.308-.612c-.447-.27-.133-.64-.37-1.132l-.493-.428c-.306-.459-.42-1.023-.709-1.468C101.218,155.161,99.051,153.823,94.922,153.824Z" transform="translate(-84.447 -152.13)" fill="none" stroke="rgba(46,46,46,0.5)" stroke-width="1"/>
</svg>
