<svg xmlns="http://www.w3.org/2000/svg" width="18.089" height="21.483" viewBox="0 0 18.089 21.483">
  <g id="user_2_" data-name="user (2)" transform="translate(0.5 0.5)">
    <path id="Path_2039" data-name="Path 2039" d="M91.965,9.867a4.773,4.773,0,0,0,3.488-1.445A4.773,4.773,0,0,0,96.9,4.933a4.774,4.774,0,0,0-1.445-3.488,4.932,4.932,0,0,0-6.976,0,4.774,4.774,0,0,0-1.445,3.488,4.773,4.773,0,0,0,1.446,3.488A4.775,4.775,0,0,0,91.965,9.867Zm0,0" transform="translate(-83.55 0)" fill="none" stroke="rgba(46,46,46,0.5)" stroke-width="1"/>
    <path id="Path_2040" data-name="Path 2040" d="M17.047,253.173a12.185,12.185,0,0,0-.166-1.294,10.2,10.2,0,0,0-.318-1.3,6.428,6.428,0,0,0-.535-1.214,4.58,4.58,0,0,0-.807-1.051,3.557,3.557,0,0,0-1.159-.728,4,4,0,0,0-1.479-.268,1.5,1.5,0,0,0-.8.34c-.24.157-.521.338-.835.538a4.786,4.786,0,0,1-1.081.476,4.2,4.2,0,0,1-2.644,0,4.775,4.775,0,0,1-1.08-.476c-.311-.2-.592-.38-.836-.539a1.5,1.5,0,0,0-.8-.34,4,4,0,0,0-1.479.268,3.554,3.554,0,0,0-1.159.728,4.58,4.58,0,0,0-.806,1.051,6.44,6.44,0,0,0-.535,1.214,10.221,10.221,0,0,0-.318,1.3,12.143,12.143,0,0,0-.166,1.295c-.027.392-.041.8-.041,1.21a3.4,3.4,0,0,0,1.01,2.573,3.636,3.636,0,0,0,2.6.95h9.863a3.636,3.636,0,0,0,2.6-.95,3.4,3.4,0,0,0,1.01-2.573c0-.413-.014-.82-.041-1.21Zm0,0" transform="translate(0 -237.422)" fill="none" stroke="rgba(46,46,46,0.5)" stroke-width="1"/>
  </g>
</svg>
