<svg xmlns="http://www.w3.org/2000/svg" width="26" height="25.875" viewBox="0 0 26 25.875"><defs><style>.a{fill:rgba(0,0,0,0.87);}</style></defs><path class="a" d="M9.609,25.5l-4.09.24a4.767,4.767,0,0,0-3.091,1.387l-.135.135.613.613.135-.135A3.9,3.9,0,0,1,5.57,26.6l4.09-.24A2.17,2.17,0,0,0,11.7,24.2V22.747a17.233,17.233,0,0,0,4.648-3.006l-.575-.65c-1.577,1.4-4.5,3.441-5.608,2.96a2.629,2.629,0,0,1-.773-.6,6.484,6.484,0,0,1-1.722-3.833l-.02-.2a2.312,2.312,0,0,0-1.575-1.973c-.211-.068-.428-.122-.65-.175a6.19,6.19,0,0,1-.832-.245.355.355,0,0,0,.028-.043l2.913-4.866a.459.459,0,0,0,.051-.13c1.058-4.767,4.6-7.54,9.023-7.063a8.89,8.89,0,0,1,7.827,6.816,9.093,9.093,0,0,1-3.975,9.923,3.884,3.884,0,0,0-1.828,3.29V24.2a2.17,2.17,0,0,0,2.039,2.163l4.09.24a3.9,3.9,0,0,1,2.529,1.138l.135.135.613-.613-.135-.135a4.767,4.767,0,0,0-3.091-1.387l-4.09-.24A1.3,1.3,0,0,1,19.5,24.2V22.951a3.023,3.023,0,0,1,1.425-2.56A9.961,9.961,0,0,0,16.7,2.061c-4.871-.524-8.766,2.485-9.946,7.67L3.888,14.519a.867.867,0,0,0,.382,1.31,7,7,0,0,0,.953.283c.2.049.4.1.586.158a1.444,1.444,0,0,1,.98,1.235l.02.2a7.355,7.355,0,0,0,1.958,4.347,3.368,3.368,0,0,0,1.056.8,1.953,1.953,0,0,0,1.009.11V24.2a1.3,1.3,0,0,1-1.223,1.3Z" transform="translate(-2.166 -2.001)"/><path class="a" d="M16.8,20.417l-.012-.023-.762.413a3.875,3.875,0,0,0,3.483,2.156h.767V22.1h-.767a3.013,3.013,0,0,1-2.709-1.68Z" transform="translate(-9.949 -12.423)"/><path class="a" d="M26.007,14.636l4.333,1.733a.433.433,0,0,0,.543-.2l1.029-1.931,1.508.411a.438.438,0,0,0,.447-.14l2.167-2.6a.433.433,0,0,0,.005-.549L34.306,9.2a.433.433,0,0,0-.721.067l-2.112,3.96-2.4-.656L27.736,9.9h.143l2.766,2.489a.433.433,0,0,0,.717-.251l.433-2.6a.433.433,0,0,0-.427-.5H28.212l-.165-.148,2.484-.709,2.942.42.123-.858L30.563,7.3a.428.428,0,0,0-.18.012l-3.1.884-.311-.28-.312-.937.117-.117h1.987V6H26.6a.433.433,0,0,0-.306.127l-.433.433a.433.433,0,0,0-.1.443l.433,1.3a.433.433,0,0,0,.113.179l-1.988.568a.433.433,0,0,0-.288.563l1.733,4.767A.433.433,0,0,0,26.007,14.636Zm8.034-4.384,1.1,1.376L33.38,13.742l-1.049-.286ZM30.856,9.9l-.219,1.316L29.175,9.9ZM26.64,9.287a.433.433,0,0,0,.006.373l1.733,3.467a.433.433,0,0,0,.274.224l2.4.655L30.3,15.42,26.509,13.9,25,9.756Z" transform="translate(-14.468 -4.267)"/><path class="a" d="M43.8,27.929l-1.8-.718a.433.433,0,0,0-.507.143l-1.3,1.733.693.52,1.1-1.468,1.859.744a.433.433,0,0,0,.549-.209l.867-1.733-.776-.387Z" transform="translate(-23.647 -15.913)"/><path class="a" d="M21.493,10.168l-1.3.867a.433.433,0,0,0-.17.5l.433,1.3.823-.274-.328-.986,1.025-.683Z" transform="translate(-12.2 -6.629)"/><rect class="a" width="0.867" height="0.867"/><rect class="a" width="0.867" height="0.867" transform="translate(22.967 1.733)"/><rect class="a" width="0.867" height="0.867" transform="translate(25.133 6.5)"/><rect class="a" width="0.867" height="0.867" transform="translate(2.6 3.467)"/><rect class="a" width="0.867" height="0.867" transform="translate(6.067 0.433)"/><rect class="a" width="0.867" height="0.867" transform="translate(25.133 12.567)"/></svg>