<svg xmlns="http://www.w3.org/2000/svg" width="21.667" height="20.583" viewBox="0 0 21.667 20.583"><defs><style>.a{fill:rgba(255,255,255,0.87);}</style></defs><path class="a" d="M10,5.19V.847A.833.833,0,0,1,11.66.733l.008.114V5.19h5.178a4.9,4.9,0,0,1,4.816,4.745l.005.234v5.459a4.907,4.907,0,0,1-4.585,4.95l-.225.005H4.81a4.887,4.887,0,0,1-4.8-4.744L0,15.605V10.157A4.909,4.909,0,0,1,4.574,5.2L4.8,5.19H10v6.936l-1.733-1.79a.818.818,0,0,0-1.181,0A.9.9,0,0,0,7,11.449l.087.107,3.153,3.267a.808.808,0,0,0,1.1.077l.081-.077,3.152-3.267a.884.884,0,0,0,0-1.219.818.818,0,0,0-1.087-.083l-.093.083-1.722,1.79V5.19Z"/></svg>