<svg xmlns="http://www.w3.org/2000/svg" width="23" height="24.962" viewBox="0 0 23 24.962"><defs><style>.a{fill:#9797de;}</style></defs><path class="a" d="M20.293,24.961a9.642,9.642,0,0,1-1.35-.127c-.484-.075-1-.181-1.531-.3-1.065-.249-2.207-.574-3.327-.892h0q-.009.022-.021.044a.519.519,0,0,1-.2.207.542.542,0,0,1-.513.017.6.6,0,0,0-.115-.041,1.479,1.479,0,0,0-.177-.034,3.756,3.756,0,0,0-.5-.028c-.272,0-.593.017-.946.048s-.74.074-1.143.127c-.808.1-1.688.241-2.528.372-.936.146-1.889.295-2.785.409a22.293,22.293,0,0,1-2.444.2H2.626v0a4.216,4.216,0,0,1-1.369-.2,2.06,2.06,0,0,1-.8-.48A1.537,1.537,0,0,1,0,23.183,1.766,1.766,0,0,1,.1,22.6a1.665,1.665,0,0,1,.253-.472,2.012,2.012,0,0,1,.619-.5,4.573,4.573,0,0,1,.865-.356,13.776,13.776,0,0,1,2.24-.441c.549-.071,1.12-.128,1.689-.181.273-.026.569-.053.767-.078.065-.008.12-.016.155-.022l.032-.007c.068-.023.144-.047.229-.074a6.994,6.994,0,0,0,.716-.252,2.6,2.6,0,0,0,.7-.424,1.309,1.309,0,0,0,.312-.4,1.09,1.09,0,0,0,.093-.282,3.945,3.945,0,0,0,.069-.728,4.4,4.4,0,0,0-.1-.893c-.267.145-.526.274-.758.378a4.347,4.347,0,0,1-.536.206,1.27,1.27,0,0,1-.351.059v0a.713.713,0,0,1-.174-.022h0a.979.979,0,0,1-.3-.133,1.2,1.2,0,0,1-.255-.228,2.232,2.232,0,0,1-.376-.693,4.914,4.914,0,0,1-.179-.636,10.253,10.253,0,0,1-.211-1.9h0l0-.22c0-.286-.009-.575-.009-.864A12.4,12.4,0,0,1,5.7,11.585,4.666,4.666,0,0,1,6.2,10.045a3.08,3.08,0,0,1,.947-1.068,3.239,3.239,0,0,1,.872-.425,4.7,4.7,0,0,1,1.429-.2H14.16a4.542,4.542,0,0,1,1.587.257,3.063,3.063,0,0,1,1.191.784,3.284,3.284,0,0,1,.547.8,4.826,4.826,0,0,1,.417,1.392,12.424,12.424,0,0,1,.111,1.857c0,.289,0,.579-.009.864l0,.219a10.3,10.3,0,0,1-.211,1.9,4.825,4.825,0,0,1-.2.705,2.343,2.343,0,0,1-.277.529,1.337,1.337,0,0,1-.239.255,1,1,0,0,1-.395.2h0a.681.681,0,0,1-.172.021v0a1.247,1.247,0,0,1-.351-.059,4.323,4.323,0,0,1-.537-.206,12.777,12.777,0,0,1-1.276-.673l-.017-.01c-.025.1-.048.2-.068.294a4.454,4.454,0,0,0-.1.907,3.923,3.923,0,0,0,.068.725,1.106,1.106,0,0,0,.164.407,1.431,1.431,0,0,0,.3.324,3,3,0,0,0,.826.448c.192.073.377.131.534.179.085.026.16.05.227.073h0l.021,0,.074.012c.061.009.142.019.234.029.183.02.41.041.623.061.747.069,1.5.146,2.2.251a11.323,11.323,0,0,1,1.891.422,3.7,3.7,0,0,1,.943.453,1.757,1.757,0,0,1,.382.356,1.654,1.654,0,0,1,.253.472,1.764,1.764,0,0,1,.1.579,1.556,1.556,0,0,1-.173.72,1.607,1.607,0,0,1-.493.563,2.515,2.515,0,0,1-.978.4,4.832,4.832,0,0,1-.982.091v0Zm-9.8-3.289c.322.051.679.125,1.074.218.788.186,1.725.448,2.815.758.786.224,1.611.458,2.412.665s1.579.384,2.27.5a8.69,8.69,0,0,0,1.243.123h.069a3.637,3.637,0,0,0,.828-.083,1.371,1.371,0,0,0,.514-.22.564.564,0,0,0,.165-.189.55.55,0,0,0,.059-.254.73.73,0,0,0-.027-.195.789.789,0,0,0-.064-.164.522.522,0,0,0-.046-.072.78.78,0,0,0-.176-.157,1.912,1.912,0,0,0-.291-.16,5.1,5.1,0,0,0-.84-.278,17.347,17.347,0,0,0-2.12-.358c-.467-.054-.9-.095-1.243-.126-.251-.023-.454-.042-.621-.06s-.3-.034-.4-.054a1.275,1.275,0,0,1-.188-.047h0c-.046-.016-.115-.037-.2-.062-.2-.061-.459-.142-.741-.258a4.1,4.1,0,0,1-.867-.475,2.634,2.634,0,0,1-.514-.492,2.129,2.129,0,0,1-.422-.933,4.933,4.933,0,0,1-.086-.915,5.385,5.385,0,0,1,.115-1.085c.048-.238.111-.476.183-.717a7.7,7.7,0,0,1-.848-.692,2.891,2.891,0,0,1-.481-.581l0,0,0,0-.01-.018,0,0a1.423,1.423,0,0,1-.062-.143c-.02-.052-.038-.109-.057-.171-.037-.123-.073-.265-.108-.419-.011-.05-.023-.1-.034-.153-.027.147-.055.285-.085.41a3.127,3.127,0,0,1-.1.333,1.229,1.229,0,0,1-.061.143l0,0,0,0-.01.018,0,0a2.9,2.9,0,0,1-.481.581,7.024,7.024,0,0,1-.634.535c-.25.189-.5.361-.723.5a5.846,5.846,0,0,1,.2,1.464,4.9,4.9,0,0,1-.086.908,2.124,2.124,0,0,1-.282.731,2.391,2.391,0,0,1-.472.548,3.931,3.931,0,0,1-1.143.658c-.246.1-.474.166-.648.22-.08.025-.149.046-.194.062a1.291,1.291,0,0,1-.187.047c-.071.013-.151.025-.247.036-.191.023-.441.047-.775.078-.394.036-.907.084-1.453.151s-1.123.155-1.641.269a6.737,6.737,0,0,0-.927.265,2.627,2.627,0,0,0-.388.181.928.928,0,0,0-.261.211.533.533,0,0,0-.046.072.732.732,0,0,0-.046.1.759.759,0,0,0-.046.254.544.544,0,0,0,.059.254.562.562,0,0,0,.165.189,1.147,1.147,0,0,0,.306.159,3.158,3.158,0,0,0,1.038.144h.066a21.371,21.371,0,0,0,2.338-.2c.873-.112,1.812-.259,2.737-.4s1.824-.285,2.629-.387c.264-.034.518-.064.762-.089l-.253-.055a6.659,6.659,0,0,0-1.289-.176,1.377,1.377,0,0,0-.23.016.348.348,0,0,0-.094.027.542.542,0,0,1-.513-.017.522.522,0,0,1-.2-.207.505.505,0,0,1,.017-.5.523.523,0,0,1,.212-.194,1.381,1.381,0,0,1,.376-.12,2.5,2.5,0,0,1,.443-.036A5.639,5.639,0,0,1,10.493,21.672ZM6.741,20.6ZM6.741,20.6Zm9.541-.059h0ZM7.216,17.122h0ZM8.255,9.56a2.016,2.016,0,0,0-.819.535,2.279,2.279,0,0,0-.378.572,3.9,3.9,0,0,0-.308,1.072,11.515,11.515,0,0,0-.1,1.705c0,.281,0,.565.009.848l0,.22c0,.2.017.48.048.779a8.353,8.353,0,0,0,.14.916,3.569,3.569,0,0,0,.188.628,1.021,1.021,0,0,0,.136.243l.1-.035c.1-.038.233-.094.387-.166A12.463,12.463,0,0,0,8.8,16.262c.351-.213.668-.425.937-.626a5.545,5.545,0,0,0,.65-.555,1.747,1.747,0,0,0,.225-.274c0-.011.011-.027.018-.047s.018-.057.028-.094c.02-.073.041-.166.062-.272.042-.213.085-.48.124-.767.08-.575.15-1.231.193-1.714a.508.508,0,0,1,.17-.337.536.536,0,0,1,.357-.135l.045,0a.539.539,0,0,1,.135.029.539.539,0,0,1,.111-.027.59.59,0,0,1,.069,0,.535.535,0,0,1,.347.127.508.508,0,0,1,.177.322c.08.6.213,1.456.342,2.1.043.215.085.408.124.556.023.085.044.155.061.2.008.021.015.039.021.051a1.776,1.776,0,0,0,.225.274,4.63,4.63,0,0,0,.4.359c.195.159.426.328.685.5l.027.018c.15.1.31.2.478.3a11.462,11.462,0,0,0,1.335.7c.108.046.2.082.267.1l.024.008a.673.673,0,0,0,.059-.088,2.743,2.743,0,0,0,.264-.783,8.3,8.3,0,0,0,.141-.916c.03-.3.045-.577.048-.779l0-.22c0-.282.008-.567.008-.848a11.474,11.474,0,0,0-.1-1.705,3.73,3.73,0,0,0-.363-1.18,2.057,2.057,0,0,0-.647-.745,2.184,2.184,0,0,0-.608-.29,3.648,3.648,0,0,0-1.077-.143H9.444A3.5,3.5,0,0,0,8.255,9.56ZM11.34,15.195ZM11.348,15.179ZM10.811,14.909Zm4.129.451a.526.526,0,0,1-.283-.187.5.5,0,0,1-.088-.446,1.919,1.919,0,0,0,.046-.225c.013-.088.024-.187.032-.3.017-.215.024-.463.024-.723,0-.835-.073-1.792-.118-2.238a.445.445,0,0,1,0-.051.508.508,0,0,1,.137-.345.534.534,0,0,1,.341-.168h0a.5.5,0,0,1,.052,0,.537.537,0,0,1,.354.133.512.512,0,0,1,.172.332c0,.038.035.347.064.781s.059,1,.059,1.54c0,.218,0,.433-.016.637s-.029.4-.056.572a2.781,2.781,0,0,1-.067.324.517.517,0,0,1-.192.276.542.542,0,0,1-.319.1v0A.541.541,0,0,1,14.941,15.36Zm-6.734-.086A.513.513,0,0,1,8.014,15a2.8,2.8,0,0,1-.068-.324c-.018-.117-.032-.241-.042-.371-.021-.261-.029-.547-.029-.837,0-.544.029-1.1.058-1.54s.061-.743.064-.781a.512.512,0,0,1,.172-.332.536.536,0,0,1,.354-.133.512.512,0,0,1,.053,0h0a.534.534,0,0,1,.341.168.508.508,0,0,1,.136.345.478.478,0,0,1,0,.051c-.045.446-.118,1.4-.118,2.238,0,.2,0,.383.013.556s.023.33.043.462a1.858,1.858,0,0,0,.046.225.5.5,0,0,1-.088.446.529.529,0,0,1-.283.187.543.543,0,0,1-.14.018v0A.54.54,0,0,1,8.206,15.274ZM9.478,7.407A4.1,4.1,0,0,1,7.971,5.625a3.953,3.953,0,0,1,.384-3.838A4.158,4.158,0,0,1,10.185.319a4.251,4.251,0,0,1,3.941.374,4.1,4.1,0,0,1,1.507,1.782,3.952,3.952,0,0,1-.384,3.839,4.158,4.158,0,0,1-1.83,1.468A4.234,4.234,0,0,1,11.8,8.1V7.879h0V8.1A4.215,4.215,0,0,1,9.478,7.407ZM11.8,1.031a3.139,3.139,0,0,0-1.732.516A3.064,3.064,0,0,0,8.946,2.876a2.948,2.948,0,0,0,.286,2.86A3.1,3.1,0,0,0,10.6,6.832a3.169,3.169,0,0,0,2.937-.279,3.057,3.057,0,0,0,1.124-1.329,2.946,2.946,0,0,0-.286-2.86,3.1,3.1,0,0,0-1.365-1.095A3.151,3.151,0,0,0,11.8,1.031v0Z"/></svg>