<svg xmlns="http://www.w3.org/2000/svg" width="17" height="20" viewBox="0 0 17 20"><defs><style>.a{fill:rgba(0,0,0,0.87);}</style></defs><path class="a" d="M4.674,20A4.7,4.7,0,0,1,0,15.29V4.51A4.493,4.493,0,0,1,4.465,0H9.752a.458.458,0,0,1,.455.46V3.68a3.341,3.341,0,0,0,3.307,3.34c.423,0,.794,0,1.122.006.256,0,.481,0,.679,0,.141,0,.323,0,.521,0,.229,0,.486-.005.716-.005A.448.448,0,0,1,17,7.47v8.04A4.478,4.478,0,0,1,12.544,20Zm.455-9.01a.742.742,0,0,0,.742.74h1.7v1.731a.738.738,0,1,0,1.475,0V11.73h1.713a.745.745,0,0,0,0-1.49H9.049V8.51a.738.738,0,1,0-1.475,0v1.73h-1.7A.747.747,0,0,0,5.129,10.99Zm8.518-5.431a2.017,2.017,0,0,1-2-2.017V.906a.472.472,0,0,1,.814-.334l3.986,4.187a.477.477,0,0,1-.339.807h-.645C14.824,5.568,14.161,5.565,13.647,5.559Z"/></svg>