<svg xmlns="http://www.w3.org/2000/svg" width="26" height="23.564" viewBox="0 0 26 23.564"><defs><style>.a{fill:rgba(0,0,0,0.87);}</style></defs><path class="a" d="M25.683,29.021,22.517,26.75a.71.71,0,0,0-.781-.065c-.028.011-1.552.54-1.559.542a1.38,1.38,0,0,0-.176.085.379.379,0,0,0-.1.071.7.7,0,0,0-.223.61l0,2.566a8.761,8.761,0,0,0-5.654-.345,8.774,8.774,0,0,0-3.173-1.473l1.5-2.087a.7.7,0,0,0,.123-.759c-.023-.05-1.021-1.48-1.037-1.505a.706.706,0,0,0-.671-.4h-3.9a.706.706,0,0,0-.671.4c-.016.025-1.024,1.473-1.049,1.531a.377.377,0,0,0-.036.1.7.7,0,0,0,.172.633l1.5,2.086a8.822,8.822,0,1,0,4.35,17.1l.078.057a8.739,8.739,0,0,0,5.115,1.654,8.912,8.912,0,0,0,1.45-.119A8.756,8.756,0,0,0,23.5,43.866a8.844,8.844,0,0,0-.512-10.929l2.43-.822a.686.686,0,0,0,.564-.724c0-.007.011-1.62.013-1.65a.708.708,0,0,0-.311-.72ZM22.074,27.37l3.163,2.269c0,.017-.016,1.5-.016,1.5l-4.294-3.361Zm-1.638.987,4.139,3.24-2.169.733a8.849,8.849,0,0,0-1.968-1.413ZM6.867,24.749h3.891c.009.014.677.969.677.969H6.19S6.857,24.763,6.867,24.749Zm-.778,1.731h5.447l-1.513,2.108a8.8,8.8,0,0,0-2.421,0ZM.762,37.325a8.05,8.05,0,1,1,16.1,0,8.158,8.158,0,0,1-3.015,6.295,5.557,5.557,0,0,1-.7-.43,5.487,5.487,0,0,1-.8-.7,6.16,6.16,0,0,0,2.716-5.163,6.226,6.226,0,0,0-1.338-3.863l-.007-.012a.384.384,0,0,0-.062-.074,6.283,6.283,0,0,0-2.207-1.721.384.384,0,0,0-.057-.027,6.242,6.242,0,0,0-7.7,2.119c-.061.089-.114.169-.163.246a.381.381,0,0,0,.643.409c.044-.069.093-.143.146-.221a5.482,5.482,0,0,1,6.2-2.076,8.833,8.833,0,0,0-1.99,10.7,5.5,5.5,0,0,1-5.015-6.886.381.381,0,1,0-.737-.193,6.259,6.259,0,0,0,6.042,7.849l.161,0a8.745,8.745,0,0,0,1.41,1.654A8.055,8.055,0,0,1,.762,37.325Zm13.534,0a5.407,5.407,0,0,1-2.438,4.57,5.505,5.505,0,0,1,.022-6.367,5.448,5.448,0,0,1,1.41-1.368A5.465,5.465,0,0,1,14.3,37.325Zm8.585,6.1a8.045,8.045,0,0,1-11.233,1.855c-.07-.051-.137-.1-.2-.148l-.005,0A7.993,7.993,0,0,1,9.51,43c-.006-.011-.013-.022-.02-.032A8.07,8.07,0,0,1,11.3,32.435a5.515,5.515,0,0,1,1.5,1.133,6.258,6.258,0,0,0-1.361,9.047.382.382,0,0,0,.048.059A6.233,6.233,0,0,0,12.7,43.808a6.314,6.314,0,0,0,1.038.6l0,0a6.168,6.168,0,0,0,2.584.566,6.323,6.323,0,0,0,1.029-.085,6.2,6.2,0,0,0,4.061-2.527.381.381,0,1,0-.619-.443,5.487,5.487,0,0,1-6.16,2.023,8.923,8.923,0,0,0,2.989-6.623,8.775,8.775,0,0,0-1-4.081,5.488,5.488,0,0,1,2.909,1.02,5.544,5.544,0,0,1,2.022,6.164.381.381,0,1,0,.724.236,6.252,6.252,0,0,0-6.108-8.188,8.889,8.889,0,0,0-1.409-1.654,7.99,7.99,0,0,1,5.109.66l.033.017A8.067,8.067,0,0,1,22.88,43.423Z" transform="translate(0 -23.987)"/></svg>