<svg xmlns="http://www.w3.org/2000/svg" width="26" height="24.35" viewBox="0 0 26 24.35"><defs><style>.a{fill:rgba(0,0,0,0.87);}</style></defs><g transform="translate(0 0)"><g transform="translate(11.103 3.829)"><path class="a" d="M167.887,72.328a.6.6,0,0,0-.418-.13h-2.28l2.144-2.394.2-.223.1-.13a.721.721,0,0,0,.087-.163.543.543,0,0,0,.038-.2.407.407,0,0,0-.2-.391,1.21,1.21,0,0,0-.57-.109h-2.665a.586.586,0,0,0-.4.119.4.4,0,0,0-.141.32q0,.277.185.337a1.742,1.742,0,0,0,.543.065h1.737q-.109.152-.282.358l-.445.5-.6.651-.7.776q-.364.407-.478.543a.51.51,0,0,0,.049.7.738.738,0,0,0,.5.147h3.17a.619.619,0,0,0,.423-.125.413.413,0,0,0,.141-.32A.434.434,0,0,0,167.887,72.328Z" transform="translate(-163.629 -68.592)"/></g><g transform="translate(16.794 7.331)"><g transform="translate(0 0)"><path class="a" d="M250.886,123.206a.478.478,0,0,0-.337-.1h-1.824l1.71-1.911.163-.179.1-.125a.568.568,0,0,0,.071-.13.434.434,0,0,0,.033-.157.326.326,0,0,0-.157-.315.966.966,0,0,0-.456-.087h-2.15a.472.472,0,0,0-.315.1.32.32,0,0,0-.114.255q0,.217.147.271a1.386,1.386,0,0,0,.434.049h1.39a3.213,3.213,0,0,1-.228.288l-.358.4-.467.543-.543.619q-.293.326-.385.445a.407.407,0,0,0,.038.543.586.586,0,0,0,.4.114h2.519a.494.494,0,0,0,.337-.1.331.331,0,0,0,.109-.255A.347.347,0,0,0,250.886,123.206Z" transform="translate(-247.516 -120.197)"/></g></g><g transform="translate(21.595 3.525)"><g transform="translate(0 0)"><path class="a" d="M322.533,67.876a.6.6,0,0,0-.418-.13h-2.3l2.144-2.394.2-.223.13-.157a.72.72,0,0,0,.087-.163.543.543,0,0,0,.038-.2.407.407,0,0,0-.2-.391,1.211,1.211,0,0,0-.57-.109h-2.692a.586.586,0,0,0-.4.119.4.4,0,0,0-.141.32q0,.277.185.337a1.743,1.743,0,0,0,.543.065h1.737q-.109.152-.282.358l-.451.51-.586.651-.7.776q-.364.407-.478.543a.51.51,0,0,0,.049.7.738.738,0,0,0,.5.147H322.1a.619.619,0,0,0,.434-.109.413.413,0,0,0,.141-.32A.434.434,0,0,0,322.533,67.876Z" transform="translate(-318.269 -64.112)"/></g></g><g transform="translate(0 0)"><path class="a" d="M23.986,28.588a.543.543,0,0,0-.6-.125A11.529,11.529,0,0,1,8.532,12.933a.543.543,0,0,0-.7-.733A12.626,12.626,0,1,0,24.084,29.19.543.543,0,0,0,23.986,28.588Zm-11.35,6.839A11.546,11.546,0,0,1,7.017,13.8a12.446,12.446,0,0,0-.651,3.99A12.631,12.631,0,0,0,22.455,29.934,11.589,11.589,0,0,1,12.636,35.427Z" transform="translate(0 -12.158)"/></g></g></svg>