<svg xmlns="http://www.w3.org/2000/svg" xmlns:xlink="http://www.w3.org/1999/xlink" width="64.792" height="49.892" viewBox="0 0 64.792 49.892">
  <defs>
    <linearGradient id="linear-gradient" x1="0.5" x2="0.5" y2="1" gradientUnits="objectBoundingBox">
      <stop offset="0" stop-color="#8c37f6"/>
      <stop offset="1" stop-color="#1431fb"/>
    </linearGradient>
  </defs>
  <path id="Path_1173" data-name="Path 1173" d="M118.865,152.632c7.946-.088,13.17,4.005,15.588,9.313.395.866.277,1.789.65,2.811.3.83,1.422.875,1.594,2.05l-.413.468.118.176c1,.366,1.011,2.377.767,3.748-.572,3.229-1.444,6.028-3.189,8.082a21.923,21.923,0,0,1-5.019,4.217l-.945,1c-.539.293-1.174-.059-1.653-.117l-2.3.761q-.354.762-.709,1.523a10.9,10.9,0,0,1-2.361,2.929c-4.047,3.205-8.863,2.894-14.7,1.7l-.236-.7-.3.059a10.36,10.36,0,0,1-3.306,1.289c-4.593.741-10.843-2.736-10.215-6.794.514-3.317,1.765-5.776,2.48-8.961.912-4.062-1.221-6.393-3.956-7.321a5.811,5.811,0,0,0-2.361-.469c-2.331.288-4.28,1.444-4.842,3.456-.821,2.943.15,5.559-1.476,7.848a5.24,5.24,0,0,1-3.425,1.933c-1.766.312-4.464-.7-5.2.7-.792,1.515.636,3.8,1.24,4.8,1.91,3.178,4.265,4.412,7.971,5.857a29.469,29.469,0,0,1,5.63,3.509l1.083-.1,4.623,4.5c.334.941-.664,1.365-1.358,1.631L87.791,197.8c-2.052-4.336-9.879-5.236-12.738-9.029-.887-1.177-3.211-3.927-2.361-6.267s3.518-.98,6.082-1.522a4.639,4.639,0,0,0,2.834-1.816c1.391-1.962.591-4.357,1.24-7.087a5.681,5.681,0,0,1,3.248-3.749,6.3,6.3,0,0,1,3.307-.351c3.543.623,5.39,2.275,6.141,5.622.547,2.439-1.559,7.043-2.126,8.9a7.528,7.528,0,0,0-.236,4.393c.878,2.469,5.12,5.219,8.739,4.158,1.078-.316,1.98-.43,2.48-1.288l-.059-.117c-1.327.134-2.031-.861-2.834-1.464a9.4,9.4,0,0,1-3.306-9.664,13.462,13.462,0,0,1,1.358-3.689l1.063-1.523q-.029-.849-.059-1.7c.144-.868.638-1.2.827-1.816.206-.664-.121-1.558.059-2.225,1.414-5.233,3.411-9.645,7.558-12.182.634-.388.9-1.531,1.654-1.7l1.3.234c.12-.406.315-.47.59-.7.578.036.733.265,1.181.352.979.188,1.836-.467,2.6-.644Zm-1.89,2.284c-1.123.811-1.4.091-2.244.351a11.75,11.75,0,0,0-1.181.82l-.886-.293c-.383,1.371-2.339,1.714-3.425,2.4-2.066,1.308-5.366,6.584-4.311,9.9.229.717-.6,1.621-.118,2.167.686.245,1.025-.318,1.476-.469a4.112,4.112,0,0,1,3.129,1c1.314,1.46,1.2,4.891.708,7.2-.788,3.691-2.589,8.82-4.605,11.421a20.407,20.407,0,0,1-2.185,1.816h.3c2.2-.966,3.05-2.614,4.606-4.158a75.761,75.761,0,0,1,7.557-6.56c.9-.682,4.34-3.695,5.846-3.162.6.213.994.753,1.594,1.055v.41a1.464,1.464,0,0,0-.531.762,2.883,2.883,0,0,1,1.417,2.343l.177.117c.929-.225,1.812-.163,2.6-.41.31-.642.693-1.414,1.712-1.347a1.974,1.974,0,0,0,1-.059l2.066-1.7a12.847,12.847,0,0,0,2.834-5.446v-3.924l.591-1.171c-.856-.517-.255-1.225-.709-2.167l-.944-.82c-.585-.879-.8-1.96-1.358-2.811C129.032,157.477,124.883,154.915,116.975,154.916ZM86.761,197.3l.7.754Z" transform="translate(-72.508 -152.63)" fill="url(#linear-gradient)"/>
</svg>
