<svg xmlns="http://www.w3.org/2000/svg" xmlns:xlink="http://www.w3.org/1999/xlink" width="148.627" height="25.891" viewBox="0 0 148.627 25.891">
  <defs>
    <linearGradient id="linear-gradient" x1="0.5" x2="0.5" y2="1" gradientUnits="objectBoundingBox">
      <stop offset="0" stop-color="#8c37f6"/>
      <stop offset="1" stop-color="#1431fb"/>
    </linearGradient>
  </defs>
  <path id="Path_1174" data-name="Path 1174" d="M5.221-30.313A2.425,2.425,0,0,0,5.76-28.7a3.192,3.192,0,0,0,1.384.948,15.135,15.135,0,0,0,1.884.538q1.038.231,2.076.526a9.13,9.13,0,0,1,1.884.756,3.589,3.589,0,0,1,1.384,1.384,4.463,4.463,0,0,1,.538,2.281,4.871,4.871,0,0,1-1.589,3.614,5.912,5.912,0,0,1-4.294,1.538,7.242,7.242,0,0,1-4.4-1.243A3.965,3.965,0,0,1,2.94-21.725H5.427a2.784,2.784,0,0,0,.961,1.948,3.8,3.8,0,0,0,2.551.743,3.953,3.953,0,0,0,2.692-.872,2.633,2.633,0,0,0,1-2.038,2.679,2.679,0,0,0-.538-1.794,3.242,3.242,0,0,0-1.384-.936A13.848,13.848,0,0,0,8.823-25.2q-1.038-.218-2.076-.526a9.163,9.163,0,0,1-1.884-.782,3.661,3.661,0,0,1-1.384-1.41,4.591,4.591,0,0,1-.538-2.32,4.539,4.539,0,0,1,1.6-3.627,6.2,6.2,0,0,1,4.178-1.371,6.486,6.486,0,0,1,4.1,1.192,4.63,4.63,0,0,1,1.756,3.294H11.989A2.619,2.619,0,0,0,11-32.543a3.586,3.586,0,0,0-2.384-.743,3.807,3.807,0,0,0-2.448.756A2.667,2.667,0,0,0,5.221-30.313ZM24.37-18.983a4.721,4.721,0,0,0,3.422-1.423,5.264,5.264,0,0,0,1.448-3.935,5.358,5.358,0,0,0-1.384-3.922,4.546,4.546,0,0,0-3.371-1.41,4.381,4.381,0,0,0-3.32,1.41,5.5,5.5,0,0,0-1.333,3.935,5.638,5.638,0,0,0,1.282,3.935A4.207,4.207,0,0,0,24.37-18.983Zm-4.986-.077a7.236,7.236,0,0,1-1.935-5.255,7.1,7.1,0,0,1,2.025-5.268,6.908,6.908,0,0,1,5.076-2.012,6.908,6.908,0,0,1,5.076,2.012,7.083,7.083,0,0,1,2.025,5.255,6.923,6.923,0,0,1-2.115,5.255A7.214,7.214,0,0,1,24.37-17.06,6.633,6.633,0,0,1,19.384-19.059Zm17.521-12.3v2.281a4.894,4.894,0,0,1,4.589-2.512,5.311,5.311,0,0,1,3.9,1.551,5.953,5.953,0,0,1,1.564,4.422v8.331H44.647v-7.947a4.58,4.58,0,0,0-1.025-3.23,3.679,3.679,0,0,0-2.833-1.1,3.72,3.72,0,0,0-2.845,1.1,4.544,4.544,0,0,0-1.038,3.23v7.947H34.573V-31.364Zm19.559,14.3a6.282,6.282,0,0,1-4.794-2.064A7.439,7.439,0,0,1,49.748-24.4a7.2,7.2,0,0,1,1.91-5.2,6.387,6.387,0,0,1,4.806-1.987,5.776,5.776,0,0,1,3.14.846,5.545,5.545,0,0,1,2.038,2.2v-2.82H64v14.432a6.33,6.33,0,0,1-1.871,4.73,6.5,6.5,0,0,1-4.742,1.833A8.035,8.035,0,0,1,52.632-11.7a4.832,4.832,0,0,1-2.14-3.486h2.281a3.471,3.471,0,0,0,1.564,2,5.511,5.511,0,0,0,3.05.795,4.169,4.169,0,0,0,3.038-1.192,4.468,4.468,0,0,0,1.218-3.345v-3.23A5.589,5.589,0,0,1,59.6-17.919,5.711,5.711,0,0,1,56.464-17.06Zm3.781-3.435a5.242,5.242,0,0,0,1.4-3.819,5.242,5.242,0,0,0-1.4-3.819,4.518,4.518,0,0,0-3.358-1.436,4.6,4.6,0,0,0-3.358,1.384,5.065,5.065,0,0,0-1.4,3.768,5.4,5.4,0,0,0,1.41,3.871A4.471,4.471,0,0,0,56.9-19.059,4.5,4.5,0,0,0,60.245-20.495Zm7.088-6.9a3.736,3.736,0,0,1,1.474-2.986,5.8,5.8,0,0,1,3.819-1.218A5.322,5.322,0,0,1,76.3-30.4a4.562,4.562,0,0,1,1.461,3.268h-2.41a2.688,2.688,0,0,0-.795-1.9,2.847,2.847,0,0,0-2.064-.718,3.154,3.154,0,0,0-2.076.628,2,2,0,0,0-.756,1.615,1.7,1.7,0,0,0,.859,1.525A6.151,6.151,0,0,0,72.6-25.2q1.218.244,2.435.564a4.4,4.4,0,0,1,2.076,1.2,3.458,3.458,0,0,1,.859,2.512A3.334,3.334,0,0,1,76.5-18.175a6.183,6.183,0,0,1-3.832,1.115,5.736,5.736,0,0,1-3.781-1.179,4.372,4.372,0,0,1-1.551-3.256h2.41a2.572,2.572,0,0,0,.833,1.884,3.1,3.1,0,0,0,2.153.7,3.5,3.5,0,0,0,2.153-.59,1.8,1.8,0,0,0,.782-1.5,1.827,1.827,0,0,0-.615-1.448,3.412,3.412,0,0,0-1.538-.743q-.923-.205-2.012-.487t-2.012-.6a3.267,3.267,0,0,1-1.538-1.115A3.169,3.169,0,0,1,67.333-27.391Zm25.711-7.665h2.333v17.764H93.044l-9.382-14.1v14.1H81.329V-35.055h2.333l9.382,14.1Zm12.074,18a6.478,6.478,0,0,1-4.922-2,7.356,7.356,0,0,1-1.9-5.281,7.254,7.254,0,0,1,1.923-5.268,6.629,6.629,0,0,1,4.986-1.987,6.6,6.6,0,0,1,4.922,1.884,6.558,6.558,0,0,1,1.858,4.806,8.774,8.774,0,0,1-.1,1.384h-11.2A4.838,4.838,0,0,0,102-20.2a4.217,4.217,0,0,0,3.115,1.218,4.355,4.355,0,0,0,2.422-.641,3.807,3.807,0,0,0,1.448-1.692H111.5a6.459,6.459,0,0,1-2.294,3.05A6.686,6.686,0,0,1,105.118-17.06Zm4.435-8.152a4.391,4.391,0,0,0-1.282-3.243,4.3,4.3,0,0,0-3.115-1.218,4.261,4.261,0,0,0-3.089,1.192,4.771,4.771,0,0,0-1.359,3.268Zm12.42,6.152a4.463,4.463,0,0,0,3.358-1.474,5.4,5.4,0,0,0,1.4-3.871,5.083,5.083,0,0,0-1.4-3.781,4.6,4.6,0,0,0-3.358-1.384,4.518,4.518,0,0,0-3.358,1.436,5.225,5.225,0,0,0-1.4,3.807,5.27,5.27,0,0,0,1.4,3.819A4.5,4.5,0,0,0,121.972-19.059Zm.449-12.535a6.387,6.387,0,0,1,4.806,1.987,7.2,7.2,0,0,1,1.91,5.2,7.439,7.439,0,0,1-1.923,5.281,6.282,6.282,0,0,1-4.794,2.064,5.711,5.711,0,0,1-3.14-.859,5.78,5.78,0,0,1-2.064-2.243v9.536h-2.333V-31.364h2.333v2.82a5.737,5.737,0,0,1,2.064-2.2A5.776,5.776,0,0,1,122.421-31.595Zm19.213,11.1a5.242,5.242,0,0,0,1.4-3.819,5.242,5.242,0,0,0-1.4-3.819,4.518,4.518,0,0,0-3.358-1.436,4.6,4.6,0,0,0-3.358,1.384,5.065,5.065,0,0,0-1.4,3.768,5.4,5.4,0,0,0,1.41,3.871,4.471,4.471,0,0,0,3.358,1.487A4.5,4.5,0,0,0,141.634-20.495Zm-3.781,3.435a6.282,6.282,0,0,1-4.794-2.064,7.439,7.439,0,0,1-1.923-5.281,7.2,7.2,0,0,1,1.91-5.2,6.387,6.387,0,0,1,4.806-1.987,5.776,5.776,0,0,1,3.14.846,5.545,5.545,0,0,1,2.038,2.2v-2.82h2.358v14.073h-2.358v-2.871a5.589,5.589,0,0,1-2.038,2.243A5.711,5.711,0,0,1,137.853-17.06Zm11.382-.231V-36.26h2.333v18.969Z" transform="translate(-2.94 36.26)" fill="url(#linear-gradient)"/>
</svg>
