<svg xmlns="http://www.w3.org/2000/svg" xmlns:xlink="http://www.w3.org/1999/xlink" width="357.925" height="371.377" viewBox="0 0 357.925 371.377">
  <defs>
    <linearGradient id="linear-gradient" x1="0.5" x2="0.5" y2="1" gradientUnits="objectBoundingBox">
      <stop offset="0" stop-color="#8c37f6"/>
      <stop offset="1" stop-color="#1431fb"/>
    </linearGradient>
  </defs>
  <g id="Headphone-pana_1_" data-name="Headphone-pana (1)" transform="translate(15.471)">
    <g id="freepik--background-complete--inject-145" transform="translate(-15.471 13.452)">
      <path id="Path_1180" data-name="Path 1180" d="M289.27,437.049c5.22-9.576,14.776-26.441,22.9-40.958s15.475-27.664,20.735-37.24l6.224-11.305,1.7-3.079.446-.791c.1-.18.16-.266.16-.266s-.04.093-.133.279l-.419.811c-.386.718-.938,1.762-1.643,3.1-1.43,2.693-3.531,6.577-6.138,11.365-5.22,9.576-12.535,22.743-20.662,37.24s-17.709,31.388-22.976,40.951" transform="translate(-101.741 -142.65)" fill="#e0e0e0"/>
      <path id="Path_1181" data-name="Path 1181" d="M331,373.3a3.321,3.321,0,0,1,.219.665c.126.446.286,1.091.479,1.882.379,1.6.851,3.81,1.33,6.264s.878,4.615,1.19,6.291c.153.751.273,1.39.372,1.9a3.125,3.125,0,0,1,.113.7,3.332,3.332,0,0,1-.226-.665c-.126-.446-.286-1.084-.472-1.889-.359-1.6-.8-3.817-1.277-6.271s-.9-4.6-1.237-6.278c-.153-.751-.279-1.39-.379-1.9A3.329,3.329,0,0,1,331,373.3Z" transform="translate(-115.721 -152.663)" fill="#e0e0e0"/>
      <path id="Path_1182" data-name="Path 1182" d="M337.88,397.786c0-.087,4.5-1.25,10.108-2.613s10.155-2.394,10.175-2.314-4.5,1.25-10.108,2.614S337.9,397.865,337.88,397.786Z" transform="translate(-118.025 -159.213)" fill="#e0e0e0"/>
      <path id="Path_1183" data-name="Path 1183" d="M317.6,432.991a3.6,3.6,0,0,1,.725,0l1.995.093c1.669.073,3.99.16,6.524.166s4.855-.053,6.524-.113l2-.073a3.057,3.057,0,0,1,.725,0,3.433,3.433,0,0,1-.718.113c-.466.047-1.144.107-1.995.166-1.669.12-3.99.219-6.537.213s-4.868-.133-6.537-.266c-.838-.067-1.51-.126-1.995-.186A3.455,3.455,0,0,1,317.6,432.991Z" transform="translate(-111.232 -172.653)" fill="#e0e0e0"/>
      <path id="Path_1184" data-name="Path 1184" d="M306,409.93a3,3,0,0,1,.366.572c.239.432.539.964.884,1.6.738,1.33,1.742,3.245,2.833,5.32s2.061,3.99,2.747,5.38l.8,1.643a3.626,3.626,0,0,1,.259.625,2.667,2.667,0,0,1-.366-.572l-.891-1.6c-.738-1.33-1.736-3.245-2.826-5.32s-2.062-3.99-2.753-5.38l-.8-1.643A2.662,2.662,0,0,1,306,409.93Z" transform="translate(-107.346 -164.934)" fill="#e0e0e0"/>
      <path id="Path_1185" data-name="Path 1185" d="M284.41,436.51a4.2,4.2,0,0,1,.459.732l1.144,2.042c.958,1.736,2.261,4.143,3.684,6.81s2.693,5.087,3.6,6.85l1.064,2.095a6.569,6.569,0,0,1,.352.785,4.059,4.059,0,0,1-.459-.731l-1.15-2.048c-.951-1.729-2.254-4.136-3.677-6.8s-2.693-5.087-3.6-6.849l-1.064-2.095A4.6,4.6,0,0,1,284.41,436.51Z" transform="translate(-100.113 -173.838)" fill="#e0e0e0"/>
      <path id="Path_1186" data-name="Path 1186" d="M299.72,464.476a5.962,5.962,0,0,1,.924,0h2.514c2.115,0,5.047,0,8.279-.053s6.158-.213,8.279-.332l2.507-.14a5.779,5.779,0,0,1,.924,0,5.705,5.705,0,0,1-.918.133c-.585.066-1.443.153-2.5.233-2.115.18-5.047.352-8.286.426s-6.171.033-8.293-.04c-1.064-.04-1.922-.08-2.514-.12A5.471,5.471,0,0,1,299.72,464.476Z" transform="translate(-105.242 -183.024)" fill="#e0e0e0"/>
      <path id="Path_1188" data-name="Path 1188" d="M144.053,432.967a205.775,205.775,0,0,0-7.069-22.57l-2.155-5.819c-.712-1.909-1.416-3.8-2.221-5.613a103.677,103.677,0,0,0-5.22-10.128c-1.815-3.139-3.658-6.052-5.393-8.765s-3.418-5.207-5.041-7.415a82.088,82.088,0,0,0-8.432-9.849c-1.077-1.077-1.948-1.889-2.54-2.434l-.665-.612a1.6,1.6,0,0,0-.246-.193,2.261,2.261,0,0,0,.213.226l.665.665c.579.559,1.423,1.39,2.487,2.487a86.528,86.528,0,0,1,8.3,9.909c1.6,2.214,3.259,4.715,4.994,7.428s3.544,5.633,5.32,8.771a105.4,105.4,0,0,1,5.18,10.1c.8,1.8,1.5,3.677,2.208,5.593s1.423,3.85,2.155,5.819a210.522,210.522,0,0,1,7.082,22.51" transform="translate(-40.035 -148.063)" fill="#e0e0e0"/>
      <path id="Path_1189" data-name="Path 1189" d="M146.3,406.151a5.125,5.125,0,0,0,.273-.971c.153-.625.339-1.543.559-2.66.439-2.268.938-5.426,1.476-8.911s1.077-6.65,1.549-8.878c.233-1.13.432-2.048.579-2.66a5.012,5.012,0,0,0,.18-.991,4.234,4.234,0,0,0-.339.951c-.193.612-.439,1.516-.7,2.66-.552,2.248-1.144,5.393-1.682,8.878s-.991,6.55-1.33,8.924c-.166,1.077-.313,2-.426,2.707A4.255,4.255,0,0,0,146.3,406.151Z" transform="translate(-53.847 -155.269)" fill="#e0e0e0"/>
      <path id="Path_1190" data-name="Path 1190" d="M102.3,408.262a7.639,7.639,0,0,0,1.17.2c.758.1,1.849.246,3.192.472,2.66.426,6.384,1.15,10.427,2.121s7.661,1.995,10.261,2.853c1.33.406,2.347.758,3.072,1a6.081,6.081,0,0,0,1.137.339,7.367,7.367,0,0,0-1.084-.5c-.7-.286-1.736-.665-3.032-1.137-2.58-.9-6.2-1.995-10.254-2.979a106.134,106.134,0,0,0-10.48-2c-1.33-.186-2.461-.286-3.219-.339A5.6,5.6,0,0,0,102.3,408.262Z" transform="translate(-39.107 -164.37)" fill="#e0e0e0"/>
      <path id="Path_1191" data-name="Path 1191" d="M163.18,450.471a1.776,1.776,0,0,0,.219-.352c.153-.286.339-.625.559-1.044.485-.9,1.144-2.241,1.942-3.9,1.589-3.325,3.651-7.98,5.852-13.114s4.209-9.816,5.732-13.154c.745-1.623,1.33-2.959,1.815-3.95l.485-1.077a1.711,1.711,0,0,0,.146-.392,1.548,1.548,0,0,0-.219.352c-.153.279-.339.625-.559,1.044-.479.9-1.144,2.234-1.935,3.9-1.6,3.325-3.651,7.98-5.859,13.114s-4.209,9.809-5.732,13.154c-.745,1.623-1.33,2.959-1.815,3.95l-.485,1.077a1.588,1.588,0,0,0-.146.392Z" transform="translate(-59.502 -166.126)" fill="#e0e0e0"/>
      <path id="Path_1192" data-name="Path 1192" d="M105.12,447.13a1.367,1.367,0,0,0,.379.18l1.117.439,4.136,1.576c3.491,1.33,8.293,3.212,13.593,5.32s10.128,3.943,13.646,5.2c1.762.632,3.192,1.124,4.183,1.443l1.15.366a1.55,1.55,0,0,0,.406.1,2.849,2.849,0,0,0-.379-.186l-1.124-.432-4.13-1.576c-3.491-1.33-8.293-3.219-13.6-5.32s-10.148-3.943-13.639-5.2c-1.762-.632-3.192-1.124-4.183-1.443l-1.15-.366A1.555,1.555,0,0,0,105.12,447.13Z" transform="translate(-40.052 -177.396)" fill="#e0e0e0"/>
      <ellipse id="Ellipse_12" data-name="Ellipse 12" cx="3.369" cy="3.369" rx="3.369" ry="3.369" transform="translate(41.772 29.944) rotate(-55.993)" fill="#e0e0e0"/>
      <path id="Path_1193" data-name="Path 1193" d="M75.855,77.451c-.133.153-2.806-2.175-5.513-5.566s-4.828-6.125-4.695-6.258,2.587,2.407,5.267,5.786S75.994,77.3,75.855,77.451Z" transform="translate(-26.827 -49.592)" fill="#e0e0e0"/>
      <path id="Path_1194" data-name="Path 1194" d="M71.087,58.408c.193,0-.186,1.882-1.815,3.425s-3.491,1.842-3.511,1.623,1.543-.771,3-2.188S70.88,58.329,71.087,58.408Z" transform="translate(-26.866 -47.175)" fill="#e0e0e0"/>
      <path id="Path_1195" data-name="Path 1195" d="M74.13,62.679c.2,0-.093,1.875-1.8,3.265s-3.578,1.33-3.544,1.15a15.565,15.565,0,0,0,3.072-1.722C73.338,64.122,73.924,62.606,74.13,62.679Z" transform="translate(-27.881 -48.605)" fill="#e0e0e0"/>
      <circle id="Ellipse_13" data-name="Ellipse 13" cx="3.365" cy="3.365" r="3.365" transform="translate(270.336 165.289) rotate(-17.99)" fill="#e0e0e0"/>
      <path id="Path_1196" data-name="Path 1196" d="M418.955,284.891c-.133.153-2.806-2.175-5.513-5.566s-4.828-6.125-4.695-6.258,2.594,2.414,5.267,5.786S419.094,284.745,418.955,284.891Z" transform="translate(-141.763 -119.084)" fill="#e0e0e0"/>
      <path id="Path_1197" data-name="Path 1197" d="M414.187,265.849c.193,0-.18,1.882-1.815,3.425s-3.491,1.842-3.511,1.649a32.979,32.979,0,0,0,3-2.188C413.315,267.318,413.98,265.769,414.187,265.849Z" transform="translate(-141.803 -116.666)" fill="#e0e0e0"/>
      <path id="Path_1198" data-name="Path 1198" d="M417.23,270.119c.2,0-.093,1.875-1.8,3.265s-3.578,1.33-3.545,1.157a15.39,15.39,0,0,0,3.072-1.729C416.438,271.562,417.024,270.039,417.23,270.119Z" transform="translate(-142.818 -118.097)" fill="#e0e0e0"/>
      <path id="Path_1199" data-name="Path 1199" d="M408.885,71.447a3.358,3.358,0,1,1,1.451-2.126,3.365,3.365,0,0,1-1.451,2.126Z" transform="translate(-140.066 -49.474)" fill="#e0e0e0"/>
      <path id="Path_1200" data-name="Path 1200" d="M412.509,65.971c-.193-.067.938-3.425,3.032-7.222s3.817-6.81,3.99-6.73-1.237,3.325-3.325,7.082S412.7,66.057,412.509,65.971Z" transform="translate(-143.019 -45.035)" fill="#e0e0e0"/>
      <path id="Path_1201" data-name="Path 1201" d="M429.457,55.27c.047.193-1.815.552-3.864-.366s-3.039-2.52-2.873-2.607a35.961,35.961,0,0,0,3.172,1.929C427.735,55.031,429.444,55.058,429.457,55.27Z" transform="translate(-146.44 -45.127)" fill="#e0e0e0"/>
      <path id="Path_1202" data-name="Path 1202" d="M426.969,59.595c.073.186-1.762.625-3.7-.412s-2.613-2.786-2.421-2.833a16.85,16.85,0,0,0,2.773,2.175C425.34,59.408,426.955,59.375,426.969,59.595Z" transform="translate(-145.807 -46.486)" fill="#e0e0e0"/>
      <path id="Path_1203" data-name="Path 1203" d="M58.011,213.2a3.87,3.87,0,1,1,.712-5.42A3.87,3.87,0,0,1,58.011,213.2Z" transform="translate(-22.183 -96.705)" fill="#e0e0e0"/>
      <path id="Path_1204" data-name="Path 1204" d="M62.132,206.464c-.359-.093.552-4.1,2.66-8.645s3.884-8.067,4.209-7.98-.911,3.99-2.986,8.492S62.484,206.571,62.132,206.464Z" transform="translate(-25.625 -91.204)" fill="#e0e0e0"/>
      <path id="Path_1205" data-name="Path 1205" d="M82.477,197.292c0,.313-3.219.432-6.59-1.549a9.091,9.091,0,0,1-3.485-3.478c-.605-1.157-.512-2-.352-2.035s.439.665,1.157,1.529a12.409,12.409,0,0,0,3.365,2.833C79.591,196.38,82.55,196.879,82.477,197.292Z" transform="translate(-28.934 -91.335)" fill="#e0e0e0"/>
      <path id="Path_1206" data-name="Path 1206" d="M73.331,224.138a3.85,3.85,0,1,1,1.488-2.56A3.864,3.864,0,0,1,73.331,224.138Z" transform="translate(-27.322 -100.372)" fill="#e0e0e0"/>
      <path id="Path_1207" data-name="Path 1207" d="M77.45,217.414c-.366-.1.552-4.1,2.66-8.645s3.884-8.06,4.209-7.98-.911,3.99-2.986,8.5S77.79,217.514,77.45,217.414Z" transform="translate(-30.756 -94.872)" fill="#e0e0e0"/>
      <path id="Path_1208" data-name="Path 1208" d="M80.941,201.658c.04.346-3.032.665-6.258-1.084s-4.655-4.456-4.362-4.608,2.081,1.9,5,3.425S80.955,201.266,80.941,201.658Z" transform="translate(-28.382 -93.254)" fill="#e0e0e0"/>
      <path id="Path_1209" data-name="Path 1209" d="M440.646,149.943a3.711,3.711,0,1,1-2.806-4.429A3.711,3.711,0,0,1,440.646,149.943Z" transform="translate(-149.995 -76.325)" fill="#ebebeb"/>
      <path id="Path_1210" data-name="Path 1210" d="M441.374,141.961c-.319.153-2.108-3.325-3.365-7.98s-2.095-8.319-1.782-8.432,1.789,3.5,3.019,8.08S441.667,141.808,441.374,141.961Z" transform="translate(-150.949 -69.667)" fill="#ebebeb"/>
      <path id="Path_1211" data-name="Path 1211" d="M448.142,124.163c.2.226-2.1,2.294-5.8,2.906a8.645,8.645,0,0,1-4.7-.412c-1.157-.479-1.623-1.17-1.51-1.277s.725.213,1.789.412a11.97,11.97,0,0,0,4.216,0C445.455,125.267,447.936,123.818,448.142,124.163Z" transform="translate(-150.934 -69.186)" fill="#ebebeb"/>
      <path id="Path_1212" data-name="Path 1212" d="M458.643,148.577a3.7,3.7,0,1,1-2.806-4.422A3.7,3.7,0,0,1,458.643,148.577Z" transform="translate(-156.028 -75.87)" fill="#ebebeb"/>
      <path id="Path_1213" data-name="Path 1213" d="M459.371,140.591c-.326.153-2.115-3.325-3.365-7.98s-2.1-8.319-1.789-8.432,1.8,3.5,3.026,8.086S459.657,140.451,459.371,140.591Z" transform="translate(-156.976 -69.208)" fill="#ebebeb"/>
      <path id="Path_1214" data-name="Path 1214" d="M449.669,127.789c.246.226-1.822,2.347-5.267,3.046s-6.178-.4-6.045-.7,2.7.113,5.786-.559S449.423,127.49,449.669,127.789Z" transform="translate(-151.683 -70.404)" fill="#ebebeb"/>
      <path id="Path_1215" data-name="Path 1215" d="M38.66,141.783a2.48,2.48,0,1,1-.356-1.872A2.487,2.487,0,0,1,38.66,141.783Z" transform="translate(-16.139 -74.104)" fill="#f5f5f5"/>
      <path id="Path_1216" data-name="Path 1216" d="M39.011,136.472c-.219.106-1.45-2.228-2.341-5.32s-1.5-5.573-1.29-5.652,1.244,2.341,2.115,5.406S39.223,136.345,39.011,136.472Z" transform="translate(-16.676 -69.65)" fill="#f5f5f5"/>
      <path id="Path_1217" data-name="Path 1217" d="M43.418,124.342c.133.153-1.39,1.569-3.87,2a5.792,5.792,0,0,1-3.159-.233c-.785-.306-1.1-.771-1.024-.845s.485.14,1.2.259a7.821,7.821,0,0,0,2.833,0C41.629,125.113,43.278,124.1,43.418,124.342Z" transform="translate(-16.681 -69.251)" fill="#f5f5f5"/>
      <path id="Path_1218" data-name="Path 1218" d="M50.73,140.683a2.487,2.487,0,1,1-1.929-2.939A2.487,2.487,0,0,1,50.73,140.683Z" transform="translate(-20.182 -73.735)" fill="#f5f5f5"/>
      <path id="Path_1219" data-name="Path 1219" d="M51.09,135.331c-.219.106-1.456-2.228-2.347-5.32s-1.49-5.566-1.283-5.653,1.244,2.341,2.115,5.406S51.3,135.232,51.09,135.331Z" transform="translate(-20.722 -69.268)" fill="#f5f5f5"/>
      <path id="Path_1220" data-name="Path 1220" d="M44.483,126.767c.173.153-1.2,1.6-3.5,2.1s-4.156-.206-4.07-.412,1.815.047,3.884-.432S44.33,126.567,44.483,126.767Z" transform="translate(-17.2 -70.067)" fill="#f5f5f5"/>
      <path id="Path_1221" data-name="Path 1221" d="M428.341,206.889a2.487,2.487,0,1,1,1.3-1.411A2.487,2.487,0,0,1,428.341,206.889Z" transform="translate(-147.147 -95.326)" fill="#f5f5f5"/>
      <path id="Path_1222" data-name="Path 1222" d="M430.987,203.484c-.213-.113.924-2.5,2.866-5.061s3.564-4.529,3.757-4.416-1.131,2.394-3.066,4.928S431.213,203.6,430.987,203.484Z" transform="translate(-149.207 -92.599)" fill="#f5f5f5"/>
      <path id="Path_1223" data-name="Path 1223" d="M446.2,200.035c-.04.2-2.088-.18-3.93-1.9a5.865,5.865,0,0,1-1.709-2.66c-.219-.818-.04-1.33.06-1.33s.186.472.519,1.124a7.892,7.892,0,0,0,1.722,2.248C444.5,199.078,446.3,199.8,446.2,200.035Z" transform="translate(-152.387 -92.648)" fill="#f5f5f5"/>
      <ellipse id="Ellipse_14" data-name="Ellipse 14" cx="2.487" cy="2.487" rx="2.487" ry="2.487" transform="translate(283.05 112.813)" fill="#f5f5f5"/>
      <path id="Path_1224" data-name="Path 1224" d="M439.117,212.5c-.213-.106.918-2.494,2.866-5.061s3.565-4.529,3.757-4.409-1.13,2.394-3.066,4.928S439.33,212.61,439.117,212.5Z" transform="translate(-151.931 -95.621)" fill="#f5f5f5"/>
      <path id="Path_1225" data-name="Path 1225" d="M444.652,202.59c0,.226-2,0-3.784-1.556s-2.321-3.451-2.1-3.5,1.044,1.483,2.66,2.853S444.718,202.344,444.652,202.59Z" transform="translate(-151.806 -93.78)" fill="#f5f5f5"/>
      <path id="Path_2032" data-name="Path 2032" d="M188.526,63.641C165.766,46.349,145.184,25.767,119.9,12.43S62.279-5.827,38.083,9.4C25.664,17.218,16.651,29.536,10.133,42.688,4.194,54.659.093,67.757,0,81.118c-.062,13.824,4.232,27.339,9.909,39.943,11.167,24.8,28.328,47.419,51.35,61.907,12.357,7.8,26.188,13.129,40.159,17.354,43.627,13.245,91.841,16.342,134.163-.61,15.948-6.387,31-15.7,42.136-28.776s18.095-30.166,16.99-47.311-10.99-33.981-26.459-41.441c-13.523-6.541-26.335-4.981-40.468-3.089C212.876,81.071,199.963,72.329,188.526,63.641Z" transform="translate(0 208.471) rotate(-45)" fill="#f8f8f8" opacity="0.9"/>
    </g>
    <g id="freepik--Notes--inject-145" transform="translate(46.059 0)">
      <path id="Path_1226" data-name="Path 1226" d="M335.176,184.65c-.931-2.414-2.5-5.786-4.323-7.628a5.613,5.613,0,0,0-5.845-1.237,2.613,2.613,0,0,0-1.51,1.809c-.525,1.935-2.973,3.99-4.655,4.841-1.928.971-4.13,1.563-5.646,3.106-4.389,4.469,0,13.047-4.03,17.855-2.314,2.76-6.437,3.019-10.028,2.733-4.462-.359-9.343-1.144-12.742,2.66a9.4,9.4,0,0,0-2.228,7.382c.665,5.985,5.513,10.035,10.753,12.209,11.6,4.808,25.975,1.031,34.3-8.372S339.672,196.374,335.176,184.65Z" transform="translate(-161.536 -72.929)" fill="url(#linear-gradient)"/>
      <g id="Group_65" data-name="Group 65" transform="translate(122.555 102.511)" opacity="0.8">
        <path id="Path_1227" data-name="Path 1227" d="M335.176,184.65c-.931-2.414-2.5-5.786-4.323-7.628a5.613,5.613,0,0,0-5.845-1.237,2.613,2.613,0,0,0-1.51,1.809c-.525,1.935-2.973,3.99-4.655,4.841-1.928.971-4.13,1.563-5.646,3.106-4.389,4.469,0,13.047-4.03,17.855-2.314,2.76-6.437,3.019-10.028,2.733-4.462-.359-9.343-1.144-12.742,2.66a9.4,9.4,0,0,0-2.228,7.382c.665,5.985,5.513,10.035,10.753,12.209,11.6,4.808,25.975,1.031,34.3-8.372S339.672,196.374,335.176,184.65Z" transform="translate(-284.092 -175.44)" fill="#fff"/>
      </g>
      <path id="Path_1228" data-name="Path 1228" d="M327.966,73.773c-5.7-2.261-12.469-1.995-17.357-5.673-2.8-2.121-4.575-5.28-6.537-8.2s-4.376-5.805-7.727-6.87a7.541,7.541,0,0,0-4.735.14,4.176,4.176,0,0,0-1.889,6.344c1.709,2.394,3.95,6.058,3.777,9.124-.273,4.655-1.43,9.809,1.1,13.752,3.325,5.194,11.059,5.273,15.707,9.31,8.439,7.395,3.112,23.94,12.3,30.344,5.486,3.844,13.692,1.33,17.716-4.05s4.642-12.555,3.844-19.205C342.909,88.436,337.662,77.63,327.966,73.773Z" transform="translate(-163.157 -31.817)" fill="url(#linear-gradient)"/>
      <g id="Group_66" data-name="Group 66" transform="translate(125.773 20.9)" opacity="0.8">
        <path id="Path_1229" data-name="Path 1229" d="M327.966,73.773c-5.7-2.261-12.469-1.995-17.357-5.673-2.8-2.121-4.575-5.28-6.537-8.2s-4.376-5.805-7.727-6.87a7.541,7.541,0,0,0-4.735.14,4.176,4.176,0,0,0-1.889,6.344c1.709,2.394,3.95,6.058,3.777,9.124-.273,4.655-1.43,9.809,1.1,13.752,3.325,5.194,11.059,5.273,15.707,9.31,8.439,7.395,3.112,23.94,12.3,30.344,5.486,3.844,13.692,1.33,17.716-4.05s4.642-12.555,3.844-19.205C342.909,88.436,337.662,77.63,327.966,73.773Z" transform="translate(-288.931 -52.716)" fill="#fff"/>
      </g>
      <path id="Path_1230" data-name="Path 1230" d="M131.129,120.284c-3.917-4.349-8.12-10.028-6.045-15.5,1.264-3.325,4.6-5.539,5.726-8.9,2.394-7.122-6.2-14.258-4.449-21.573,1.257-5.267,7.122-7.781,10.793-11.757,3.451-3.744,4.961-8.878,7.98-12.961A19.748,19.748,0,0,1,162.65,41.66a17.273,17.273,0,0,1,14.59,12.09c1.776,6.464-1.19,14.038-7.175,17.2-4.821,2.554-10.6,2.1-15.96,2.919s-11.372,3.943-11.97,9.363c-.572,5.32,4.3,10.786,1.849,15.515-1.33,2.613-4.422,3.731-7.129,4.9s-5.619,3.072-5.872,5.985c-.16,1.835.8,3.564,1.33,5.32s.406,4.063-1.2,4.981" transform="translate(-108.086 -28.08)" fill="url(#linear-gradient)"/>
      <g id="Group_67" data-name="Group 67" transform="translate(16.449 13.482)" opacity="0.8">
        <path id="Path_1231" data-name="Path 1231" d="M131.129,120.284c-3.917-4.349-8.12-10.028-6.045-15.5,1.264-3.325,4.6-5.539,5.726-8.9,2.394-7.122-6.2-14.258-4.449-21.573,1.257-5.267,7.122-7.781,10.793-11.757,3.451-3.744,4.961-8.878,7.98-12.961A19.748,19.748,0,0,1,162.65,41.66a17.273,17.273,0,0,1,14.59,12.09c1.776,6.464-1.19,14.038-7.175,17.2-4.821,2.554-10.6,2.1-15.96,2.919s-11.372,3.943-11.97,9.363c-.572,5.32,4.3,10.786,1.849,15.515-1.33,2.613-4.422,3.731-7.129,4.9s-5.619,3.072-5.872,5.985c-.16,1.835.8,3.564,1.33,5.32s.406,4.063-1.2,4.981" transform="translate(-124.535 -41.562)" fill="#fff"/>
      </g>
      <path id="Path_1232" data-name="Path 1232" d="M246.352,31.441a11.067,11.067,0,0,0-12.3,7.521,11.326,11.326,0,0,0,6.284,13.067,11.624,11.624,0,0,0,13.892-4.4c1.676-2.66,1.589-6.81.253-9.643s-4.236-6.73-8.126-6.544" transform="translate(-144.645 -24.63)" fill="url(#linear-gradient)"/>
      <g id="Group_68" data-name="Group 68" transform="translate(89.025 6.633)" opacity="0.8">
        <path id="Path_1233" data-name="Path 1233" d="M246.352,31.441a11.067,11.067,0,0,0-12.3,7.521,11.326,11.326,0,0,0,6.284,13.067,11.624,11.624,0,0,0,13.892-4.4c1.676-2.66,1.589-6.81.253-9.643s-4.236-6.73-8.126-6.544" transform="translate(-233.67 -31.263)" fill="#fff"/>
      </g>
      <path id="Path_1234" data-name="Path 1234" d="M209.286,40.336a2.66,2.66,0,1,1-1.326-1.548A2.66,2.66,0,0,1,209.286,40.336Z" transform="translate(-134.738 -27.055)" fill="#263238"/>
      <path id="Path_1235" data-name="Path 1235" d="M206.282,36.023c-.086.14-2.427-1.416-4.894-3.8a44.4,44.4,0,0,1-4.329-4.422,28.166,28.166,0,0,1,4.728,3.99C204.234,34.155,206.375,35.91,206.282,36.023Z" transform="translate(-132.38 -23.467)" fill="#263238"/>
      <path id="Path_1236" data-name="Path 1236" d="M200.854,21.29a3.819,3.819,0,0,1-1.077,2.879,3.864,3.864,0,0,1-2.587,1.656,26.473,26.473,0,0,0,2.128-2.028C200.315,22.54,200.681,21.25,200.854,21.29Z" transform="translate(-132.424 -21.289)" fill="#263238"/>
      <path id="Path_1237" data-name="Path 1237" d="M203.647,24.33a3.225,3.225,0,0,1-1.077,2.746c-1.19,1.264-2.66,1.43-2.66,1.27a13.952,13.952,0,0,0,2.228-1.669C203.169,25.547,203.474,24.3,203.647,24.33Z" transform="translate(-133.336 -22.307)" fill="#263238"/>
      <path id="Path_1238" data-name="Path 1238" d="M272.327,86.3a2.66,2.66,0,1,1,.574-1.956A2.66,2.66,0,0,1,272.327,86.3Z" transform="translate(-156.01 -41.616)" fill="#263238"/>
      <path id="Path_1239" data-name="Path 1239" d="M275.057,80.916c-.166,0-.133-2.806.525-6.178a52.253,52.253,0,0,1,1.33-6.038,30.454,30.454,0,0,1-.785,6.145C275.47,78.19,275.217,80.923,275.057,80.916Z" transform="translate(-158.482 -37.171)" fill="#263238"/>
      <path id="Path_1240" data-name="Path 1240" d="M283.529,69.573a3.786,3.786,0,0,1-3,.665,3.877,3.877,0,0,1-2.793-1.264,23.225,23.225,0,0,0,2.853.665C282.185,69.772,283.469,69.413,283.529,69.573Z" transform="translate(-159.405 -37.259)" fill="#263238"/>
      <path id="Path_1241" data-name="Path 1241" d="M282.71,73.431c.1.126-1.177.9-2.886.6s-2.66-1.463-2.52-1.543a13.886,13.886,0,0,0,2.62.964A21.231,21.231,0,0,0,282.71,73.431Z" transform="translate(-159.258 -38.438)" fill="#263238"/>
      <path id="Path_1242" data-name="Path 1242" d="M120.444,262.349a2.108,2.108,0,1,1-1.091-1.194A2.115,2.115,0,0,1,120.444,262.349Z" transform="translate(-105.341 -101.576)" fill="#263238"/>
      <path id="Path_1243" data-name="Path 1243" d="M117.927,259.032a15.215,15.215,0,0,1-3.99-2.9,40.546,40.546,0,0,1-3.538-3.4,23.543,23.543,0,0,1,3.85,3.059C116.251,257.609,117.993,258.926,117.927,259.032Z" transform="translate(-103.349 -98.819)" fill="#263238"/>
      <path id="Path_1244" data-name="Path 1244" d="M113.323,247.44a3.023,3.023,0,0,1-.778,2.3,3.117,3.117,0,0,1-2,1.377,16.529,16.529,0,0,0,1.643-1.656C112.957,248.437,113.19,247.413,113.323,247.44Z" transform="translate(-103.401 -97.048)" fill="#263238"/>
      <path id="Path_1245" data-name="Path 1245" d="M115.556,249.78a2.535,2.535,0,0,1-.785,2.2,2.641,2.641,0,0,1-2.081,1.077,10.477,10.477,0,0,0,1.729-1.383A14.015,14.015,0,0,0,115.556,249.78Z" transform="translate(-104.118 -97.832)" fill="#263238"/>
      <path id="Path_1246" data-name="Path 1246" d="M345.173,60.264a2.593,2.593,0,1,0,.359-3.651,2.593,2.593,0,0,0-.359,3.651Z" transform="translate(-181.801 -32.925)" fill="#263238"/>
      <path id="Path_1247" data-name="Path 1247" d="M344.06,55.017c.246,0,.259-2.76-.412-6.045s-1.33-5.859-1.549-5.832,0,2.76.665,5.985S343.808,55.05,344.06,55.017Z" transform="translate(-180.941 -28.609)" fill="#263238"/>
      <path id="Path_1248" data-name="Path 1248" d="M330.469,46.478c-.053.206,2.042.771,4.542,0a6.131,6.131,0,0,0,2.806-1.742c.572-.665.665-1.244.539-1.277s-.386.359-.984.825a8.411,8.411,0,0,1-2.66,1.33C332.5,46.319,330.489,46.192,330.469,46.478Z" transform="translate(-177.072 -28.715)" fill="#263238"/>
      <path id="Path_1249" data-name="Path 1249" d="M333.5,65.084a2.593,2.593,0,1,0,.359-3.651A2.594,2.594,0,0,0,333.5,65.084Z" transform="translate(-177.893 -34.54)" fill="#263238"/>
      <path id="Path_1250" data-name="Path 1250" d="M332.385,59.874c.253,0,.259-2.766-.412-6.045s-1.33-5.865-1.543-5.839,0,2.76.665,5.985S332.113,59.88,332.385,59.874Z" transform="translate(-177.033 -30.233)" fill="#263238"/>
      <path id="Path_1251" data-name="Path 1251" d="M330.879,49.555c-.08.226,1.882.9,4.249.246s3.737-2.2,3.558-2.347-1.649.918-3.791,1.476S330.959,49.3,330.879,49.555Z" transform="translate(-177.209 -30.049)" fill="#263238"/>
      <path id="Path_1252" data-name="Path 1252" d="M172.735,111.018a1.935,1.935,0,1,1,.885-1.192A1.935,1.935,0,0,1,172.735,111.018Z" transform="translate(-123.252 -50.143)" fill="#263238"/>
      <path id="Path_1253" data-name="Path 1253" d="M174.807,108.046c-.173-.066.505-2,1.8-4.136s2.387-3.784,2.547-3.711-.665,1.942-2,4.05A37.659,37.659,0,0,1,174.807,108.046Z" transform="translate(-124.917 -47.722)" fill="#263238"/>
      <path id="Path_1254" data-name="Path 1254" d="M185.879,104.406c0,.16-1.623,0-3.179-1.144a4.422,4.422,0,0,1-1.536-1.922c-.239-.612-.14-1.031-.06-1.031s.18.352.485.825a6.145,6.145,0,0,0,1.516,1.6C184.5,103.795,185.939,104.207,185.879,104.406Z" transform="translate(-127.006 -47.76)" fill="#263238"/>
      <path id="Path_1255" data-name="Path 1255" d="M179.723,117.323a1.929,1.929,0,1,1,.888-1.191A1.928,1.928,0,0,1,179.723,117.323Z" transform="translate(-125.598 -52.258)" fill="#263238"/>
      <path id="Path_1256" data-name="Path 1256" d="M181.8,114.316c-.173-.066.505-2,1.8-4.136s2.387-3.784,2.547-3.711-.665,1.942-1.995,4.05S181.963,114.389,181.8,114.316Z" transform="translate(-127.259 -49.823)" fill="#263238"/>
      <path id="Path_1257" data-name="Path 1257" d="M184.881,106.49c0,.173-1.543.153-3.046-.9s-2.068-2.474-1.909-2.534.931,1.057,2.294,2S184.914,106.291,184.881,106.49Z" transform="translate(-126.633 -48.68)" fill="#263238"/>
      <path id="Path_1258" data-name="Path 1258" d="M102.427,130.512a1.33,1.33,0,1,1-1-1.589A1.33,1.33,0,0,1,102.427,130.512Z" transform="translate(-99.799 -57.334)" fill="#263238"/>
      <path id="Path_1259" data-name="Path 1259" d="M102.694,127.662a7.429,7.429,0,0,1-1.19-2.86,12.788,12.788,0,0,1-.625-3.012,8.865,8.865,0,0,1,1.071,2.893A22.035,22.035,0,0,1,102.694,127.662Z" transform="translate(-100.154 -54.956)" fill="#263238"/>
      <path id="Path_1260" data-name="Path 1260" d="M105.163,121.32a3.661,3.661,0,0,1-3.757.871c-.412-.173-.579-.419-.539-.459s.259.08.665.153a4.33,4.33,0,0,0,1.51,0C104.2,121.712,105.09,121.194,105.163,121.32Z" transform="translate(-100.155 -54.792)" fill="#263238"/>
      <path id="Path_1261" data-name="Path 1261" d="M108.857,130.061a1.33,1.33,0,1,1-.991-1.589A1.33,1.33,0,0,1,108.857,130.061Z" transform="translate(-101.953 -57.183)" fill="#263238"/>
      <path id="Path_1262" data-name="Path 1262" d="M109.126,127.2a7.544,7.544,0,0,1-1.19-2.853,11.841,11.841,0,0,1-.618-3.019,8.6,8.6,0,0,1,1.064,2.9A23.985,23.985,0,0,1,109.126,127.2Z" transform="translate(-102.31 -54.802)" fill="#263238"/>
      <path id="Path_1263" data-name="Path 1263" d="M105.7,122.622a3.454,3.454,0,0,1-4.05.811c.047-.113.964.047,2.068-.186S105.619,122.509,105.7,122.622Z" transform="translate(-100.418 -55.229)" fill="#263238"/>
      <path id="Path_1264" data-name="Path 1264" d="M362.485,258.107a.957.957,0,1,1,.431-.6A.958.958,0,0,1,362.485,258.107Z" transform="translate(-187.309 -100.027)" fill="#263238"/>
      <path id="Path_1265" data-name="Path 1265" d="M363.51,256.584a5.431,5.431,0,0,1,.864-2.055,8.78,8.78,0,0,1,1.237-1.849,6.651,6.651,0,0,1-.951,2A11.85,11.85,0,0,1,363.51,256.584Z" transform="translate(-188.141 -98.804)" fill="#263238"/>
      <path id="Path_1266" data-name="Path 1266" d="M368.936,254.745a2.248,2.248,0,0,1-1.583-.545,2.215,2.215,0,0,1-.765-.944c-.126-.3-.08-.512-.04-.505s.093.173.246.4a3.053,3.053,0,0,0,.758.785C368.251,254.446,368.963,254.645,368.936,254.745Z" transform="translate(-189.145 -98.827)" fill="#263238"/>
      <path id="Path_1267" data-name="Path 1267" d="M365.99,261.177a.958.958,0,1,1,.283-1.3A.958.958,0,0,1,365.99,261.177Z" transform="translate(-188.493 -101.063)" fill="#263238"/>
      <path id="Path_1268" data-name="Path 1268" d="M367,259.66a5.439,5.439,0,0,1,.865-2.062,9.244,9.244,0,0,1,1.23-1.849,6.252,6.252,0,0,1-.944,1.995A12.722,12.722,0,0,1,367,259.66Z" transform="translate(-189.31 -99.832)" fill="#263238"/>
      <path id="Path_1269" data-name="Path 1269" d="M368.457,255.778a1.921,1.921,0,0,1-1.516-.426c-.751-.505-1.038-1.21-.958-1.244s.465.519,1.144.971S368.471,255.679,368.457,255.778Z" transform="translate(-188.965 -99.282)" fill="#263238"/>
    </g>
    <g id="freepik--Character--inject-145" transform="translate(61.195 48.894)">
      <path id="Path_1270" data-name="Path 1270" d="M380.944,126.265l-1.2-18.78,3.325-4.861,6.617-7.8s1.377-.319.745,2.367-4.176,7.515-4.176,7.515l4.03-3.265,2.181-.086,3.518,6.49s-2.241,1.071-3.458.166l-1.543,2.4,2.308-.226,2.84,1.2-1.33,3.451-1.463,3.9s-.133,7.92-1.7,8.924l-1.556,1Z" transform="translate(-208.714 -94.812)" fill="#ffbe9d"/>
      <path id="Path_1271" data-name="Path 1271" d="M264.09,174.483s17.4-3.132,18.713-2.966,17.589,6.716,19.145,7.315,26.474,4.382,26.474,4.382L342.448,141l11.385.286s-6.77,42.274-8.931,48.259-2.434,9.975-4.795,11.159-9.091,2.786-15.461,2.394-32.685-5.892-32.685-5.892Z" transform="translate(-169.972 -110.285)" fill="#ffbe9d"/>
      <path id="Path_1272" data-name="Path 1272" d="M398.427,110.3a.953.953,0,0,1-.113.386,1.4,1.4,0,0,1-.918.618,2,2,0,0,1-1.589-.446,4.976,4.976,0,0,1-1.244-1.589l.266.04q-.2.18-.4.379c-1.064,1.1-1.995,2.141-2.7,2.86a5.32,5.32,0,0,1-1.23,1.077,13.643,13.643,0,0,1,1.051-1.244c.665-.758,1.556-1.822,2.66-2.939l.412-.392.16-.14.106.186a5.108,5.108,0,0,0,1.131,1.523,1.836,1.836,0,0,0,1.363.452,1.383,1.383,0,0,0,.858-.459C398.367,110.446,398.4,110.3,398.427,110.3Z" transform="translate(-212.319 -99.535)" fill="#eb996e"/>
      <path id="Path_1273" data-name="Path 1273" d="M398.23,121.579a2.905,2.905,0,0,1,.958-.439l.279-.1-.113.293a4.177,4.177,0,0,0-.359,1.416,1.41,1.41,0,0,0,.758,1.33c.386.193.665.073.665.126s-.266.266-.785.1a1.49,1.49,0,0,1-.712-.532,1.717,1.717,0,0,1-.3-1.051,3.618,3.618,0,0,1,.452-1.53l.166.193A2.86,2.86,0,0,1,398.23,121.579Z" transform="translate(-214.908 -103.598)" fill="#eb996e"/>
      <path id="Path_1274" data-name="Path 1274" d="M388.381,130.868c-.033,0,.166-.439.346-1.257a8.328,8.328,0,0,0,0-3.5,8.177,8.177,0,0,0-.838-2.261,8.925,8.925,0,0,0-1.736-2.161,8.789,8.789,0,0,1-1.995-2.461c-.472-1.024-.539-2.188-.971-3.2a2.367,2.367,0,0,0-2.048-1.616l.16-.186c.286,3.85.539,7.242.725,9.729.073,1.177.133,2.148.18,2.873a6.828,6.828,0,0,1,0,1.037,6.117,6.117,0,0,1-.14-1.031c-.073-.725-.166-1.682-.286-2.86-.213-2.487-.505-5.872-.838-9.716v-.173h.173a2.081,2.081,0,0,1,1.463.539,3.559,3.559,0,0,1,.918,1.27c.472,1.111.525,2.254.971,3.205a8.644,8.644,0,0,0,1.909,2.374,9.234,9.234,0,0,1,1.762,2.248,8.387,8.387,0,0,1,.825,2.341,8.047,8.047,0,0,1-.113,3.578,6.057,6.057,0,0,1-.313.924A1.112,1.112,0,0,1,388.381,130.868Z" transform="translate(-209.116 -101.27)" fill="#eb996e"/>
      <path id="Path_1275" data-name="Path 1275" d="M397.848,114.12a5.466,5.466,0,0,1-1,1.669c-.632.858-1.2,1.516-1.283,1.456A11.015,11.015,0,0,1,397.848,114.12Z" transform="translate(-214.014 -101.28)" fill="#eb996e"/>
      <path id="Path_1276" data-name="Path 1276" d="M275.446,368.04l-5.014,76.3H238.578l-4.828-51.072Z" transform="translate(-159.808 -186.342)" fill="#ffbe9d"/>
      <path id="Path_1277" data-name="Path 1277" d="M169.4,349.52a115.864,115.864,0,0,0-3.551,37.859c1.064,13.406,8.392,50.753,8.392,50.753h30.291l6.085-49.057-38.65-19.046Z" transform="translate(-136.964 -180.138)" fill="#ffbe9d"/>
      <path id="Path_1278" data-name="Path 1278" d="M217.792,188.2c.665-5.32-4.5-17.749-6.025-22.876a10.268,10.268,0,0,1-7.614,2q-.845,6.8-1.7,13.613c-.16,1.33-1.669,9.563-2.6,10.507" transform="translate(-148.452 -118.432)" fill="#263238"/>
      <path id="Path_1279" data-name="Path 1279" d="M202.094,129.189a9.124,9.124,0,0,1-.459-5.672c1.024-3.99,1.995-7.8,4.768-10.853s4.608-5.24,7.654-6.756a14.272,14.272,0,0,1,5.413-1.45,4.569,4.569,0,0,1,1.33-2.181,16.718,16.718,0,0,0-12.575,3.205c-5.5,4.063-10.494,10.427-11.9,18.161a18.993,18.993,0,0,0,1.33,10.687Z" transform="translate(-147.185 -97.251)" fill="url(#linear-gradient)"/>
      <path id="Path_1280" data-name="Path 1280" d="M248.193,320.227l-63-12.076s-12.19,8.2-18.534,34.527c-2.78,11.538-.08,51.458-.08,51.458l84.728,1.084S255.894,330.574,248.193,320.227Z" transform="translate(-136.911 -166.279)" fill="#455a64"/>
      <path id="Path_1281" data-name="Path 1281" d="M248.666,350.164a1.476,1.476,0,0,0-1.829-.618,3.577,3.577,0,0,0-2.574,1.809,2.228,2.228,0,0,0,.778,2.853,2.2,2.2,0,0,0,2.135-.133,3.7,3.7,0,0,0,1.4-1.7A2.553,2.553,0,0,0,248.666,350.164Z" transform="translate(-163.253 -180.11)" fill="#f5f5f5"/>
      <path id="Path_1282" data-name="Path 1282" d="M247.748,372.742a1.456,1.456,0,0,0-1.822-.618,3.564,3.564,0,0,0-2.574,1.809,2.221,2.221,0,0,0,.778,2.853,2.194,2.194,0,0,0,2.128-.133,3.657,3.657,0,0,0,1.4-1.7A2.507,2.507,0,0,0,247.748,372.742Z" transform="translate(-162.947 -187.673)" fill="#f5f5f5"/>
      <path id="Path_1283" data-name="Path 1283" d="M245.561,396.544a1.483,1.483,0,0,0-1.829-.619,3.591,3.591,0,0,0-2.567,1.809,2.028,2.028,0,0,0,2.906,2.72,3.63,3.63,0,0,0,1.4-1.7A2.533,2.533,0,0,0,245.561,396.544Z" transform="translate(-162.189 -195.648)" fill="#f5f5f5"/>
      <path id="Path_1284" data-name="Path 1284" d="M243.253,419.544a1.483,1.483,0,0,0-1.829-.618,3.6,3.6,0,0,0-2.54,1.809,2.228,2.228,0,0,0,.778,2.853,2.2,2.2,0,0,0,2.135-.126,3.731,3.731,0,0,0,1.4-1.7A2.567,2.567,0,0,0,243.253,419.544Z" transform="translate(-161.45 -203.353)" fill="#f5f5f5"/>
      <path id="Path_1285" data-name="Path 1285" d="M238.368,347.192a4.184,4.184,0,0,1,0-1.669,3.989,3.989,0,0,1,.313-1.643,4.2,4.2,0,0,1,0,1.669,3.931,3.931,0,0,1-.313,1.643Z" transform="translate(-161.327 -178.249)" fill="#263238"/>
      <path id="Path_1286" data-name="Path 1286" d="M237.528,357.162a4.291,4.291,0,0,1,0-1.676,4.183,4.183,0,0,1,.313-1.636,3.988,3.988,0,0,1,0,1.669,4.275,4.275,0,0,1-.313,1.643Z" transform="translate(-161.046 -181.589)" fill="#263238"/>
      <path id="Path_1287" data-name="Path 1287" d="M236.685,367.122a3.992,3.992,0,0,1,0-1.669A4.236,4.236,0,0,1,237,363.81a8.046,8.046,0,0,1-.279,3.325Z" transform="translate(-160.762 -184.925)" fill="#263238"/>
      <path id="Path_1288" data-name="Path 1288" d="M235.838,377.088a4.236,4.236,0,0,1,0-1.676,3.991,3.991,0,0,1,.313-1.643,4.236,4.236,0,0,1,0,1.676A3.991,3.991,0,0,1,235.838,377.088Z" transform="translate(-160.479 -188.262)" fill="#263238"/>
      <path id="Path_1289" data-name="Path 1289" d="M234.968,387.045a8.048,8.048,0,0,1,.279-3.325,3.991,3.991,0,0,1,0,1.669A4.1,4.1,0,0,1,234.968,387.045Z" transform="translate(-160.195 -191.595)" fill="#263238"/>
      <path id="Path_1290" data-name="Path 1290" d="M234.157,397.018a4.162,4.162,0,0,1,0-1.676,4.277,4.277,0,0,1,.313-1.643,4.161,4.161,0,0,1,0,1.676A4.275,4.275,0,0,1,234.157,397.018Z" transform="translate(-159.916 -194.938)" fill="#263238"/>
      <path id="Path_1291" data-name="Path 1291" d="M233.328,406.975a8.048,8.048,0,0,1,.279-3.325,8.046,8.046,0,0,1-.279,3.325Z" transform="translate(-159.646 -198.271)" fill="#263238"/>
      <path id="Path_1292" data-name="Path 1292" d="M232.478,416.935a8.046,8.046,0,0,1,.279-3.325,3.99,3.99,0,0,1,0,1.676,3.916,3.916,0,0,1-.279,1.649Z" transform="translate(-159.361 -201.608)" fill="#263238"/>
      <path id="Path_1293" data-name="Path 1293" d="M231.627,426.912a4.123,4.123,0,0,1,0-1.669,4.2,4.2,0,0,1,.313-1.643,4.1,4.1,0,0,1,0,1.669A4.276,4.276,0,0,1,231.627,426.912Z" transform="translate(-159.068 -204.955)" fill="#263238"/>
      <path id="Path_1294" data-name="Path 1294" d="M249.084,400.164a3.67,3.67,0,0,1,0-.6l.16-1.7c.153-1.51.366-3.638.665-6.251.525-5.28,1.21-12.582,1.782-20.655s.938-15.395,1.184-20.7c.126-2.627.226-4.761.293-6.278.04-.718.073-1.283.093-1.7a3.677,3.677,0,0,1,.053-.6,3.45,3.45,0,0,1,0,.6V344c0,1.483-.086,3.631-.18,6.284-.186,5.32-.512,12.635-1.084,20.708s-1.3,15.375-1.882,20.648c-.3,2.66-.552,4.775-.745,6.244-.093.712-.173,1.277-.226,1.7A4.713,4.713,0,0,1,249.084,400.164Z" transform="translate(-164.941 -177.515)" fill="#263238"/>
      <path id="Path_1295" data-name="Path 1295" d="M234.164,400.366a3.528,3.528,0,0,1,0-.585c.033-.419.066-.978.12-1.689.113-1.5.279-3.6.479-6.2.445-5.254,1.057-12.462,1.729-20.429s1.33-15.169,1.829-20.422c.246-2.587.452-4.695.592-6.185.08-.7.14-1.27.18-1.682a3.78,3.78,0,0,1,.086-.585,3.615,3.615,0,0,1,0,.592c-.033.412-.066.978-.113,1.683-.12,1.5-.286,3.6-.485,6.2-.446,5.26-1.057,12.469-1.729,20.436s-1.33,15.162-1.829,20.422c-.246,2.587-.452,4.688-.592,6.185-.073.7-.133,1.263-.18,1.682A3.588,3.588,0,0,1,234.164,400.366Z" transform="translate(-159.943 -177.817)" fill="#263238"/>
      <path id="Path_1296" data-name="Path 1296" d="M195.023,341.569a6.445,6.445,0,0,1-.6.9,9.161,9.161,0,0,1-.791,1,14.186,14.186,0,0,1-1.137,1.257l-.7.7c-.246.239-.532.452-.811.7a22.481,22.481,0,0,1-1.869,1.436,24.353,24.353,0,0,1-9.975,3.99c-.825.106-1.6.219-2.347.239-.366,0-.725.047-1.071.04h-.984a15.271,15.271,0,0,1-1.689-.126,9.555,9.555,0,0,1-1.264-.2,5.688,5.688,0,0,1-1.057-.246c0-.08,1.53.286,3.99.333h.977c.339,0,.665-.04,1.051-.06a18.979,18.979,0,0,0,2.321-.266,28.125,28.125,0,0,0,5.134-1.43,27.127,27.127,0,0,0,4.722-2.487,22.4,22.4,0,0,0,1.869-1.39c.279-.239.559-.446.811-.665l.7-.665C194.1,342.819,194.956,341.516,195.023,341.569Z" transform="translate(-138.697 -177.474)" fill="#263238"/>
      <path id="Path_1297" data-name="Path 1297" d="M168.9,429.2c0,.093-.372.166-.831.16s-.831-.086-.831-.18.372-.173.831-.166S168.9,429.1,168.9,429.2Z" transform="translate(-137.528 -206.767)" fill="#263238"/>
      <path id="Path_1298" data-name="Path 1298" d="M177.865,429.274a3.869,3.869,0,0,1-1.623.16,3.988,3.988,0,0,1-1.623-.186,3.891,3.891,0,0,1,1.623-.16A3.992,3.992,0,0,1,177.865,429.274Z" transform="translate(-140 -206.785)" fill="#263238"/>
      <path id="Path_1299" data-name="Path 1299" d="M187.632,429.365a3.789,3.789,0,0,1-1.629.16,3.991,3.991,0,0,1-1.623-.186,4.07,4.07,0,0,1,1.629-.16,3.99,3.99,0,0,1,1.623.186Z" transform="translate(-143.269 -206.816)" fill="#263238"/>
      <path id="Path_1300" data-name="Path 1300" d="M197.365,429.467a7.7,7.7,0,0,1-3.245,0,3.869,3.869,0,0,1,1.623-.16A3.991,3.991,0,0,1,197.365,429.467Z" transform="translate(-146.532 -206.858)" fill="#263238"/>
      <path id="Path_1301" data-name="Path 1301" d="M207.155,429.548a3.993,3.993,0,0,1-1.623.16,3.932,3.932,0,0,1-1.623-.193,7.849,7.849,0,0,1,3.245,0Z" transform="translate(-149.812 -206.879)" fill="#263238"/>
      <path id="Path_1302" data-name="Path 1302" d="M216.915,429.653a3.938,3.938,0,0,1-1.623.153,3.989,3.989,0,0,1-1.623-.186,7.554,7.554,0,0,1,3.245.033Z" transform="translate(-153.081 -206.917)" fill="#263238"/>
      <path id="Path_1303" data-name="Path 1303" d="M226.685,429.75a3.989,3.989,0,0,1-1.629.153,3.764,3.764,0,0,1-1.616-.193,3.937,3.937,0,0,1,1.623-.153A4.063,4.063,0,0,1,226.685,429.75Z" transform="translate(-156.354 -206.941)" fill="#263238"/>
      <path id="Path_1304" data-name="Path 1304" d="M236.445,429.886a4.032,4.032,0,0,1-1.623.146,3.865,3.865,0,0,1-1.623-.2,3.993,3.993,0,0,1,1.623-.146A3.865,3.865,0,0,1,236.445,429.886Z" transform="translate(-159.624 -206.985)" fill="#263238"/>
      <path id="Path_1305" data-name="Path 1305" d="M246.205,430.059a4.029,4.029,0,0,1-1.623.146A3.928,3.928,0,0,1,242.96,430,7.848,7.848,0,0,1,246.205,430.059Z" transform="translate(-162.893 -207.051)" fill="#263238"/>
      <path id="Path_1306" data-name="Path 1306" d="M255.965,430.241a4.1,4.1,0,0,1-1.623.14,3.87,3.87,0,0,1-1.623-.213,4.051,4.051,0,0,1,1.629-.133A3.793,3.793,0,0,1,255.965,430.241Z" transform="translate(-166.163 -207.1)" fill="#263238"/>
      <path id="Path_1307" data-name="Path 1307" d="M265.725,430.475a7.854,7.854,0,0,1-3.245-.086,4.076,4.076,0,0,1,1.629-.133A3.856,3.856,0,0,1,265.725,430.475Z" transform="translate(-169.432 -207.174)" fill="#263238"/>
      <path id="Path_1308" data-name="Path 1308" d="M275.485,430.751a3.991,3.991,0,0,1-1.629.126,3.85,3.85,0,0,1-1.616-.226,3.945,3.945,0,0,1,1.629-.12A3.992,3.992,0,0,1,275.485,430.751Z" transform="translate(-172.702 -207.265)" fill="#263238"/>
      <path id="Path_1309" data-name="Path 1309" d="M285.245,431.064a3.817,3.817,0,0,1-1.629.12,3.99,3.99,0,0,1-1.616-.259,3.989,3.989,0,0,1,1.629-.113A4.091,4.091,0,0,1,285.245,431.064Z" transform="translate(-175.972 -207.358)" fill="#263238"/>
      <path id="Path_1310" data-name="Path 1310" d="M293.426,431.4c0,.1-.379.16-.831.14s-.831-.106-.825-.206.379-.153.838-.14S293.432,431.3,293.426,431.4Z" transform="translate(-179.244 -207.496)" fill="#263238"/>
      <path id="Path_1311" data-name="Path 1311" d="M287.332,354.716a2.934,2.934,0,0,1-.738-.153,18.628,18.628,0,0,1-1.922-.632,26.42,26.42,0,0,1-10.933-7.761,17.867,17.867,0,0,1-1.237-1.636,2.974,2.974,0,0,1-.392-.665c.053-.033.665.838,1.809,2.121a29.485,29.485,0,0,0,10.84,7.687C286.328,354.363,287.332,354.656,287.332,354.716Z" transform="translate(-172.659 -178.245)" fill="#263238"/>
      <path id="Path_1312" data-name="Path 1312" d="M177.541,452.565a2.2,2.2,0,0,1-.2-.579c-.106-.372-.239-.918-.4-1.6-.313-1.33-.665-3.252-.971-5.36s-.452-4.03-.519-5.42c0-.7-.047-1.263-.047-1.649a2.4,2.4,0,0,1,.033-.612,16.806,16.806,0,0,1,.259,2.241c.133,1.383.326,3.292.618,5.393s.618,3.99.865,5.353A15.533,15.533,0,0,1,177.541,452.565Z" transform="translate(-140.261 -209.561)" fill="#263238"/>
      <path id="Path_1313" data-name="Path 1313" d="M179.849,437.14a50.947,50.947,0,0,0-.665,5.353c-.1,2.979.313,5.373.2,5.393a6.044,6.044,0,0,1-.359-1.556,20.058,20.058,0,0,1-.186-3.85,20.387,20.387,0,0,1,.532-3.817A6.021,6.021,0,0,1,179.849,437.14Z" transform="translate(-141.405 -209.49)" fill="#263238"/>
      <path id="Path_1314" data-name="Path 1314" d="M185.2,452.806c-.06,0,.146-.845.273-2.208a24.47,24.47,0,0,0-.146-5.32c-.266-2.075-.665-3.93-.971-5.28a15.928,15.928,0,0,1-.419-2.188,12.409,12.409,0,0,1,.665,2.135,41.53,41.53,0,0,1,1.077,5.32,20.749,20.749,0,0,1,.04,5.406,12.1,12.1,0,0,1-.313,1.609A1.826,1.826,0,0,1,185.2,452.806Z" transform="translate(-143.122 -209.715)" fill="#263238"/>
      <path id="Path_1315" data-name="Path 1315" d="M189.489,444.041a8.644,8.644,0,0,1-1.33-3.106,8.5,8.5,0,0,1-.339-3.325c.1,0,.219,1.49.665,3.272S189.582,444,189.489,444.041Z" transform="translate(-144.409 -209.648)" fill="#263238"/>
      <path id="Path_1316" data-name="Path 1316" d="M195.739,437.83a19.534,19.534,0,0,1,.392,3.9,8.019,8.019,0,0,1-.346,2.786,2.2,2.2,0,0,1-.559,1.017c-.047,0,.16-.412.326-1.091a10.461,10.461,0,0,0,.233-2.707A25.33,25.33,0,0,1,195.739,437.83Z" transform="translate(-146.901 -209.722)" fill="#263238"/>
      <path id="Path_1317" data-name="Path 1317" d="M200.76,454.5a2.407,2.407,0,0,1-.253-.612,5.073,5.073,0,0,1-.213-.738,8.353,8.353,0,0,1-.213-1.011,32.053,32.053,0,0,1-.213-5.912v-3.232a16.044,16.044,0,0,0-.319-2.607c-.313-1.463-.745-2.3-.665-2.327a2.389,2.389,0,0,1,.319.572,4.8,4.8,0,0,1,.3.718,9.327,9.327,0,0,1,.3.984,14.479,14.479,0,0,1,.4,2.66c.066,1,.066,2.108.04,3.265a39.433,39.433,0,0,0,.113,5.865C200.514,453.595,200.827,454.479,200.76,454.5Z" transform="translate(-148.125 -209.799)" fill="#263238"/>
      <path id="Path_1318" data-name="Path 1318" d="M205.865,447.343c-.06,0,.1-.525.146-1.363a17.489,17.489,0,0,0-.246-3.285,11.438,11.438,0,0,1-.08-3.365,2.98,2.98,0,0,1,.472-1.33c.06,0-.14.519-.226,1.33a14.084,14.084,0,0,0,.18,3.285,13.616,13.616,0,0,1,.146,3.325,3.185,3.185,0,0,1-.392,1.4Z" transform="translate(-150.377 -209.779)" fill="#263238"/>
      <path id="Path_1319" data-name="Path 1319" d="M210.275,450.974c-.06,0,.186-.718.332-1.889a28.311,28.311,0,0,0,.06-4.608,22.838,22.838,0,0,1,.126-4.655,7.726,7.726,0,0,1,.332-1.377c.106-.319.18-.492.206-.485s-.166.725-.293,1.9a29.834,29.834,0,0,0,0,4.622,21.527,21.527,0,0,1-.166,4.655,8.043,8.043,0,0,1-.352,1.377C210.375,450.814,210.3,450.981,210.275,450.974Z" transform="translate(-151.941 -209.765)" fill="#263238"/>
      <path id="Path_1320" data-name="Path 1320" d="M217.573,450.021a7.157,7.157,0,0,1-.592-1.643,25.317,25.317,0,0,1-.858-8.359,7.317,7.317,0,0,1,.239-1.729,11.356,11.356,0,0,1,0,1.742,35.452,35.452,0,0,0,.18,4.17,36.171,36.171,0,0,0,.665,4.116A11.2,11.2,0,0,1,217.573,450.021Z" transform="translate(-153.886 -209.876)" fill="#263238"/>
      <path id="Path_1321" data-name="Path 1321" d="M221.688,436.72c.1.04-.346,1.33-.479,2.973s.08,2.986,0,3.006a6.43,6.43,0,0,1-.319-3.039A6.33,6.33,0,0,1,221.688,436.72Z" transform="translate(-155.481 -209.35)" fill="#263238"/>
      <path id="Path_1322" data-name="Path 1322" d="M224.14,452.222a4.721,4.721,0,0,0,1.423-1.549,5.512,5.512,0,0,0,.625-2.188,9.515,9.515,0,0,0-.273-2.806c-.219-.991-.505-1.922-.7-2.786a12.642,12.642,0,0,1-.359-2.348,6.2,6.2,0,0,1,.126-1.6,1.48,1.48,0,0,1,.193-.552,11.492,11.492,0,0,0-.073,2.135,13.969,13.969,0,0,0,.419,2.288c.219.851.512,1.782.738,2.793a9.218,9.218,0,0,1,.253,2.906,5.494,5.494,0,0,1-.732,2.281,3.663,3.663,0,0,1-1.1,1.177C224.353,452.182,224.147,452.242,224.14,452.222Z" transform="translate(-156.589 -209.909)" fill="#263238"/>
      <path id="Path_1323" data-name="Path 1323" d="M232.465,450.4a8.539,8.539,0,0,1-.8-1.722,37.8,37.8,0,0,1-1.39-4.362,36.839,36.839,0,0,1-.851-4.5,8.942,8.942,0,0,1-.12-1.9,11.97,11.97,0,0,1,.366,1.855c.2,1.15.505,2.726.938,4.456s.918,3.252,1.29,4.362A13.613,13.613,0,0,1,232.465,450.4Z" transform="translate(-158.316 -209.752)" fill="#263238"/>
      <path id="Path_1324" data-name="Path 1324" d="M239.14,449.725c-.053,0-.18-.632-.539-1.616s-.964-2.3-1.629-3.777a14.183,14.183,0,0,1-1.217-3.99,4.155,4.155,0,0,1,.047-1.722c.06,0,0,.665.2,1.682a16.624,16.624,0,0,0,1.29,3.89,31.528,31.528,0,0,1,1.543,3.837A4.92,4.92,0,0,1,239.14,449.725Z" transform="translate(-160.457 -209.986)" fill="#263238"/>
      <path id="Path_1325" data-name="Path 1325" d="M244.931,452.087a18.969,18.969,0,0,0,.665-2.1,8.306,8.306,0,0,0-.665-5.134c-.426-.944-.9-1.822-1.283-2.66a10.1,10.1,0,0,1-.751-2.314,5.2,5.2,0,0,1-.04-1.649,1.556,1.556,0,0,1,.16-.579,8.116,8.116,0,0,0,.126,2.181,10.345,10.345,0,0,0,.8,2.228c.386.818.871,1.689,1.33,2.66a8.642,8.642,0,0,1,.791,2.886,7.753,7.753,0,0,1-.173,2.434,7.469,7.469,0,0,1-.559,1.549A1.615,1.615,0,0,1,244.931,452.087Z" transform="translate(-162.843 -209.661)" fill="#263238"/>
      <path id="Path_1326" data-name="Path 1326" d="M251.366,444.718a6.265,6.265,0,0,1-1.483-2.853,6.331,6.331,0,0,1-.219-3.205c.106,0,.073,1.436.552,3.112S251.453,444.658,251.366,444.718Z" transform="translate(-165.102 -210)" fill="#263238"/>
      <path id="Path_1327" data-name="Path 1327" d="M254.873,437.87c.06,0,.08.5.306,1.244a5.9,5.9,0,0,0,.6,1.23,5.6,5.6,0,0,1,.751,1.589,9.849,9.849,0,0,1,.166,3.152,7.152,7.152,0,0,1-.1,1.29,3.758,3.758,0,0,1-.14-1.33,12.479,12.479,0,0,0-.259-3.052,6.247,6.247,0,0,0-.665-1.523,5.064,5.064,0,0,1-.559-1.33A2.725,2.725,0,0,1,254.873,437.87Z" transform="translate(-166.873 -209.735)" fill="#263238"/>
      <path id="Path_1328" data-name="Path 1328" d="M264.466,448.179a2.92,2.92,0,0,0,.14-1.45,4.082,4.082,0,0,0-.6-1.47c-.313-.519-.725-1.077-1.071-1.722a8.08,8.08,0,0,1-1-3.571,3.247,3.247,0,0,1,.219-1.516c.06,0-.053.585,0,1.5a8.991,8.991,0,0,0,1.071,3.418c.326.625.725,1.177,1.037,1.729a4.042,4.042,0,0,1,.572,1.6A1.675,1.675,0,0,1,264.466,448.179Z" transform="translate(-169.244 -209.929)" fill="#263238"/>
      <path id="Path_1329" data-name="Path 1329" d="M272.536,446.786a3.99,3.99,0,0,1-1.157-.825,10.787,10.787,0,0,1-3.325-5.892,4.065,4.065,0,0,1-.113-1.41,14.072,14.072,0,0,0,4.608,8.126Z" transform="translate(-171.256 -210)" fill="#263238"/>
      <path id="Path_1330" data-name="Path 1330" d="M278.448,448.618a4.41,4.41,0,0,0-.173-1.815,5.114,5.114,0,0,0-1-1.7,11.5,11.5,0,0,0-1.842-1.629,19.76,19.76,0,0,1-2-1.569,6.525,6.525,0,0,1-1.29-1.629,3.943,3.943,0,0,1-.439-1.33,1.1,1.1,0,0,1,0-.512,6.063,6.063,0,0,0,.665,1.722,6.839,6.839,0,0,0,1.29,1.523c.559.512,1.25,1,1.962,1.529a10.645,10.645,0,0,1,1.882,1.7,5.055,5.055,0,0,1,.991,1.835,3.251,3.251,0,0,1,.1,1.4A1.03,1.03,0,0,1,278.448,448.618Z" transform="translate(-172.513 -209.923)" fill="#263238"/>
      <path id="Path_1331" data-name="Path 1331" d="M284.329,445.016a6.544,6.544,0,0,1-2.367-3,6.385,6.385,0,0,1-.605-3.777,15.3,15.3,0,0,0,.924,3.638A16.231,16.231,0,0,0,284.329,445.016Z" transform="translate(-175.733 -209.859)" fill="#263238"/>
      <path id="Path_1332" data-name="Path 1332" d="M289.274,449.681a14.858,14.858,0,0,0,.665-1.5,5.32,5.32,0,0,0-.173-3.8,11.3,11.3,0,0,0-1.15-1.835,7.9,7.9,0,0,1-.931-1.576,2.388,2.388,0,0,1-.233-1.656,5.261,5.261,0,0,0,.459,1.556,9.025,9.025,0,0,0,.958,1.489,9.651,9.651,0,0,1,1.21,1.882,5.28,5.28,0,0,1,.093,3.99,4.574,4.574,0,0,1-.592,1.084C289.407,449.581,289.287,449.694,289.274,449.681Z" transform="translate(-177.779 -210.221)" fill="#263238"/>
      <path id="Path_1333" data-name="Path 1333" d="M298.025,445.331a8.146,8.146,0,0,1-4.555-6.271,12.089,12.089,0,0,0,4.555,6.271Z" transform="translate(-179.814 -210.134)" fill="#263238"/>
      <path id="Path_1334" data-name="Path 1334" d="M167.4,445.372A10.773,10.773,0,0,0,168.464,437a3.033,3.033,0,0,1,.485,1.2,8.579,8.579,0,0,1,.193,3.126,8.478,8.478,0,0,1-.951,2.986A3.114,3.114,0,0,1,167.4,445.372Z" transform="translate(-137.581 -209.443)" fill="#263238"/>
      <path id="Path_1335" data-name="Path 1335" d="M214.55,198.772l6.377-1.722,22.683-4.19,11.219,3.165s-11.2,11.85-16,12.761C228.568,210.722,214.55,198.772,214.55,198.772Z" transform="translate(-153.376 -127.658)" fill="#ffbe9d"/>
      <path id="Path_1336" data-name="Path 1336" d="M251.865,185.63l-19.6,3.571s-3.571,24.007-30.963,7.056c0,0-12.961-.6-17.649,5.832-3.411,4.655-12.409,28.316-12.409,28.316l18.121,15.1,2.268,11.671s-9.975,9.077-9.49,15.574c0,0,24.818,19.6,41.955,17.2s26.042-10.746,26.042-10.746l7.648-66.427,14.125,3.99,2.048-23.056Z" transform="translate(-138.868 -125.236)" fill="url(#linear-gradient)"/>
      <path id="Path_1337" data-name="Path 1337" d="M217.242,303.863a3.284,3.284,0,0,1-.7-.226c-.446-.16-1.077-.426-1.842-.778a38.871,38.871,0,0,1-10.82-7.468c-.605-.592-1.077-1.091-1.383-1.443a3.178,3.178,0,0,1-.459-.579c.04-.04.765.711,1.995,1.842a48.212,48.212,0,0,0,5.121,4.09,47.559,47.559,0,0,0,5.639,3.325C216.311,303.4,217.269,303.81,217.242,303.863Z" transform="translate(-149.185 -161.327)" fill="#263238"/>
      <path id="Path_1338" data-name="Path 1338" d="M234.257,271.27a3.526,3.526,0,0,1-.492.738,13,13,0,0,1-1.649,1.769,14.5,14.5,0,0,1-15.023,2.747,12.91,12.91,0,0,1-2.175-1.071,3.51,3.51,0,0,1-.718-.512,28.341,28.341,0,0,0,2.979,1.33,14.9,14.9,0,0,0,14.77-2.7A27.486,27.486,0,0,0,234.257,271.27Z" transform="translate(-153.259 -153.925)" fill="#263238"/>
      <g id="Group_69" data-name="Group 69" transform="translate(52.775 131.915)" opacity="0.3">
        <path id="Path_1339" data-name="Path 1339" d="M201.92,293.18c1.277,2.314,3.491,3.638,5.639,5.174,3.232,2.308,6.65,4.655,10.547,5.273a4.316,4.316,0,0,0,1.935-.06,1.842,1.842,0,0,0,1.283-1.33,2,2,0,0,0-1.263-1.942,6.649,6.649,0,0,0-2.454-.372c-5.985-.279-11.551-3.638-15.687-6.723" transform="translate(-201.92 -293.18)"/>
      </g>
      <g id="Group_70" data-name="Group 70" transform="translate(62.085 119.041)" opacity="0.3">
        <path id="Path_1340" data-name="Path 1340" d="M215.92,276.64a22.965,22.965,0,0,0,6.81,4.549,9.358,9.358,0,0,0,7.98-.319c2.387-1.4,3.757-4.522,2.66-7.049-4.808,4.163-11.179,4.755-17.224,2.766" transform="translate(-215.92 -273.82)"/>
      </g>
      <path id="Path_1341" data-name="Path 1341" d="M193.226,247.35c.093,0,1,4.615,2,10.341s1.782,10.381,1.689,10.4-1-4.615-2.028-10.341S193.133,247.363,193.226,247.35Z" transform="translate(-146.23 -145.912)" fill="#263238"/>
      <path id="Path_1342" data-name="Path 1342" d="M251.144,265.62a5.718,5.718,0,0,1-1.776.911,5.879,5.879,0,0,1-1.909.585,6.071,6.071,0,0,1,1.776-.9A5.982,5.982,0,0,1,251.144,265.62Z" transform="translate(-164.401 -152.032)" fill="#263238"/>
      <g id="Group_71" data-name="Group 71" transform="translate(85.77 75.27)" opacity="0.3">
        <path id="Path_1343" data-name="Path 1343" d="M252.736,208a68.116,68.116,0,0,0-1.157,13.433,22.358,22.358,0,0,0,4.216,12.635c2.168,2.773,5.154,4.775,7.86,7.036s5.267,4.994,6.065,8.426a29.274,29.274,0,0,1,.253,6.7c0,.891.333,2.088,1.224,2.042a1.716,1.716,0,0,0,.831-.372,20.4,20.4,0,0,0,5.041-28.076c-4.8-7.076-13.872-10.939-17.084-18.86" transform="translate(-251.536 -208)"/>
      </g>
      <path id="Path_1344" data-name="Path 1344" d="M302.509,206.33c.093,0-.18,3.438-.612,7.661s-.858,7.641-.958,7.634.18-3.445.612-7.668S302.416,206.317,302.509,206.33Z" transform="translate(-182.31 -132.17)" fill="#263238"/>
      <path id="Path_1345" data-name="Path 1345" d="M262.364,224.647a3.744,3.744,0,0,1-.186.5,4.941,4.941,0,0,1-.891,1.283,8.253,8.253,0,0,1-5.453,2.261c-2.6.246-5.826-.412-9.43.492a18.786,18.786,0,0,0-14.47,20.648,13.524,13.524,0,0,0,1.044,3.99,7.381,7.381,0,0,0,2.62,3.258,5.985,5.985,0,0,0,4.156.818,9.457,9.457,0,0,0,4.1-1.7,12.7,12.7,0,0,0,4.795-7.767,12.908,12.908,0,0,0-1.536-9.376,12.568,12.568,0,0,0-3.4-3.618,14.2,14.2,0,0,0-4.589-2.135,12.634,12.634,0,0,0-5.114-.3,12.32,12.32,0,0,0-2.514.665,16.81,16.81,0,0,0-2.374,1.124c-3.059,1.769-5.526,4.322-8.027,6.7a27.48,27.48,0,0,1-8.359,5.879,11.969,11.969,0,0,1-4.928.931,9.462,9.462,0,0,1-4.695-1.456,12.708,12.708,0,0,1-5.36-7.721c-1.549-6.045.944-12.635,5.692-15.568a6.73,6.73,0,0,1,3.924-1.037,5.32,5.32,0,0,1,3.5,1.7,3.877,3.877,0,0,1,.845,3.6,5.413,5.413,0,0,1-1.995,2.966,8.181,8.181,0,0,1-3.152,1.363,14,14,0,0,1-1.629.253c-.545.047-1.077.047-1.6.067a18.166,18.166,0,0,1-5.852-.991,21.042,21.042,0,0,1-4.655-2.274,21.5,21.5,0,0,1-3.325-2.793,17.328,17.328,0,0,1-3.385-4.934,12.1,12.1,0,0,1-.585-1.45c-.12-.332-.173-.505-.173-.505s.073.166.206.492a14.958,14.958,0,0,0,.612,1.43,17.53,17.53,0,0,0,3.425,4.875,21.278,21.278,0,0,0,3.325,2.746,21.056,21.056,0,0,0,4.608,2.234,17.82,17.82,0,0,0,5.786.951,11.614,11.614,0,0,0,1.583-.073,13.578,13.578,0,0,0,1.6-.253,7.981,7.981,0,0,0,3.052-1.33,5.2,5.2,0,0,0,1.922-2.833,3.625,3.625,0,0,0-.825-3.365,5.034,5.034,0,0,0-3.325-1.6,6.437,6.437,0,0,0-3.751,1c-4.608,2.886-7.062,9.31-5.526,15.242a12.376,12.376,0,0,0,5.247,7.448,9.091,9.091,0,0,0,4.529,1.4,11.73,11.73,0,0,0,4.788-.911,26.426,26.426,0,0,0,8.246-5.819,42.342,42.342,0,0,1,8.093-6.743,16.524,16.524,0,0,1,2.427-1.15,12.824,12.824,0,0,1,2.587-.665,13.142,13.142,0,0,1,5.247.313,14.551,14.551,0,0,1,4.7,2.188,13,13,0,0,1,3.491,3.717,13.3,13.3,0,0,1,1.543,9.649,12.967,12.967,0,0,1-4.928,7.98,9.935,9.935,0,0,1-4.249,1.749,6.364,6.364,0,0,1-4.362-.871,7.694,7.694,0,0,1-2.72-3.372,13.7,13.7,0,0,1-1.064-4.07,19.006,19.006,0,0,1,14.71-20.868c3.651-.9,6.9-.213,9.47-.446a8.206,8.206,0,0,0,5.413-2.168,5.261,5.261,0,0,0,1.131-1.762Z" transform="translate(-143.601 -136.589)" fill="#fafafa"/>
      <path id="Path_1346" data-name="Path 1346" d="M299.727,191.413a4.151,4.151,0,0,1-.718.612,13.3,13.3,0,0,1-2.2,1.33,14.717,14.717,0,0,1-15.96-2,13.729,13.729,0,0,1-1.809-1.829,4.274,4.274,0,0,1-.539-.771,25.982,25.982,0,0,0,2.5,2.414,15.049,15.049,0,0,0,15.734,1.995A25.848,25.848,0,0,0,299.727,191.413Z" transform="translate(-174.799 -126.284)" fill="#fafafa"/>
      <path id="Path_1347" data-name="Path 1347" d="M320.572,211.64c0,.06-.785.359-1.995,1.084a14.146,14.146,0,0,0-1.942,1.436,15.965,15.965,0,0,0-2,2.175,15.582,15.582,0,0,0-1.516,2.527,14.3,14.3,0,0,0-.838,2.268c-.359,1.33-.419,2.2-.485,2.195a2.44,2.44,0,0,1,0-.612,5.467,5.467,0,0,1,.073-.712,8.855,8.855,0,0,1,.173-.931,13.226,13.226,0,0,1,.785-2.341,13.452,13.452,0,0,1,3.6-4.808,12.241,12.241,0,0,1,1.995-1.41,7.748,7.748,0,0,1,.845-.426,4.663,4.663,0,0,1,.665-.273A2.222,2.222,0,0,1,320.572,211.64Z" transform="translate(-185.948 -133.949)" fill="#fafafa"/>
      <path id="Path_1348" data-name="Path 1348" d="M180.5,256.926c-.06,0-.126-.851-.372-2.2a25.849,25.849,0,0,0-3.99-9.862,22.075,22.075,0,0,1-1.27-1.835c.06-.04.173.133.432.419a15.175,15.175,0,0,1,1.037,1.277,22.131,22.131,0,0,1,4.037,9.975,16.185,16.185,0,0,1,.146,1.636A2.453,2.453,0,0,1,180.5,256.926Z" transform="translate(-140.081 -144.462)" fill="#fafafa"/>
      <path id="Path_1349" data-name="Path 1349" d="M260.618,297.58a5.763,5.763,0,0,0-.758-.625,6.6,6.6,0,0,0-2.547-1.084,9.224,9.224,0,0,0-4.356.233,16.571,16.571,0,0,0-5.1,2.82c-1.736,1.33-3.478,2.966-5.613,4.429a15.365,15.365,0,0,1-3.551,1.855,10.136,10.136,0,0,1-4.216.545,10.4,10.4,0,0,1-9.1-13.806,7.641,7.641,0,0,1,2.913-3.99,4.109,4.109,0,0,1,2.387-.665,3.325,3.325,0,0,1,2.2,1.064,2.8,2.8,0,0,1,.831,2.261,2.593,2.593,0,0,1-1.436,1.869,12.7,12.7,0,0,1-4.389.851,43.777,43.777,0,0,1-24.751-5.653c-1.051-.632-1.855-1.13-2.381-1.5l-.605-.419c-.133-.093-.2-.146-.193-.153l.213.126.625.386c.532.359,1.33.838,2.407,1.443a44.734,44.734,0,0,0,9.523,3.91,44,44,0,0,0,15.2,1.49,12.229,12.229,0,0,0,4.256-.825,2.255,2.255,0,0,0,1.257-1.629,2.447,2.447,0,0,0-.745-2,2.979,2.979,0,0,0-2-.958,3.718,3.718,0,0,0-2.181.665,7.315,7.315,0,0,0-2.773,3.831,10.421,10.421,0,0,0,1.257,9.144,10.274,10.274,0,0,0,7.521,4.236,9.775,9.775,0,0,0,4.09-.512,15.351,15.351,0,0,0,3.491-1.809c2.115-1.43,3.87-3.072,5.626-4.382a16.446,16.446,0,0,1,5.187-2.806,9.309,9.309,0,0,1,4.449-.186,6.45,6.45,0,0,1,2.56,1.164,4.47,4.47,0,0,1,.545.492A1.763,1.763,0,0,1,260.618,297.58Z" transform="translate(-148.485 -158.729)" fill="#fafafa"/>
      <path id="Path_1350" data-name="Path 1350" d="M208.213,322.305a5.1,5.1,0,0,1-.266-.958c-.16-.612-.4-1.5-.758-2.567a28.9,28.9,0,0,0-4.116-7.787,27.781,27.781,0,0,0-3.225-3.631,17.867,17.867,0,0,0-3.112-2.441,7.086,7.086,0,0,0-2.467-.931c-.625-.093-.978-.06-.978-.093s.086,0,.253-.047a3.945,3.945,0,0,1,.738,0,6.651,6.651,0,0,1,2.574.851,16.786,16.786,0,0,1,3.212,2.421,26.609,26.609,0,0,1,3.285,3.658,26.934,26.934,0,0,1,4.056,7.914,24.341,24.341,0,0,1,.665,2.62A6.108,6.108,0,0,1,208.213,322.305Z" transform="translate(-146.254 -164.834)" fill="#fafafa"/>
      <path id="Path_1351" data-name="Path 1351" d="M276.953,328.147c0,.073-1.33-.066-3.518.073a26.6,26.6,0,0,0-12.382,3.99,27.938,27.938,0,0,0-3.086,2.241c-1.656,1.4-2.534,2.441-2.587,2.394a5.576,5.576,0,0,1,.6-.745,9.66,9.66,0,0,1,.758-.818c.313-.306.665-.665,1.071-1.017a24.378,24.378,0,0,1,3.072-2.321,27.189,27.189,0,0,1,4.2-2.161,27.781,27.781,0,0,1,4.522-1.33,24.681,24.681,0,0,1,3.824-.452c.545-.04,1.044,0,1.476,0s.811.033,1.111.06A4.718,4.718,0,0,1,276.953,328.147Z" transform="translate(-167.054 -172.923)" fill="#fafafa"/>
      <path id="Path_1352" data-name="Path 1352" d="M139.1,187.475s5.234,4.462,5.985,7.98c.333,1.556,2.953,13.407,2.953,13.407l-11.97,3.95a7.2,7.2,0,0,0-2.913-4.342c-2.367-1.49-8.6-5.839-8.6-5.839l-1.929-15.189,5.28-4.655.113-7.787a2.62,2.62,0,0,1,2.4,2.354c.379,2.288,2.707,6.224,2.707,6.224Z" transform="translate(-122.583 -121.675)" fill="#ffbe9d"/>
      <path id="Path_1353" data-name="Path 1353" d="M142.91,229.86s6.138,45.885,7.747,51.245c1.676,5.6,6.091,9.31,10.919,8.884a11.7,11.7,0,0,0,9.935-7.648c1.33-3.6,7.594-24.007,7.594-24.007L164.25,245.787l-3.571,10.175-5.812-30.052Z" transform="translate(-129.377 -138.729)" fill="#ffbe9d"/>
      <path id="Path_1354" data-name="Path 1354" d="M148.573,211.132a7.1,7.1,0,0,1-2.175-3.239,10.1,10.1,0,0,1-.605-2.713,3.127,3.127,0,0,1,0-1.15,30.9,30.9,0,0,0,.9,3.737,19.177,19.177,0,0,0,1.875,3.365Z" transform="translate(-130.325 -131.4)" fill="#eb996e"/>
      <path id="Path_1355" data-name="Path 1355" d="M131.936,173.326l-1.616,22.617,8.964,5.978.845-.632,1.443-21.307-8.053-6.723Z" transform="translate(-125.16 -121.092)" fill="#263238"/>
      <path id="Path_1356" data-name="Path 1356" d="M136.276,177.45l-.446,7.661,5.526,4.176.485-7.169Z" transform="translate(-127.005 -122.496)" fill="#fff"/>
      <path id="Path_1357" data-name="Path 1357" d="M134.255,197.671a.753.753,0,0,1,.06-.206,2.939,2.939,0,0,1,.313-.525,3.438,3.438,0,0,1,1.915-1.17,3.325,3.325,0,0,1,3.159.865,3.205,3.205,0,0,1,.978,1.756,3.924,3.924,0,0,1-.133,2.155,3,3,0,0,1-1.456,1.6,3.824,3.824,0,0,1-4.761-1.483,4.116,4.116,0,0,1-.352-2.221,1.424,1.424,0,0,1,.279-.771,6.342,6.342,0,0,0-.146.785,4.229,4.229,0,0,0,.439,2.095,3.258,3.258,0,0,0,2.594,1.569,3.219,3.219,0,0,0,1.8-.279,2.66,2.66,0,0,0,1.277-1.423,3.571,3.571,0,0,0,.126-1.955,2.919,2.919,0,0,0-.865-1.6,3.066,3.066,0,0,0-2.886-.858,3.451,3.451,0,0,0-1.862,1.017C134.394,197.4,134.288,197.684,134.255,197.671Z" transform="translate(-126.374 -128.598)" fill="#455a64"/>
      <path id="Path_1358" data-name="Path 1358" d="M140.886,201.3a3.766,3.766,0,0,1-.632-.386l-1.7-1.15-5.9-4.1-.073-.053v-.086c.126-1.9.266-3.99.406-6.158.306-4.456.605-8.479.838-11.392.12-1.416.213-2.58.286-3.451l.1-.931a1.052,1.052,0,0,1,.06-.326,1.528,1.528,0,0,1,0,.326v.944c-.047.871-.106,2.035-.186,3.451-.166,2.919-.426,6.949-.731,11.4-.153,2.181-.3,4.256-.432,6.158l-.067-.14,5.825,4.2,1.649,1.224A4.02,4.02,0,0,1,140.886,201.3Z" transform="translate(-125.917 -121.092)" fill="#455a64"/>
      <path id="Path_1359" data-name="Path 1359" d="M127.953,186.516l6.79-.286s.279,2.62-1.25,3.052l-5.413.219,3.438.891,5.074,4.289s-1.33,1.609-2.527,1.29a16.017,16.017,0,0,1-3.558-2.141l-2.9,1.33,4.229.559,3.83,5.227s-1.955.818-2.946.126a10.234,10.234,0,0,1-2-2.281l-2.494.472-.166,6.65-3.451.5-1.995-9.782.7-1.729-.625-3.677Z" transform="translate(-122.58 -125.437)" fill="#ffbe9d"/>
      <path id="Path_1360" data-name="Path 1360" d="M131.5,192.041a18.18,18.18,0,0,1-2.846-.585l.146-.04c-.625.665-1.33,1.456-2.062,2.281-1.117,1.217-2.141,2.308-2.9,3.086a8.645,8.645,0,0,1-1.277,1.21,8.765,8.765,0,0,1,1.1-1.377c.7-.818,1.7-1.935,2.82-3.152l2.1-2.248.06-.066h.086A18.257,18.257,0,0,1,131.5,192.041Z" transform="translate(-122.56 -127.085)" fill="#eb996e"/>
      <path id="Path_1361" data-name="Path 1361" d="M124.484,203.529c-.047,0,.053-.352.306-.845a13.347,13.347,0,0,1,1.157-1.8,9,9,0,0,1,.751-.931,1.649,1.649,0,0,1,.884-.512,1.017,1.017,0,0,1,.665.086c.146.087.193.166.18.18a1.55,1.55,0,0,0-.811,0c-.492.12-.918.738-1.41,1.416C125.216,202.4,124.558,203.556,124.484,203.529Z" transform="translate(-123.201 -129.855)" fill="#eb996e"/>
      <path id="Path_1362" data-name="Path 1362" d="M169.6,283a7.9,7.9,0,0,1-.166-1.742c-.053-1.077-.06-2.567-.04-4.21s.04-3.012.06-4.21a10.325,10.325,0,0,1,.073-1.742,7.606,7.606,0,0,1,.173,1.742c.047,1.077.06,2.567.04,4.21s-.047,3.006-.06,4.2A9.874,9.874,0,0,1,169.6,283Z" transform="translate(-138.246 -153.868)" fill="#eb996e"/>
      <path id="Path_1363" data-name="Path 1363" d="M220.971,103.463a1.63,1.63,0,0,1-.406.04l-1.157.06a21.331,21.331,0,0,0-4.163.725,17.716,17.716,0,0,0-5.579,2.76,25.077,25.077,0,0,0-2.786,2.427,24.28,24.28,0,0,0-2.613,2.993,35.1,35.1,0,0,0-3.91,6.61,19.357,19.357,0,0,0-1.084,3.159,11.773,11.773,0,0,0-.3,2.886,15.767,15.767,0,0,0,.505,4.183,6.236,6.236,0,0,0,.406,1.071c.113.233.2.346.193.352a3.113,3.113,0,0,1-.732-1.383,14.771,14.771,0,0,1-.618-4.223,11.972,11.972,0,0,1,.266-2.953,19.014,19.014,0,0,1,1.071-3.219,34.059,34.059,0,0,1,3.923-6.69,27.591,27.591,0,0,1,5.493-5.466,17.29,17.29,0,0,1,5.706-2.74,19.6,19.6,0,0,1,4.216-.665h1.164A1.749,1.749,0,0,1,220.971,103.463Z" transform="translate(-148.073 -97.686)" fill="#263238"/>
      <path id="Path_1364" data-name="Path 1364" d="M270.378,132.3c.718,5.154-1.962,9.789-5.985,10.348s-7.854-3.172-8.572-8.326,1.962-9.8,5.985-10.354S269.66,127.144,270.378,132.3Z" transform="translate(-167.163 -104.562)" fill="url(#linear-gradient)"/>
      <path id="Path_1365" data-name="Path 1365" d="M272.444,137.709c-.06,0,.319-.8.545-2.148a10.233,10.233,0,0,0-.485-5.207,8.8,8.8,0,0,0-3.179-4.116,15.024,15.024,0,0,0-1.955-1.017,1.636,1.636,0,0,1,.592.12,6.413,6.413,0,0,1,1.5.665,8.512,8.512,0,0,1,3.371,4.19,9.8,9.8,0,0,1,.4,5.38,7.884,7.884,0,0,1-.492,1.569,1.9,1.9,0,0,1-.293.565Z" transform="translate(-171.071 -104.999)" fill="#fff"/>
      <path id="Path_1366" data-name="Path 1366" d="M276.777,176.638a12.125,12.125,0,0,1,.665-1.031,24.228,24.228,0,0,0,1.682-2.879,13.247,13.247,0,0,0,1.377-4.688,9.975,9.975,0,0,0-1.33-5.746,36.936,36.936,0,0,0-3.558-4.888,30.136,30.136,0,0,1-2.906-4.057,11.233,11.233,0,0,1-1.217-3.139c-.06-.4-.086-.7-.106-.911a1.05,1.05,0,0,1,0-.319,8.807,8.807,0,0,1,.253,1.2,12.135,12.135,0,0,0,1.3,3.046,31.257,31.257,0,0,0,2.939,3.99,35.4,35.4,0,0,1,3.618,4.928,10.275,10.275,0,0,1,1.33,5.939,13.239,13.239,0,0,1-1.476,4.775,20.418,20.418,0,0,1-1.8,2.846c-.233.319-.426.559-.565.718S276.79,176.644,276.777,176.638Z" transform="translate(-172.411 -112.958)" fill="#263238"/>
      <path id="Path_1367" data-name="Path 1367" d="M206.973,193.91c-.412,5.081,3.711,9.31,5.32,14.151a15.156,15.156,0,0,1-5.513,16.672c4.987.865,10.095-2.308,12.489-6.763s1.809-9.929.519-14.816-1.689-6.544-1.689-6.544" transform="translate(-150.773 -128.01)" fill="#263238"/>
      <path id="Path_1368" data-name="Path 1368" d="M231.1,104.545a4.07,4.07,0,0,1,5.047-3.431c4.429.851,11.4,2.527,15.149,9.809s7.714,25.935,7.82,26.693,4.482,30.5,6.889,34.188a9.856,9.856,0,0,0,5.114,4.2s-4.456,3.139-9.31-1.224-13.965-22.431-13.965-22.431Z" transform="translate(-158.92 -96.886)" fill="#263238"/>
      <path id="Path_1369" data-name="Path 1369" d="M207.1,123.66l-.831-3.4,19.6-8.512c6.165-2.088,14.411,2.707,16.233,8.951,2.028,6.936,4.229,15.488,4.575,20.928.7,10.939-7.1,14.1-7.1,14.1l2.308,10.547-23.275,5.54Z" transform="translate(-150.602 -100.32)" fill="#ffbe9d"/>
      <path id="Path_1370" data-name="Path 1370" d="M256.712,136.2c-.126.213-1.33-.313-2.786,0s-2.354,1.3-2.554,1.157c-.1-.067,0-.419.392-.865a3.8,3.8,0,0,1,2-1.144,3.638,3.638,0,0,1,2.261.206C256.552,135.819,256.778,136.1,256.712,136.2Z" transform="translate(-165.699 -108.362)" fill="#263238"/>
      <path id="Path_1371" data-name="Path 1371" d="M234.943,142.525c-.126.213-1.33-.319-2.78,0s-2.361,1.33-2.56,1.157c-.093-.06,0-.419.392-.864a3.824,3.824,0,0,1,2-1.144,3.671,3.671,0,0,1,2.261.206C234.784,142.153,235.01,142.439,234.943,142.525Z" transform="translate(-158.408 -110.48)" fill="#263238"/>
      <path id="Path_1372" data-name="Path 1372" d="M246.754,146.672a9.49,9.49,0,0,1,2.268-.964c.366-.12.7-.273.7-.539a2,2,0,0,0-.492-1.051l-1.742-2.574c-2.434-3.691-4.283-6.756-4.136-6.856s2.248,2.82,4.655,6.51l1.7,2.613a2.214,2.214,0,0,1,.519,1.416.938.938,0,0,1-.485.665,2.746,2.746,0,0,1-.612.233,9.975,9.975,0,0,1-2.374.545Z" transform="translate(-163.023 -108.17)" fill="#263238"/>
      <path id="Path_1373" data-name="Path 1373" d="M248.625,177.942a28.668,28.668,0,0,1-15.355-.532s5.227,6.59,15.96,3.165Z" transform="translate(-159.647 -122.482)" fill="#eb996e"/>
      <path id="Path_1374" data-name="Path 1374" d="M246.619,157.9a2.66,2.66,0,0,0-2.574-.446,2.441,2.441,0,0,0-1.456,1.257,1.55,1.55,0,0,0,.273,1.762,1.809,1.809,0,0,0,2,.053,5.585,5.585,0,0,0,1.609-1.53,1.436,1.436,0,0,0,.319-.525.492.492,0,0,0-.12-.539" transform="translate(-162.715 -115.745)" fill="url(#linear-gradient)"/>
      <path id="Path_1375" data-name="Path 1375" d="M242.3,155.669c.233-.066.592,1.516,2.2,2.334s3.245.266,3.325.485c.04.093-.306.392-1.017.572a4.023,4.023,0,0,1-2.746-.319,3.5,3.5,0,0,1-1.742-1.995C242.1,156.115,242.189,155.682,242.3,155.669Z" transform="translate(-162.634 -115.198)" fill="#263238"/>
      <path id="Path_1376" data-name="Path 1376" d="M232.3,131.26c-.053.432-1.549.572-3.212,1.157s-2.946,1.37-3.252,1.064c-.14-.146,0-.572.485-1.084a5.985,5.985,0,0,1,4.928-1.689C231.912,130.821,232.318,131.061,232.3,131.26Z" transform="translate(-157.139 -106.823)" fill="#263238"/>
      <path id="Path_1377" data-name="Path 1377" d="M253.546,126.308c-.18.386-1.263.266-2.474.525s-2.181.725-2.494.432c-.14-.146-.053-.519.326-.931a3.445,3.445,0,0,1,1.882-.991,3.524,3.524,0,0,1,2.115.219C253.406,125.809,253.626,126.122,253.546,126.308Z" transform="translate(-164.754 -105.016)" fill="#263238"/>
      <path id="Path_1378" data-name="Path 1378" d="M211.9,133.928c5.706-4.688,8.519-14.3,11.518-21.041.665-1.5,1.33-3.159.858-4.722a4.5,4.5,0,0,0-3.9-2.82,9.7,9.7,0,0,0-4.914,1.124,25.177,25.177,0,0,0-13.407,15.641c-.618,2.148-.246,6.869,1.563,8.18,2,1.436,4.382.219,6.318,1.722" transform="translate(-149.099 -98.339)" fill="#263238"/>
      <path id="Path_1379" data-name="Path 1379" d="M260.067,171.89c3.824,4.316,6.83,10.9,6.763,16.665-.06,5.32-1.849,11.072.745,15.727,2.341,4.19,7.441,5.932,10.76,9.4,3.817,3.99,4.894,10.135,3.564,15.508s-4.795,10.022-8.951,13.679a14.258,14.258,0,0,0-3.924-15.388c-2.7-2.334-6.211-3.558-8.971-5.825-3.99-3.325-5.985-8.512-6.57-13.666s.173-10.354.751-15.5,1.4-11.139.259-16.193C256.709,175.953,258.684,174.171,260.067,171.89Z" transform="translate(-166.348 -120.633)" fill="#263238"/>
      <path id="Path_1380" data-name="Path 1380" d="M230.024,107.42a8.392,8.392,0,0,1,.146,1.164,13.02,13.02,0,0,1,.073,1.377c0,.539.033,1.157,0,1.829,0,.339-.04.7-.067,1.064s-.093.751-.14,1.144c-.08.8-.266,1.629-.446,2.514a30.725,30.725,0,0,1-1.869,5.52,31.189,31.189,0,0,1-3.019,5.061c-.552.712-1.057,1.4-1.609,1.995-.266.3-.512.6-.771.858l-.765.745c-.472.485-.958.864-1.33,1.217a11.8,11.8,0,0,1-1.091.845,7.653,7.653,0,0,1-.978.665,8.1,8.1,0,0,1,.891-.758,13.555,13.555,0,0,0,1.051-.884c.386-.366.865-.751,1.33-1.244l.738-.758c.259-.259.492-.559.758-.858.532-.585,1.024-1.27,1.563-1.995a29.572,29.572,0,0,0,4.775-10.441c.18-.871.379-1.689.472-2.48.047-.386.12-.765.153-1.131s.06-.712.086-1.051c.08-.665.06-1.277.08-1.815a12.757,12.757,0,0,0,0-1.37A7.184,7.184,0,0,1,230.024,107.42Z" transform="translate(-154.585 -99.036)" fill="#263238"/>
      <path id="Path_1381" data-name="Path 1381" d="M224.364,209.5a2.4,2.4,0,0,1,.12-.452c.08-.293.239-.712.386-1.27a32.738,32.738,0,0,0-.771-20.555,74.993,74.993,0,0,0-3.864-7.98,48.21,48.21,0,0,1-3.006-6.617,18.738,18.738,0,0,1-1.031-4.795,10.881,10.881,0,0,1-.033-1.33,2.3,2.3,0,0,1,0-.465,15.956,15.956,0,0,0,.14,1.782,20.015,20.015,0,0,0,1.13,4.722,50.273,50.273,0,0,0,3.059,6.55,71.824,71.824,0,0,1,3.9,7.98,31.761,31.761,0,0,1,1.7,15.96,29.749,29.749,0,0,1-1.124,4.775c-.166.552-.346.964-.446,1.25A2.661,2.661,0,0,1,224.364,209.5Z" transform="translate(-153.913 -118.673)" fill="#263238"/>
      <path id="Path_1382" data-name="Path 1382" d="M211.58,131.28a5.068,5.068,0,0,1,.758-.738c.253-.226.559-.505.9-.845s.745-.7,1.157-1.15a41.124,41.124,0,0,0,2.82-3.185,45.219,45.219,0,0,0,2.986-4.263,44.45,44.45,0,0,0,2.427-4.6,40.365,40.365,0,0,0,1.549-3.99c.213-.572.352-1.1.5-1.556s.253-.865.339-1.19a5.435,5.435,0,0,1,.306-1.011,6.451,6.451,0,0,1-.18,1.044c-.06.333-.153.738-.279,1.2s-.253,1-.446,1.583a39.364,39.364,0,0,1-6.956,12.961,36.577,36.577,0,0,1-2.893,3.159c-.426.439-.845.8-1.2,1.117s-.665.6-.944.8A7.7,7.7,0,0,1,211.58,131.28Z" transform="translate(-152.381 -99.481)" fill="#455a64"/>
      <path id="Path_1383" data-name="Path 1383" d="M204.735,130.667a1.181,1.181,0,0,1-.047-.286,3.177,3.177,0,0,1,.073-.831,5.113,5.113,0,0,1,1.549-2.62,25.116,25.116,0,0,1,3.7-2.567A32,32,0,0,0,214.324,121a33.058,33.058,0,0,0,6.165-7.761c.665-1.1,1.091-2.035,1.4-2.66a6.818,6.818,0,0,1,.492-1,8.134,8.134,0,0,1-.366,1.051,27.1,27.1,0,0,1-1.33,2.746,30.982,30.982,0,0,1-10.514,11.305,26.916,26.916,0,0,0-3.711,2.474,5.24,5.24,0,0,0-1.589,2.474A8.409,8.409,0,0,0,204.735,130.667Z" transform="translate(-150.072 -99.759)" fill="#455a64"/>
      <path id="Path_1384" data-name="Path 1384" d="M212.185,216.845a3.534,3.534,0,0,1,.366-.332c.126-.106.286-.226.459-.386s.359-.359.579-.572a13.427,13.427,0,0,0,2.707-4.369,18.886,18.886,0,0,0,1.15-7.528,34.262,34.262,0,0,0-1.935-9.184c-1.051-3.185-2.241-6.158-3.1-8.951a35.236,35.236,0,0,1-1.583-7.581,19.422,19.422,0,0,1,.219-5.214,11.9,11.9,0,0,1,.333-1.383,2,2,0,0,1,.153-.466c.04,0-.166.665-.352,1.869a21.277,21.277,0,0,0-.113,5.174,37.05,37.05,0,0,0,1.649,7.508c.871,2.766,2.061,5.739,3.126,8.931a34.168,34.168,0,0,1,1.922,9.31,18.806,18.806,0,0,1-1.244,7.634,12.867,12.867,0,0,1-2.84,4.369l-.605.552a5.831,5.831,0,0,1-.479.366A2.179,2.179,0,0,1,212.185,216.845Z" transform="translate(-152.101 -120.295)" fill="#455a64"/>
      <path id="Path_1385" data-name="Path 1385" d="M203.52,190.489a4.261,4.261,0,0,1,.146-.8c.133-.585.3-1.33.492-2.175.412-1.835.958-4.376,1.456-7.2s.865-5.4,1.1-7.268c.113-.878.206-1.616.279-2.208a3.7,3.7,0,0,1,.166-.838,4.165,4.165,0,0,1,0,.825c0,.525-.086,1.283-.18,2.221-.173,1.882-.5,4.462-1,7.315s-1.084,5.373-1.556,7.2c-.239.911-.446,1.643-.6,2.148A3.512,3.512,0,0,1,203.52,190.489Z" transform="translate(-149.681 -120)" fill="#455a64"/>
      <path id="Path_1386" data-name="Path 1386" d="M211.966,150.308c.718,5.16-1.955,9.8-5.985,10.348-3.026.426-5.839-1.776-7.4-5a15.372,15.372,0,0,1-1.17-3.325c-1.15-5.074,2-9.789,5.985-10.348S211.254,145.154,211.966,150.308Z" transform="translate(-147.554 -110.595)" fill="url(#linear-gradient)"/>
      <path id="Path_1387" data-name="Path 1387" d="M206.912,151.538c1.25,4.6.2,8.871-2.347,9.569s-5.619-2.467-6.869-7.062-.193-8.871,2.347-9.563S205.662,146.949,206.912,151.538Z" transform="translate(-147.554 -111.42)" fill="url(#linear-gradient)"/>
      <path id="Path_1388" data-name="Path 1388" d="M206.912,151.538c1.25,4.6.2,8.871-2.347,9.569s-5.619-2.467-6.869-7.062-.193-8.871,2.347-9.563S205.662,146.949,206.912,151.538Z" transform="translate(-147.554 -111.42)" opacity="0.3"/>
      <path id="Path_1389" data-name="Path 1389" d="M205.641,141.93a12.451,12.451,0,0,0-1.855-.033,9.363,9.363,0,0,0-4.057,1.722,6.87,6.87,0,0,0-2.208,3.751c-.286,1.111-.312,1.835-.366,1.835a1.33,1.33,0,0,1-.04-.512,8.686,8.686,0,0,1,.818-3.325,5.7,5.7,0,0,1,1.583-2,8.679,8.679,0,0,1,4.249-1.689,4.784,4.784,0,0,1,1.39.106A1.184,1.184,0,0,1,205.641,141.93Z" transform="translate(-147.533 -110.51)" fill="#263238"/>
      <path id="Path_1390" data-name="Path 1390" d="M199.93,145.016a1.046,1.046,0,0,1,.193-.153,2.8,2.8,0,0,1,.665-.266,3.564,3.564,0,0,1,2.54.259,6.53,6.53,0,0,1,2.76,2.607A16.127,16.127,0,0,1,208,151.706a11.724,11.724,0,0,1,.446,4.655,7.9,7.9,0,0,1-1.33,3.578,3.032,3.032,0,0,1-2.155,1.33,1.86,1.86,0,0,1-.7-.04.571.571,0,0,1-.226-.086,3.326,3.326,0,0,0,.911,0,2.939,2.939,0,0,0,2-1.33,7.874,7.874,0,0,0,1.184-3.471,11.758,11.758,0,0,0-.459-4.5,16.459,16.459,0,0,0-1.855-4.163,6.484,6.484,0,0,0-2.594-2.56,3.578,3.578,0,0,0-2.4-.346A6.557,6.557,0,0,0,199.93,145.016Z" transform="translate(-148.479 -111.449)" fill="#263238"/>
      <path id="Path_1391" data-name="Path 1391" d="M215.254,155.2c-.06,0,.213-.811.339-2.148a11.145,11.145,0,0,0-3.6-9.35c-.984-.9-1.722-1.33-1.689-1.37a2.056,2.056,0,0,1,.539.253,8.963,8.963,0,0,1,1.33.931,10.64,10.64,0,0,1,3.684,9.569,9.628,9.628,0,0,1-.352,1.569A1.769,1.769,0,0,1,215.254,155.2Z" transform="translate(-151.952 -110.73)" fill="#fff"/>
      <path id="Path_1392" data-name="Path 1392" d="M180.224,160.816a37.994,37.994,0,0,1-5.22.047,38.47,38.47,0,0,1-5.214-.306,40.044,40.044,0,0,1,5.22-.04A40.554,40.554,0,0,1,180.224,160.816Z" transform="translate(-138.382 -116.801)" fill="#263238"/>
      <path id="Path_1393" data-name="Path 1393" d="M181.419,167.11a16.1,16.1,0,0,1-2.66,1.962,16.628,16.628,0,0,1-2.879,1.669,16.1,16.1,0,0,1,2.66-1.962A16.9,16.9,0,0,1,181.419,167.11Z" transform="translate(-140.422 -119.032)" fill="#263238"/>
      <path id="Path_1394" data-name="Path 1394" d="M187.357,168.94a28.845,28.845,0,0,1-1.7,4.15,29.6,29.6,0,0,1-1.995,3.99,29.257,29.257,0,0,1,1.7-4.15,29.149,29.149,0,0,1,2-3.99Z" transform="translate(-143.028 -119.645)" fill="#263238"/>
      <path id="Path_1395" data-name="Path 1395" d="M303.076,119.87a14.681,14.681,0,0,1-2,.665c-1.257.366-2.992.878-4.9,1.476s-3.611,1.19-4.855,1.616a14.42,14.42,0,0,1-2,.665,11.65,11.65,0,0,1,1.935-.871c1.224-.485,2.926-1.1,4.841-1.716s3.658-1.071,4.941-1.377A11.336,11.336,0,0,1,303.076,119.87Z" transform="translate(-178.427 -103.207)" fill="#263238"/>
      <path id="Path_1396" data-name="Path 1396" d="M289.968,109.55a31.59,31.59,0,0,1-2.188,4.057,30.666,30.666,0,0,1-2.48,3.884,31.017,31.017,0,0,1,2.181-4.057,30.242,30.242,0,0,1,2.487-3.884Z" transform="translate(-177.077 -99.749)" fill="#263238"/>
      <path id="Path_1397" data-name="Path 1397" d="M298.751,134.171a20.578,20.578,0,0,1-3.844-.386,21.943,21.943,0,0,1-3.8-.725,20.528,20.528,0,0,1,3.844.386,21.938,21.938,0,0,1,3.8.725Z" transform="translate(-179.023 -107.625)" fill="#263238"/>
    </g>
  </g>
</svg>
