<svg xmlns="http://www.w3.org/2000/svg" xmlns:xlink="http://www.w3.org/1999/xlink" width="65.146" height="30.321" viewBox="0 0 65.146 30.321">
  <defs>
    <linearGradient id="linear-gradient" x1="0.5" x2="0.5" y2="1" gradientUnits="objectBoundingBox">
      <stop offset="0" stop-color="#8c37f6"/>
      <stop offset="1" stop-color="#1431fb"/>
    </linearGradient>
  </defs>
  <g id="logo" transform="translate(-854.94 -298)">
    <path id="Path_1174" data-name="Path 1174" d="M3.94-33.653a1.063,1.063,0,0,0,.236.708,1.4,1.4,0,0,0,.607.416,6.635,6.635,0,0,0,.826.236q.455.1.91.23a4,4,0,0,1,.826.331,1.573,1.573,0,0,1,.607.607,1.956,1.956,0,0,1,.236,1,2.135,2.135,0,0,1-.7,1.584,2.592,2.592,0,0,1-1.882.674,3.174,3.174,0,0,1-1.927-.545,1.738,1.738,0,0,1-.742-1.478H4.03a1.22,1.22,0,0,0,.421.854,1.667,1.667,0,0,0,1.118.326,1.733,1.733,0,0,0,1.18-.382,1.154,1.154,0,0,0,.438-.893,1.174,1.174,0,0,0-.236-.787,1.421,1.421,0,0,0-.607-.41,6.071,6.071,0,0,0-.826-.23q-.455-.1-.91-.23a4.016,4.016,0,0,1-.826-.343,1.6,1.6,0,0,1-.607-.618A2.012,2.012,0,0,1,2.94-33.62a1.99,1.99,0,0,1,.7-1.59,2.718,2.718,0,0,1,1.831-.6,2.843,2.843,0,0,1,1.8.522,2.029,2.029,0,0,1,.77,1.444H6.906a1.148,1.148,0,0,0-.433-.787,1.572,1.572,0,0,0-1.045-.326,1.669,1.669,0,0,0-1.073.331A1.169,1.169,0,0,0,3.94-33.653Zm8.393,4.966a2.069,2.069,0,0,0,1.5-.624,2.307,2.307,0,0,0,.635-1.725,2.349,2.349,0,0,0-.607-1.719,1.992,1.992,0,0,0-1.478-.618,1.92,1.92,0,0,0-1.455.618,2.411,2.411,0,0,0-.584,1.725,2.471,2.471,0,0,0,.562,1.725A1.844,1.844,0,0,0,12.333-28.687Zm-2.185-.034a3.172,3.172,0,0,1-.848-2.3,3.112,3.112,0,0,1,.888-2.309,3.028,3.028,0,0,1,2.225-.882,3.028,3.028,0,0,1,2.225.882,3.1,3.1,0,0,1,.888,2.3,3.034,3.034,0,0,1-.927,2.3,3.162,3.162,0,0,1-2.264.882A2.907,2.907,0,0,1,10.148-28.721Zm7.68-5.393v1a2.145,2.145,0,0,1,2.011-1.1,2.328,2.328,0,0,1,1.708.68,2.609,2.609,0,0,1,.685,1.938v3.652H21.221v-3.483a2.008,2.008,0,0,0-.449-1.416,1.612,1.612,0,0,0-1.242-.483,1.631,1.631,0,0,0-1.247.483,1.992,1.992,0,0,0-.455,1.416v3.483H16.805v-6.168Zm8.573,6.27a2.753,2.753,0,0,1-2.1-.9,3.261,3.261,0,0,1-.843-2.315,3.154,3.154,0,0,1,.837-2.281,2.8,2.8,0,0,1,2.107-.871,2.532,2.532,0,0,1,1.376.371,2.431,2.431,0,0,1,.893.966v-1.236H29.7v6.326a2.775,2.775,0,0,1-.82,2.073,2.848,2.848,0,0,1-2.079.8,3.522,3.522,0,0,1-2.084-.584,2.118,2.118,0,0,1-.938-1.528h1a1.522,1.522,0,0,0,.685.876A2.416,2.416,0,0,0,26.8-25.8a1.827,1.827,0,0,0,1.331-.522,1.958,1.958,0,0,0,.534-1.466V-29.2a2.45,2.45,0,0,1-.893.983A2.5,2.5,0,0,1,26.4-27.844Zm1.657-1.506a2.3,2.3,0,0,0,.612-1.674,2.3,2.3,0,0,0-.612-1.674,1.98,1.98,0,0,0-1.472-.629,2.016,2.016,0,0,0-1.472.607,2.22,2.22,0,0,0-.612,1.652,2.365,2.365,0,0,0,.618,1.7,1.96,1.96,0,0,0,1.472.652A1.974,1.974,0,0,0,28.058-29.35Zm3.107-3.022a1.637,1.637,0,0,1,.646-1.309,2.542,2.542,0,0,1,1.674-.534,2.333,2.333,0,0,1,1.612.522,2,2,0,0,1,.64,1.433H34.681a1.178,1.178,0,0,0-.348-.831,1.248,1.248,0,0,0-.9-.315,1.382,1.382,0,0,0-.91.275.878.878,0,0,0-.331.708.746.746,0,0,0,.376.669,2.7,2.7,0,0,0,.91.343q.534.107,1.067.247a1.928,1.928,0,0,1,.91.528,1.516,1.516,0,0,1,.376,1.1,1.461,1.461,0,0,1-.646,1.2,2.71,2.71,0,0,1-1.68.489,2.514,2.514,0,0,1-1.657-.517,1.916,1.916,0,0,1-.68-1.427h1.056a1.128,1.128,0,0,0,.365.826,1.358,1.358,0,0,0,.944.309,1.535,1.535,0,0,0,.944-.258.791.791,0,0,0,.343-.657.8.8,0,0,0-.27-.635,1.5,1.5,0,0,0-.674-.326q-.4-.09-.882-.213t-.882-.264a1.432,1.432,0,0,1-.674-.489A1.389,1.389,0,0,1,31.164-32.372Zm11.27-3.36h1.022v7.786H42.434l-4.112-6.18v6.18H37.3v-7.786h1.022l4.112,6.18Zm5.292,7.888a2.839,2.839,0,0,1-2.157-.876,3.224,3.224,0,0,1-.831-2.315,3.179,3.179,0,0,1,.843-2.309,2.906,2.906,0,0,1,2.185-.871,2.894,2.894,0,0,1,2.157.826,2.874,2.874,0,0,1,.815,2.107,3.846,3.846,0,0,1-.045.607h-4.91a2.121,2.121,0,0,0,.579,1.455,1.849,1.849,0,0,0,1.365.534,1.909,1.909,0,0,0,1.062-.281,1.669,1.669,0,0,0,.635-.742h1.1a2.831,2.831,0,0,1-1.006,1.337A2.931,2.931,0,0,1,47.726-27.844Zm1.944-3.573a1.925,1.925,0,0,0-.562-1.421,1.885,1.885,0,0,0-1.365-.534,1.868,1.868,0,0,0-1.354.522,2.091,2.091,0,0,0-.6,1.433Zm5.444,2.7a1.956,1.956,0,0,0,1.472-.646,2.365,2.365,0,0,0,.612-1.7,2.228,2.228,0,0,0-.612-1.657,2.016,2.016,0,0,0-1.472-.607,1.98,1.98,0,0,0-1.472.629,2.29,2.29,0,0,0-.612,1.669,2.31,2.31,0,0,0,.612,1.674A1.972,1.972,0,0,0,55.114-28.721Zm.2-5.494a2.8,2.8,0,0,1,2.107.871,3.154,3.154,0,0,1,.837,2.281,3.261,3.261,0,0,1-.843,2.315,2.753,2.753,0,0,1-2.1.9,2.5,2.5,0,0,1-1.376-.376,2.533,2.533,0,0,1-.9-.983v4.18H52.007v-9.09h1.022v1.236a2.515,2.515,0,0,1,.9-.966A2.532,2.532,0,0,1,55.31-34.215Zm8.421,4.865a2.3,2.3,0,0,0,.612-1.674,2.3,2.3,0,0,0-.612-1.674,1.98,1.98,0,0,0-1.472-.629,2.016,2.016,0,0,0-1.472.607,2.22,2.22,0,0,0-.612,1.652,2.365,2.365,0,0,0,.618,1.7,1.96,1.96,0,0,0,1.472.652A1.974,1.974,0,0,0,63.732-29.35Zm-1.657,1.506a2.753,2.753,0,0,1-2.1-.9,3.261,3.261,0,0,1-.843-2.315,3.153,3.153,0,0,1,.837-2.281,2.8,2.8,0,0,1,2.107-.871,2.532,2.532,0,0,1,1.376.371,2.431,2.431,0,0,1,.893.966v-1.236h1.034v6.168H64.344V-29.2a2.45,2.45,0,0,1-.893.983A2.5,2.5,0,0,1,62.074-27.844Zm4.989-.1V-36.26h1.022v8.315Z" transform="translate(852 353.233)" fill="url(#linear-gradient)"/>
    <path id="Path_1173" data-name="Path 1173" d="M92.827,152.631a7.029,7.029,0,0,1,6.832,4.082c.173.38.122.784.285,1.232.133.364.623.384.7.9l-.181.205.052.077c.438.16.443,1.042.336,1.643a7.351,7.351,0,0,1-1.4,3.543,9.608,9.608,0,0,1-2.2,1.848l-.414.437c-.236.129-.515-.026-.725-.051l-1.009.334-.311.667a4.779,4.779,0,0,1-1.035,1.284c-1.774,1.4-3.885,1.269-6.444.745l-.1-.308-.13.026a4.539,4.539,0,0,1-1.449.565c-2.013.325-4.753-1.2-4.477-2.978.225-1.454.774-2.532,1.087-3.928a2.853,2.853,0,0,0-2.769-3.414,2.321,2.321,0,0,0-2.122,1.515c-.36,1.29.066,2.437-.647,3.44a2.3,2.3,0,0,1-1.5.847c-.774.137-1.957-.305-2.277.308-.347.664.279,1.665.543,2.1a6.009,6.009,0,0,0,3.494,2.567,12.917,12.917,0,0,1,2.468,1.538l.475-.045,2.026,1.972c.147.412-.291.6-.6.715l-2.129-2.071c-.9-1.9-4.33-2.295-5.583-3.958-.389-.516-1.407-1.721-1.035-2.747s1.542-.43,2.666-.667a2.033,2.033,0,0,0,1.242-.8c.61-.86.259-1.91.543-3.106a2.49,2.49,0,0,1,1.424-1.643,2.763,2.763,0,0,1,1.449-.154,2.92,2.92,0,0,1,2.692,2.464c.24,1.069-.684,3.087-.932,3.9a3.3,3.3,0,0,0-.1,1.925,3.48,3.48,0,0,0,3.83,1.823c.472-.139.868-.188,1.087-.565l-.026-.051c-.582.059-.89-.377-1.242-.642a4.12,4.12,0,0,1-1.449-4.236,5.9,5.9,0,0,1,.6-1.617l.466-.668q-.013-.372-.026-.744c.063-.381.28-.527.362-.8.09-.291-.053-.683.026-.975.62-2.294,1.5-4.227,3.313-5.34.278-.17.4-.671.725-.745l.569.1c.053-.178.138-.206.259-.308.253.016.321.116.518.154.429.083.8-.2,1.139-.282Zm-.828,1c-.492.356-.612.04-.983.154a5.151,5.151,0,0,0-.518.36l-.388-.128c-.168.6-1.025.751-1.5,1.053-.906.573-2.352,2.886-1.889,4.338.1.314-.261.711-.052.95.3.107.449-.139.647-.205a1.8,1.8,0,0,1,1.372.436c.576.64.527,2.144.31,3.158a14.434,14.434,0,0,1-2.019,5.006,8.948,8.948,0,0,1-.958.8h.13c.964-.423,1.337-1.146,2.019-1.823a33.21,33.21,0,0,1,3.313-2.875c.394-.3,1.9-1.62,2.562-1.386.263.093.436.33.7.462v.18a.642.642,0,0,0-.233.334,1.264,1.264,0,0,1,.621,1.027l.078.051c.407-.1.794-.071,1.139-.18.136-.282.3-.62.751-.59a.865.865,0,0,0,.44-.026l.906-.745a5.631,5.631,0,0,0,1.242-2.387v-1.72l.259-.513c-.375-.227-.112-.537-.311-.95l-.414-.359c-.257-.385-.352-.859-.6-1.232C97.283,154.755,95.465,153.632,92,153.632ZM78.755,172.21l.308.33Z" transform="translate(787.977 145.37)" fill="url(#linear-gradient)"/>
  </g>
</svg>
