<svg xmlns="http://www.w3.org/2000/svg" xmlns:xlink="http://www.w3.org/1999/xlink" width="271.776" height="293.068" viewBox="0 0 271.776 293.068">
  <defs>
    <linearGradient id="linear-gradient" x1="0.5" x2="0.5" y2="1" gradientUnits="objectBoundingBox">
      <stop offset="0" stop-color="#8c37f6"/>
      <stop offset="1" stop-color="#1431fb"/>
    </linearGradient>
  </defs>
  <g id="Music-rafiki" transform="translate(-21.43)">
    <g id="freepik--background-simple--inject-48" transform="translate(27.478 0)">
      <path id="Path_1895" data-name="Path 1895" d="M113.209,261.11c23.954,29.736,60.141,37.9,87.654,13.158,32.321-31.57,38.731-82.6,86.308-96.881,73.357-11.919,46.71-87.828,25.11-98.921C266.728,51.605,161.951,127.118,138.6,146.487,90.668,184.714,79.12,218.216,113.209,261.11Z" transform="translate(-93.6 -72.753)" fill="url(#linear-gradient)"/>
      <path id="Path_1896" data-name="Path 1896" d="M113.209,261.11c23.954,29.736,60.141,37.9,87.654,13.158,32.321-31.57,38.731-82.6,86.308-96.881,73.357-11.919,46.71-87.828,25.11-98.921C266.728,51.605,161.951,127.118,138.6,146.487,90.668,184.714,79.12,218.216,113.209,261.11Z" transform="translate(-93.6 -72.753)" fill="#fff" opacity="0.9"/>
    </g>
    <g id="freepik--Shadow--inject-48" transform="translate(38.372 274.368)">
      <ellipse id="freepik--path--inject-48" cx="118.292" cy="9.35" rx="118.292" ry="9.35" fill="#f5f5f5"/>
    </g>
    <g id="freepik--musical-notes--inject-48" transform="translate(21.43 17.55)">
      <g id="Group_88" data-name="Group 88" transform="translate(0 13.986)" opacity="0.4">
        <path id="Path_1897" data-name="Path 1897" d="M133.237,163.488a90.859,90.859,0,0,1-46.8-12.646.33.33,0,0,1-.116-.446.322.322,0,0,1,.446-.116c45.05,26.283,90.909,6.121,135.273-13.373,42.869-18.841,87.208-38.31,130.879-16.008a.323.323,0,1,1-.289.578c-43.406-22.137-87.555-2.709-130.334,16.066C193.056,150.355,163.163,163.488,133.237,163.488Z" transform="translate(-86.277 -110.933)" fill="#263238"/>
        <path id="Path_1898" data-name="Path 1898" d="M133.5,179.124A90.627,90.627,0,0,1,87.965,167.18a.322.322,0,0,1-.124-.438.33.33,0,0,1,.446-.124c44.6,25.209,90.033,5.237,134.034-14.083,43.282-19,88.043-38.69,132.159-15.4a.33.33,0,0,1-.306.578c-43.778-23.128-88.381-3.535-131.564,15.421C193.321,165.982,163.42,179.124,133.5,179.124Z" transform="translate(-86.543 -113.65)" fill="#263238"/>
        <path id="Path_1899" data-name="Path 1899" d="M133.752,194.754A90.612,90.612,0,0,1,89.445,183.5a.33.33,0,0,1-.124-.446.314.314,0,0,1,.438-.124c44.224,24.16,89.249,4.37,132.8-14.769,43.7-19.2,88.877-39.053,133.373-14.736a.33.33,0,0,1,.132.438.322.322,0,0,1-.438.132c-44.224-24.16-89.257-4.378-132.8,14.76C193.578,181.612,163.669,194.754,133.752,194.754Z" transform="translate(-86.8 -116.369)" fill="#263238"/>
        <path id="Path_1900" data-name="Path 1900" d="M134.006,210.384A90.471,90.471,0,0,1,90.963,199.8a.339.339,0,0,1-.14-.446.33.33,0,0,1,.446-.132c43.778,23.128,88.423,3.535,131.564-15.43,44.092-19.378,89.695-39.416,134.637-14.042a.322.322,0,0,1,.124.438.33.33,0,0,1-.446.124c-44.6-25.209-90.083-5.237-134.034,14.042C193.849,197.243,163.931,210.384,134.006,210.384Z" transform="translate(-87.062 -119.09)" fill="#263238"/>
        <path id="Path_1901" data-name="Path 1901" d="M134.265,226.03a90.438,90.438,0,0,1-41.812-9.912.33.33,0,0,1-.14-.438.322.322,0,0,1,.438-.14c43.4,22.128,87.555,2.709,130.334-16.074,44.5-19.551,90.521-39.78,135.851-13.332a.322.322,0,0,1,.116.446.314.314,0,0,1-.438.116c-45.05-26.316-90.917-6.178-135.232,13.332C194.108,212.88,164.183,226.03,134.265,226.03Z" transform="translate(-87.322 -121.817)" fill="#263238"/>
      </g>
      <path id="Path_1902" data-name="Path 1902" d="M123.33,200.432a5.187,5.187,0,0,0-2.032-2.965,4.9,4.9,0,0,1-2.057-3.56l.173-.479a.325.325,0,1,0-.611-.223L112.146,212a3.7,3.7,0,0,0-.884-1.214,6.715,6.715,0,0,0-3.3-1.586c-2.751-.537-5.27.487-5.617,2.28-.306,1.545,1.1,3.164,3.246,3.932a7.667,7.667,0,0,0,1.1.3,6.682,6.682,0,0,0,3.643-.231,2.883,2.883,0,0,0,1.958-2h0l4.675-13.142a5.187,5.187,0,0,0,2.048,3.048,4.956,4.956,0,0,1,2.09,3.783.248.248,0,0,0,.157.2h.058a.231.231,0,0,0,.256-.157l1.652-4.642A3.51,3.51,0,0,0,123.33,200.432Z" transform="translate(-89.065 -111.225)" fill="#263238"/>
      <path id="Path_1903" data-name="Path 1903" d="M349.035,157.314a5.163,5.163,0,0,0-3.411-1.206,4.956,4.956,0,0,1-3.775-1.652l-.149-.5a.327.327,0,1,0-.628.182l5.691,19.2a3.732,3.732,0,0,0-1.437-.471,6.691,6.691,0,0,0-3.61.661c-2.552,1.189-4,3.51-3.221,5.179.669,1.437,2.775,1.925,4.956,1.272a8.027,8.027,0,0,0,1.066-.4,6.691,6.691,0,0,0,2.825-2.346,2.916,2.916,0,0,0,.413-2.792h0l-3.99-13.455a5.229,5.229,0,0,0,3.477,1.264,5.005,5.005,0,0,1,3.932,1.842.256.256,0,0,0,.248.066h.058a.248.248,0,0,0,.116-.281l-1.412-4.749A3.452,3.452,0,0,0,349.035,157.314Z" transform="translate(-130.128 -104.393)" fill="#263238"/>
      <path id="Path_1904" data-name="Path 1904" d="M192.531,195.408a6.36,6.36,0,0,1,3.7,4.072.289.289,0,0,0,.256.2.115.115,0,0,0,.074,0,.314.314,0,0,0,.273-.273l.438-4.006a4.485,4.485,0,0,0-.5-2.627,6.608,6.608,0,0,0-3.395-3.081,6.261,6.261,0,0,1-3.593-3.816l.066-.653a.411.411,0,1,0-.818-.083l-2.751,25.218a4.692,4.692,0,0,0-1.445-1.239,8.524,8.524,0,0,0-4.551-1.008,8.615,8.615,0,0,0-4.452,1.363,3.3,3.3,0,0,0,.248,6.088,7.806,7.806,0,0,0,3.073.95,8.666,8.666,0,0,0,1.47.05c3.535-.14,6.335-2.115,6.294-4.419h0l1.173-10.787a6.691,6.691,0,0,0,3.444,3.18,6.3,6.3,0,0,1,3.7,4.072.347.347,0,0,0,.264.2h.074a.3.3,0,0,0,.264-.281l.438-4a4.378,4.378,0,0,0-.5-2.635,6.608,6.608,0,0,0-3.395-3.081A6.236,6.236,0,0,1,188.781,195l.306-2.767A6.608,6.608,0,0,0,192.531,195.408Z" transform="translate(-101.529 -109.794)" fill="#263238"/>
      <path id="Path_1905" data-name="Path 1905" d="M163.592,179.11h0l.686-14.315.256-5.336v-.306l-14.579-.694v.3L149.7,164.1l-.62,13.092a5.245,5.245,0,0,0-4.452-1.379c-2.577.264-4.535,1.85-4.37,3.535.149,1.446,1.825,2.478,3.94,2.61a6.416,6.416,0,0,0,1.049,0c2.561-.256,4.5-1.809,4.37-3.477h0l.586-12.3,13.389.636-.52,11.06a3.428,3.428,0,0,0-1.107-.826,6.228,6.228,0,0,0-3.345-.529c-2.577.264-4.535,1.842-4.37,3.527.149,1.454,1.825,2.478,3.94,2.618a6.421,6.421,0,0,0,1.049,0C161.775,182.339,163.724,180.778,163.592,179.11Zm-13.373-13.555.066-1.429,13.389.644-.066,1.421Z" transform="translate(-95.669 -105.216)" fill="#263238"/>
      <path id="Path_1906" data-name="Path 1906" d="M400.858,146.445h0l1.4-11.481.52-4.279v-.24L391.094,129v.248l-.529,4.279-1.288,10.507a4.213,4.213,0,0,0-3.5-1.371c-2.09.05-3.758,1.214-3.725,2.577,0,1.173,1.322,2.131,3.015,2.338a5.65,5.65,0,0,0,.826,0c2.073-.058,3.733-1.2,3.725-2.544h0l1.206-9.862,10.738,1.313-1.082,8.871a2.668,2.668,0,0,0-.826-.743,4.956,4.956,0,0,0-2.651-.619c-2.1.058-3.767,1.214-3.734,2.577,0,1.173,1.322,2.131,3.015,2.338a5.7,5.7,0,0,0,.826,0C399.206,148.931,400.858,147.791,400.858,146.445ZM390.9,134.732l.132-1.14,10.738,1.313-.132,1.14Z" transform="translate(-137.744 -100.09)" fill="#263238"/>
      <path id="Path_1907" data-name="Path 1907" d="M347.66,113.948h0l-6.98-14.339-2.6-5.352L337.922,94l-14.612,7.112.14.3,2.61,5.352,6.377,13.117a5.8,5.8,0,0,0-5.072,1.032c-2.387,1.652-3.453,4.221-2.387,5.782.917,1.338,3.122,1.479,5.237.454a7.076,7.076,0,0,0,1.016-.595c2.354-1.611,3.42-4.13,2.4-5.732h0l-6.98-14.339,13.422-6.534L346.463,113a5.817,5.817,0,0,0-5.08,1.032,6.979,6.979,0,0,0-2.478,2.85,2.7,2.7,0,0,0,2.792,4.064,6.318,6.318,0,0,0,2.478-.677,8.116,8.116,0,0,0,1.033-.595C347.611,118.069,348.66,115.476,347.66,113.948Z" transform="translate(-127.522 -94)" fill="#263238"/>
    </g>
    <g id="freepik--Character--inject-48" transform="translate(83.506 21.472)">
      <path id="Path_1908" data-name="Path 1908" d="M288.86,193.884a19.529,19.529,0,0,1-2.164-.083c-5.005-.4-9.408-2.965-13.1-7.624-11.093-14.042-12.431-42.39-11.341-49.477l.446.066c-1.082,7.046.24,35.22,11.25,49.13,3.61,4.56,7.9,7.062,12.778,7.434,7.558.6,13.034-1.958,15.834-7.393,4.419-8.582,1.049-23.053-7.855-33.659-2.858-3.4-3.824-7.087-2.652-10.1a6.493,6.493,0,0,1,5.27-4.13c3.2-.43,6.534,1.338,9.086,4.84l-.364.264c-2.478-3.362-5.641-5.063-8.689-4.659a6.038,6.038,0,0,0-4.906,3.841c-1.115,2.866-.173,6.385,2.577,9.656,9.16,10.911,12.481,25.275,7.9,34.155C301.1,189.811,297.161,193.884,288.86,193.884Z" transform="translate(-178.92 -105.352)" fill="url(#linear-gradient)"/>
      <path id="Path_1909" data-name="Path 1909" d="M238.946,101.577c-5.782,2.742-13.522,4.733-11.068,15.124s-4.08,13.464.826,17.519,22.046,3.684,28.637,1.132c7.434-2.883,16.033-12.621,7.649-17.6-6.542-3.882-9.383-8.9-10.333-11.96C252.716,99.554,246.033,96.027,238.946,101.577Z" transform="translate(-172.809 -98.76)" fill="#263238"/>
      <path id="Path_1910" data-name="Path 1910" d="M273.822,117.335c-6.368-1.3-12.753-3.659-16.272-12.06-1.412-3.37-3.651-5.493-6.319-5.972-3.015-.537-6.393.991-9.491,4.312l-.33-.314c3.2-3.428,6.715-5.014,9.912-4.436,2.825.5,5.187,2.718,6.658,6.236,3.436,8.2,9.7,10.515,15.95,11.787Z" transform="translate(-175.347 -98.749)" fill="#263238"/>
      <path id="Path_1911" data-name="Path 1911" d="M276.479,158.258l.306.322.4.413c.289.273.57.562.884.826.6.562,1.256,1.1,1.916,1.652a48.32,48.32,0,0,0,4.13,3.023c1.454.95,2.974,1.817,4.5,2.668.826.4,1.553.826,2.354,1.206l1.85.884a1.173,1.173,0,0,0,.826,0,5.568,5.568,0,0,0,1.561-.876,19.939,19.939,0,0,0,3.378-3.436,70.84,70.84,0,0,0,5.873-8.921l3.461,1.412a48.414,48.414,0,0,1-4.716,10.738,23.483,23.483,0,0,1-3.923,4.956,11.843,11.843,0,0,1-3.122,2.131,7.8,7.8,0,0,1-4.659.628,7.439,7.439,0,0,1-1.206-.322l-.76-.281-1.371-.529c-.925-.347-1.817-.768-2.718-1.156a54.226,54.226,0,0,1-5.262-2.775,51.859,51.859,0,0,1-4.956-3.395c-.826-.636-1.569-1.289-2.329-2-.38-.347-.76-.719-1.132-1.1l-.553-.595c-.2-.223-.347-.388-.628-.727Z" transform="translate(-180.425 -108.714)" fill="#ffb573"/>
      <path id="Path_1912" data-name="Path 1912" d="M269.04,150.362c3.056-.743,10.821,9.3,10.821,9.3l-4.716,8.979s-13.042-7.36-12.547-11.415C263.109,153,264.579,151.452,269.04,150.362Z" transform="translate(-179.032 -107.723)" fill="url(#linear-gradient)"/>
      <path id="Path_1913" data-name="Path 1913" d="M269.04,150.362c3.056-.743,10.821,9.3,10.821,9.3l-4.716,8.979s-13.042-7.36-12.547-11.415C263.109,153,264.579,151.452,269.04,150.362Z" transform="translate(-179.032 -107.723)" fill="#fff" opacity="0.2"/>
      <path id="Path_1914" data-name="Path 1914" d="M272.683,154.58l-.743,11.754c2.594,1.776,4.832,3.048,4.832,3.048l.983-1.883Z" transform="translate(-180.66 -108.464)" opacity="0.2"/>
      <path id="Path_1915" data-name="Path 1915" d="M310.8,156.678l2.841-7.888,4.039,6.327s-2.263,4.13-5.336,4.13Z" transform="translate(-187.422 -107.456)" fill="#ffb573"/>
      <path id="Path_1916" data-name="Path 1916" d="M318.345,144.37,322.5,149.1l-4.221,5.237-4.039-6.319Z" transform="translate(-188.02 -106.687)" fill="#ffb573"/>
      <path id="Path_1917" data-name="Path 1917" d="M262.21,398.888l7.36.289,1.313-17.1-7.36-.289Z" transform="translate(-178.967 -148)" fill="#ffb573"/>
      <path id="Path_1918" data-name="Path 1918" d="M175.114,279.97l-1.454,7.236,16.305,5.691,1.445-7.244Z" transform="translate(-163.558 -130.282)" fill="#ffb573"/>
      <path id="Path_1919" data-name="Path 1919" d="M172.788,287.52l2.808-7.806a.578.578,0,0,0-.273-.727l-5.848-3.114a1.181,1.181,0,0,0-1.652.669c-.942,2.734-1.255,4.13-2.478,7.533-.768,2.115-2.635,6.038-3.684,8.946s1.776,4.13,2.478,3c3.139-5.022,5.6-6.22,7.8-7.492a1.991,1.991,0,0,0,.851-1.008Z" transform="translate(-161.43 -129.547)" fill="#263238"/>
      <path id="Path_1920" data-name="Path 1920" d="M269.008,401.833l-7.987-2.238a.578.578,0,0,0-.7.33l-2.685,6.063a1.2,1.2,0,0,0,.826,1.586c2.792.727,4.18.942,7.7,1.925,2.156.6,8.475,3.453,11.564,3.7s3.494-2.8,2.23-3.18a17.527,17.527,0,0,1-9.846-7.434A1.917,1.917,0,0,0,269.008,401.833Z" transform="translate(-178.157 -151.093)" fill="#263238"/>
      <g id="Group_89" data-name="Group 89" transform="translate(17.998 152.438)" opacity="0.2">
        <path id="Path_1921" data-name="Path 1921" d="M271.017,382.081l-.677,8.813-7.36-.281.669-8.813Z" transform="translate(-197.099 -300.44)"/>
        <path id="Path_1922" data-name="Path 1922" d="M193.074,286.232l-1.454,7.244-8.4-2.941,1.454-7.236Z" transform="translate(-183.22 -283.3)"/>
      </g>
      <path id="Path_1923" data-name="Path 1923" d="M266.9,152.651c.71,4.18,1.4,14.719-1.652,39.268l-29.926,1.85c-.231-11.473-.826-20.724-7.046-42.952a3.808,3.808,0,0,1,3.428-4.84c2.28-.132,5.146-.223,8.07-.1a100.154,100.154,0,0,1,13.769,1.256c3.882.694,8.136,1.768,10.606,2.437A3.816,3.816,0,0,1,266.9,152.651Z" transform="translate(-173.037 -106.939)" fill="url(#linear-gradient)"/>
      <path id="Path_1924" data-name="Path 1924" d="M266.9,152.651c.71,4.18,1.4,14.719-1.652,39.268l-29.926,1.85c-.231-11.473-.826-20.724-7.046-42.952a3.808,3.808,0,0,1,3.428-4.84c2.28-.132,5.146-.223,8.07-.1a100.154,100.154,0,0,1,13.769,1.256c3.882.694,8.136,1.768,10.606,2.437A3.816,3.816,0,0,1,266.9,152.651Z" transform="translate(-173.037 -106.939)" fill="#fff" opacity="0.2"/>
      <path id="Path_1925" data-name="Path 1925" d="M268.391,201.63s9.326,56.415,10.226,78.915c.942,23.409-9.582,76.636-9.582,76.636h-9.953s3.643-50.815,1.346-73.72c-2.478-24.97-13.918-80.477-13.918-80.477Z" transform="translate(-176.235 -116.651)" fill="url(#linear-gradient)"/>
      <path id="Path_1926" data-name="Path 1926" d="M260.565,389.506h11.721l.859-3.742-13.125-.454Z" transform="translate(-178.586 -148.612)" fill="#263238"/>
      <path id="Path_1927" data-name="Path 1927" d="M257.167,219c8.26,14.331,4.056,41.671,2.073,51.872-2.263-14.992-5.65-33.279-8.26-46.7C251.649,216.448,253.359,212.393,257.167,219Z" transform="translate(-177.013 -119.096)" opacity="0.2"/>
      <path id="Path_1928" data-name="Path 1928" d="M249.793,202.23s-.215,59.472-9.317,76.917c-10.812,20.65-55.656-.628-55.656-.628l1.982-9.912s29.736,6.7,37.508,1.156c8.359-25.9-7-47.908,3.453-66.212Z" transform="translate(-165.5 -116.755)" fill="url(#linear-gradient)"/>
      <path id="Path_1929" data-name="Path 1929" d="M186.9,281.21l-2.453,12.241,3.585,2.081,3.535-14.281Z" transform="translate(-165.436 -130.498)" fill="#263238"/>
      <path id="Path_1930" data-name="Path 1930" d="M233.785,157.489c-1.346,3.676-2.7,7.434-3.99,11.184s-2.478,7.508-3.527,11.258l-.19.7-.091.355c0,.116-.074.273-.058.182v-.388a1.779,1.779,0,0,0,0-.206,2.25,2.25,0,0,0-.083-.38,1.3,1.3,0,0,0-.074-.19,1.783,1.783,0,0,0-.124-.273,2.849,2.849,0,0,0-.363-.545,2.478,2.478,0,0,0-.57-.529,2.789,2.789,0,0,0-.611-.339,3.64,3.64,0,0,0-.529-.157,3.293,3.293,0,0,0-.4-.083,2.088,2.088,0,0,0-.636.074c-.149.058-.05.041.066,0a4.778,4.778,0,0,0,.438-.206c.33-.182.7-.4,1.074-.653,1.512-1,3.1-2.2,4.642-3.4,3.106-2.428,6.228-4.956,9.359-7.475l2.651,2.635a115.839,115.839,0,0,1-8.186,9.152,59.116,59.116,0,0,1-4.683,4.279c-.438.347-.892.694-1.412,1.049-.273.173-.545.355-.884.537a6.212,6.212,0,0,1-1.322.562,4.492,4.492,0,0,1-1.388.173,3.6,3.6,0,0,1-.6-.066,3.225,3.225,0,0,1-.71-.206,3.9,3.9,0,0,1-1.487-1.082,3.872,3.872,0,0,1-.463-.71c-.058-.116-.124-.264-.157-.355l-.1-.281a4.946,4.946,0,0,1-.124-.562,3.225,3.225,0,0,1,0-.4,4.223,4.223,0,0,1,0-.653v-.487c.05-.339.074-.421.1-.553l.074-.38.157-.768a118.76,118.76,0,0,1,3.139-11.969c1.214-3.915,2.519-7.748,4.056-11.605Z" transform="translate(-171.489 -108.49)" fill="#ffb573"/>
      <path id="Path_1931" data-name="Path 1931" d="M228.306,146.415c-2.941,1.1-5.906,11.646-5.906,11.646l12.15,7.6s3.866-10.176,2.362-13.976C235.352,147.728,231.668,145.192,228.306,146.415Z" transform="translate(-172.039 -106.989)" fill="url(#linear-gradient)"/>
      <path id="Path_1932" data-name="Path 1932" d="M228.306,146.415c-2.941,1.1-5.906,11.646-5.906,11.646l12.15,7.6s3.866-10.176,2.362-13.976C235.352,147.728,231.668,145.192,228.306,146.415Z" transform="translate(-172.039 -106.989)" fill="#fff" opacity="0.2"/>
      <path id="Path_1933" data-name="Path 1933" d="M172.479,293.328v.091a1,1,0,0,0,.776.586.6.6,0,0,0,.578-.165c.661-.669.058-3.3,0-3.568a.165.165,0,0,0-.14-.132.182.182,0,0,0-.174.074C173.015,291.04,172.206,292.5,172.479,293.328Zm1.123-2.561c.215,1.049.363,2.478,0,2.833a.264.264,0,0,1-.264.058.669.669,0,0,1-.52-.38,3.488,3.488,0,0,1,.785-2.486Z" transform="translate(-163.343 -132.052)" fill="url(#linear-gradient)"/>
      <path id="Path_1934" data-name="Path 1934" d="M173.8,290.641c.273.875,1.2,2.346,1.949,2.478a.619.619,0,0,0,.661-.388.908.908,0,0,0,0-.776c-.4-1-2.4-1.726-2.478-1.759a.165.165,0,0,0-.173,0,.2.2,0,0,0-.058.165A2.485,2.485,0,0,0,173.8,290.641Zm2.338,1.478a.545.545,0,0,1-.041.438c-.1.2-.206.207-.289.2-.512-.074-1.355-1.272-1.652-2.123.653.281,1.718.826,1.958,1.437A.115.115,0,0,0,176.136,292.119Z" transform="translate(-163.565 -132.057)" fill="url(#linear-gradient)"/>
      <path id="Path_1935" data-name="Path 1935" d="M273.753,404.393a2.8,2.8,0,0,0,1.85.05.975.975,0,0,0,.529-.735.562.562,0,0,0-.157-.529c-.735-.727-3.981-.074-4.345,0a.19.19,0,0,0-.141.149.174.174,0,0,0,.1.173,12.771,12.771,0,0,0,2.164.892Zm1.652-1.115a.629.629,0,0,1,.3.149.223.223,0,0,1,.066.215.661.661,0,0,1-.347.487c-.537.264-1.726,0-3.23-.7a9.559,9.559,0,0,1,3.238-.149Z" transform="translate(-180.581 -151.662)" fill="url(#linear-gradient)"/>
      <path id="Path_1936" data-name="Path 1936" d="M271.62,403.078h.066c.958-.141,3.064-1.206,3.155-2.048a.645.645,0,0,0-.5-.653,1.247,1.247,0,0,0-1.016,0c-1.1.487-1.8,2.362-1.834,2.437a.19.19,0,0,0,0,.173A.174.174,0,0,0,271.62,403.078Zm2.478-2.412h.107c.3.124.281.248.273.289-.05.512-1.528,1.4-2.536,1.652a3.965,3.965,0,0,1,1.52-1.941.9.9,0,0,1,.652,0Z" transform="translate(-180.579 -151.215)" fill="url(#linear-gradient)"/>
      <path id="Path_1937" data-name="Path 1937" d="M236.009,201.332l-.6,2.726c-.091.215.165.413.512.388l30.8-1.9c.273,0,.487-.165.5-.33l.107-2.7c0-.182-.24-.33-.537-.306l-30.306,1.867A.537.537,0,0,0,236.009,201.332Z" transform="translate(-174.299 -116.229)" fill="#fff"/>
      <path id="Path_1938" data-name="Path 1938" d="M241.087,204.762l-.826.05c-.157,0-.289-.066-.281-.165l.165-3.51c0-.1.14-.19.306-.2l.826-.058c.157,0,.289.066.281.173l-.165,3.5C241.384,204.655,241.244,204.754,241.087,204.762Z" transform="translate(-175.098 -116.52)" fill="url(#linear-gradient)"/>
      <path id="Path_1939" data-name="Path 1939" d="M270.347,202.954l-.826.05c-.157,0-.289-.066-.281-.165l.165-3.5c0-.107.14-.2.3-.206l.826-.05c.157,0,.289.066.281.165l-.165,3.5C270.644,202.855,270.512,202.946,270.347,202.954Z" transform="translate(-180.19 -116.207)" fill="url(#linear-gradient)"/>
      <path id="Path_1940" data-name="Path 1940" d="M255.765,203.854l-.826.058c-.165,0-.289-.066-.289-.173l.165-3.5c0-.107.14-.2.306-.206l.826-.05c.165,0,.289.066.289.165l-.165,3.511A.4.4,0,0,1,255.765,203.854Z" transform="translate(-177.651 -116.364)" fill="url(#linear-gradient)"/>
      <path id="Path_1941" data-name="Path 1941" d="M240.975,145.979a100.179,100.179,0,0,1,13.769,1.247c1.652.289,3.387.661,5.014,1.033h0c.867,2.684,1.47,8.169-.95,12.7A6.856,6.856,0,0,0,255,157.089a11.565,11.565,0,0,0-3.007,4.568c-3.213-.578-11.861-8.086-15.81-14.133l-1.024-1.561A47.185,47.185,0,0,1,240.975,145.979Z" transform="translate(-174.26 -106.95)" fill="#fff"/>
      <path id="Path_1942" data-name="Path 1942" d="M242.621,127.63c1.14,4.436,2.478,12.5-.421,15.124,0,0,1.487,4.535,9.714,5.278,9.086.826,4.056-4.023,4.056-4.023-5.014-1.652-5.1-5.2-4.452-8.516Z" transform="translate(-175.485 -103.774)" fill="#ffb573"/>
      <path id="Path_1943" data-name="Path 1943" d="M241.834,145.99a97.544,97.544,0,0,1,13.761,1.247l.9.165c1.231,2.148,1.6,4.584-.752,8.962,0,0-12.266-5.129-15.694-10.424Z" transform="translate(-175.111 -106.96)" fill="#ffb573"/>
      <path id="Path_1944" data-name="Path 1944" d="M247.017,131.52l5.262,4.65a12.792,12.792,0,0,0-.273,2.362c-1.908-.438-5.047-2.329-5.369-4.3A6.758,6.758,0,0,1,247.017,131.52Z" transform="translate(-176.254 -104.451)" opacity="0.2"/>
      <path id="Path_1945" data-name="Path 1945" d="M235.493,118.271c2.618,6.848,3.577,9.8,8.26,12.283,7,3.725,14.868-.983,14.314-8.466-.463-6.74-4.659-16.8-12.39-17.445a9.995,9.995,0,0,0-10.185,13.629Z" transform="translate(-174.196 -99.767)" fill="#ffb573"/>
      <path id="Path_1946" data-name="Path 1946" d="M248.511,121.264l-.611-.066a3.568,3.568,0,0,1,1.206-2.048,1.09,1.09,0,0,1,1.859.553l-.586.19a.6.6,0,0,0-.347-.438.644.644,0,0,0-.545.173,3.023,3.023,0,0,0-.975,1.635Z" transform="translate(-176.477 -102.24)" fill="#263238"/>
      <path id="Path_1947" data-name="Path 1947" d="M257,117.6a1.181,1.181,0,0,1,1.148-1.412,1.553,1.553,0,0,1,1.528.876l-.537.3a.95.95,0,0,0-.942-.562.685.685,0,0,0-.479.215.653.653,0,0,0-.107.512Z" transform="translate(-178.055 -101.783)" fill="#263238"/>
      <path id="Path_1948" data-name="Path 1948" d="M255.59,118.73a15.8,15.8,0,0,0,3.164,3,2.585,2.585,0,0,1-1.908,1.016Z" transform="translate(-177.815 -102.226)" fill="#ed893e"/>
      <path id="Path_1949" data-name="Path 1949" d="M253.4,127.21a5.163,5.163,0,0,0,.826-.206.165.165,0,0,0,.107-.215.182.182,0,0,0-.215-.116,4.675,4.675,0,0,1-4.221-.611.176.176,0,0,0-.223.273A4.956,4.956,0,0,0,253.4,127.21Z" transform="translate(-176.775 -103.494)" fill="#263238"/>
      <path id="Path_1950" data-name="Path 1950" d="M235.313,127.863a5.394,5.394,0,0,0,3.56,2.024c1.867.215,2.478-1.52,1.743-3.131-.686-1.445-2.478-3.3-4.237-2.775a2.4,2.4,0,0,0-1.066,3.882Z" transform="translate(-174.181 -103.123)" fill="#ffb573"/>
      <path id="Path_1951" data-name="Path 1951" d="M246.544,104.37c5.4,3.99-1.412,4.5-4.832,7.434-3.3,2.817-.752,7.434-6.352,9.284a21.9,21.9,0,0,1-5.22.6s2.594-5.072,1.768-8.12S240.358,99.736,246.544,104.37Z" transform="translate(-173.386 -99.528)" fill="#263238"/>
      <path id="Path_1952" data-name="Path 1952" d="M248.794,103.359c1.148,2.478,4.006,1.974,6.294,4.5,1.4,1.545,3.676-3.667.058-5.468S246.993,99.477,248.794,103.359Z" transform="translate(-176.561 -99.096)" fill="#263238"/>
      <path id="Path_1953" data-name="Path 1953" d="M239.8,125.416c.768,2.916.438,5.534-2.478,6.3a5.468,5.468,0,0,1-2.767-10.581C237.467,120.377,239.036,122.492,239.8,125.416Z" transform="translate(-173.444 -102.617)" fill="url(#linear-gradient)"/>
      <path id="Path_1954" data-name="Path 1954" d="M240.3,101.84l-3.577,1.735c-6.93,5.625-2.965,15.933-2.965,15.933l2.7-1.231S233.374,107.457,240.3,101.84Z" transform="translate(-173.82 -99.287)" fill="url(#linear-gradient)"/>
      <path id="Path_1955" data-name="Path 1955" d="M233.718,119.686h-.091a.232.232,0,0,1-.124-.124c-.041-.107-3.94-10.531,3.031-16.189l3.626-1.768a.223.223,0,0,1,.289.083.231.231,0,0,1-.041.3c-6.74,5.468-3.8,16.09-3.767,16.2a.248.248,0,0,1-.124.273l-2.709,1.231ZM239,102.654l-2.222,1.082c-6.121,4.956-3.453,13.885-2.941,15.421l2.313-1.057C235.808,116.721,233.925,108.048,239,102.654Z" transform="translate(-173.776 -99.242)" fill="url(#linear-gradient)"/>
      <path id="Path_1956" data-name="Path 1956" d="M236.812,126.569c.586,2.255.5,4.237-1.239,4.692s-3.626-1.008-4.221-3.263.339-4.46,2.082-4.956S236.242,124.314,236.812,126.569Z" transform="translate(-173.566 -102.961)" fill="#fff" opacity="0.3"/>
      <path id="Path_1957" data-name="Path 1957" d="M244.978,118.112a.339.339,0,0,0,.256-.314,4.021,4.021,0,0,1,1.883-2.734.349.349,0,0,0-.363-.595,4.77,4.77,0,0,0-2.214,3.3.347.347,0,0,0,.322.372Z" transform="translate(-175.892 -101.475)" fill="#263238"/>
      <path id="Path_1958" data-name="Path 1958" d="M258.614,111.627a.339.339,0,0,0,.3-.173.347.347,0,0,0-.124-.479,3.486,3.486,0,0,0-3.188-.215.351.351,0,0,0,.314.628h0a2.742,2.742,0,0,1,2.519.2A.488.488,0,0,0,258.614,111.627Z" transform="translate(-177.783 -100.789)" fill="#263238"/>
      <path id="Path_1959" data-name="Path 1959" d="M240.749,169.138l-1.189-7.888,6.393,3.924s-.223,4.741-2.99,6.055Z" transform="translate(-175.025 -109.624)" fill="#ffb573"/>
      <path id="Path_1960" data-name="Path 1960" d="M241.845,156.42l5.972,2.164-1.834,5.749-6.393-3.923Z" transform="translate(-175.031 -108.784)" fill="#ffb573"/>
      <rect id="Rectangle_52" data-name="Rectangle 52" width="5.633" height="11.415" rx="0.57" transform="translate(123.926 40.223) rotate(-36.93)" fill="url(#linear-gradient)"/>
      <rect id="Rectangle_53" data-name="Rectangle 53" width="4.683" height="6.245" rx="0.46" transform="translate(124.923 40.757) rotate(-36.93)" fill="#fff"/>
      <path id="Path_1961" data-name="Path 1961" d="M317.059,155.662l-.05-1.033,1.049-.619a6.61,6.61,0,0,0,1.462-1.165l.363-.38-.231-.339a1.024,1.024,0,0,0-1.173-.388l-.884.3-4.436.6v1.883l1.421,1.941Z" transform="translate(-187.832 -107.96)" fill="#ffb573"/>
    </g>
  </g>
</svg>
