<svg xmlns="http://www.w3.org/2000/svg" width="427.047" height="185.733" viewBox="0 0 427.047 185.733">
  <g id="musicnotes" opacity="0.6" style="mix-blend-mode: color-burn;isolation: isolate">
    <g id="Group_88" data-name="Group 88" transform="translate(0 21.977)" opacity="0.4">
      <path id="Path_1897" data-name="Path 1897" d="M160.066,193.515a142.769,142.769,0,0,1-73.539-19.871.519.519,0,0,1-.182-.7.506.506,0,0,1,.7-.182c70.787,41.3,142.847,9.617,212.557-21.013,67.361-29.605,137.032-60.2,205.652-25.153a.508.508,0,1,1-.454.909c-68.2-34.784-137.578-4.257-204.8,25.244C254.06,172.878,207.089,193.515,160.066,193.515Z" transform="translate(-86.277 -110.933)" fill="#263238"/>
      <path id="Path_1898" data-name="Path 1898" d="M159.613,209.162a142.405,142.405,0,0,1-71.553-18.768.506.506,0,0,1-.195-.688.519.519,0,0,1,.7-.195c70.087,39.612,141.471,8.229,210.61-22.129,68.01-29.852,138.343-60.794,207.664-24.206a.519.519,0,0,1-.48.909c-68.789-36.341-138.875-5.555-206.73,24.232C253.607,188.513,206.623,209.162,159.613,209.162Z" transform="translate(-85.824 -106.281)" fill="#263238"/>
      <path id="Path_1899" data-name="Path 1899" d="M159.159,224.793A142.38,142.38,0,0,1,89.54,207.115a.519.519,0,0,1-.195-.7.493.493,0,0,1,.688-.195c69.49,37.964,140.238,6.866,208.664-23.206,68.659-30.163,139.654-61.365,209.572-23.155a.519.519,0,0,1,.208.688.506.506,0,0,1-.688.208c-69.49-37.964-140.251-6.879-208.677,23.193C253.166,204.143,206.169,224.793,159.159,224.793Z" transform="translate(-85.383 -101.626)" fill="#263238"/>
      <path id="Path_1900" data-name="Path 1900" d="M158.7,240.422A142.16,142.16,0,0,1,91.063,223.8a.532.532,0,0,1-.221-.7.519.519,0,0,1,.7-.208c68.789,36.341,138.94,5.555,206.73-24.245,69.282-30.449,140.939-61.936,211.558-22.064a.506.506,0,0,1,.195.688.519.519,0,0,1-.7.195c-70.087-39.612-141.549-8.229-210.61,22.064C252.73,219.772,205.72,240.422,158.7,240.422Z" transform="translate(-84.934 -96.968)" fill="#263238"/>
      <path id="Path_1901" data-name="Path 1901" d="M158.253,256.052a142.107,142.107,0,0,1-65.7-15.575.519.519,0,0,1-.221-.688.506.506,0,0,1,.688-.221c68.192,34.771,137.578,4.257,204.8-25.257,69.931-30.721,142.237-62.507,213.466-20.948a.506.506,0,0,1,.182.7.493.493,0,0,1-.688.182c-70.787-41.351-142.86-9.708-212.492,20.948C252.286,235.389,205.263,256.052,158.253,256.052Z" transform="translate(-84.49 -92.299)" fill="#263238"/>
    </g>
    <path id="Path_1902" data-name="Path 1902" d="M135.345,204.684a8.151,8.151,0,0,0-3.193-4.659,7.7,7.7,0,0,1-3.232-5.594l.273-.753a.511.511,0,1,0-.96-.35l-10.461,29.527a5.815,5.815,0,0,0-1.389-1.908,10.552,10.552,0,0,0-5.192-2.492c-4.322-.844-8.281.766-8.826,3.582-.48,2.427,1.726,4.971,5.1,6.178a12.044,12.044,0,0,0,1.726.467,10.5,10.5,0,0,0,5.724-.363,4.53,4.53,0,0,0,3.076-3.141h0l7.346-20.65a8.151,8.151,0,0,0,3.219,4.789,7.788,7.788,0,0,1,3.284,5.944.389.389,0,0,0,.247.311h.091a.363.363,0,0,0,.4-.247l2.6-7.294A5.516,5.516,0,0,0,135.345,204.684Z" transform="translate(-81.505 -64.51)" fill="#263238"/>
    <path id="Path_1903" data-name="Path 1903" d="M355.177,159.364a8.113,8.113,0,0,0-5.36-1.895,7.787,7.787,0,0,1-5.931-2.6l-.234-.779a.513.513,0,1,0-.986.286l8.942,30.176a5.865,5.865,0,0,0-2.258-.74,10.513,10.513,0,0,0-5.672,1.038c-4.01,1.869-6.282,5.516-5.062,8.138,1.051,2.258,4.361,3.024,7.788,2a12.608,12.608,0,0,0,1.674-.636,10.513,10.513,0,0,0,4.439-3.686,4.582,4.582,0,0,0,.649-4.387h0L346.9,165.14a8.216,8.216,0,0,0,5.464,1.986,7.865,7.865,0,0,1,6.178,2.894.4.4,0,0,0,.389.1h.091a.389.389,0,0,0,.182-.441l-2.219-7.463A5.424,5.424,0,0,0,355.177,159.364Z" transform="translate(-11.204 -76.208)" fill="#263238"/>
    <path id="Path_1904" data-name="Path 1904" d="M203.16,201.488a9.994,9.994,0,0,1,5.815,6.4.454.454,0,0,0,.4.311.181.181,0,0,0,.117,0,.493.493,0,0,0,.428-.428l.688-6.295a7.047,7.047,0,0,0-.792-4.127,10.383,10.383,0,0,0-5.334-4.841,9.838,9.838,0,0,1-5.646-6l.1-1.025a.646.646,0,1,0-1.285-.13l-4.322,39.625a7.372,7.372,0,0,0-2.271-1.947,13.394,13.394,0,0,0-7.151-1.583,13.537,13.537,0,0,0-7,2.141,5.192,5.192,0,0,0,.389,9.566,12.265,12.265,0,0,0,4.828,1.493,13.621,13.621,0,0,0,2.31.078c5.555-.221,9.955-3.323,9.89-6.944h0l1.843-16.951a10.513,10.513,0,0,0,5.412,5c2.129,1.038,4.127,2.038,5.815,6.4a.545.545,0,0,0,.415.312h.117a.467.467,0,0,0,.415-.441l.688-6.282a6.879,6.879,0,0,0-.792-4.14,10.383,10.383,0,0,0-5.334-4.841,9.8,9.8,0,0,1-5.646-6l.48-4.348A10.384,10.384,0,0,0,203.16,201.488Z" transform="translate(-60.166 -66.96)" fill="#263238"/>
    <path id="Path_1905" data-name="Path 1905" d="M176.929,190.908h0l1.077-22.493.4-8.384v-.48L155.5,158.46v.467l-.4,8.4-.973,20.572a8.241,8.241,0,0,0-7-2.167c-4.049.415-7.126,2.907-6.866,5.555.234,2.271,2.868,3.894,6.191,4.1a10.079,10.079,0,0,0,1.648,0c4.023-.4,7.074-2.842,6.866-5.464h0l.922-19.326,21.039,1-.818,17.379a5.386,5.386,0,0,0-1.739-1.3,9.786,9.786,0,0,0-5.256-.831c-4.049.415-7.125,2.894-6.866,5.542.234,2.284,2.868,3.894,6.191,4.114a10.091,10.091,0,0,0,1.648,0C174.074,195.982,177.137,193.529,176.929,190.908Zm-21.013-21.3.1-2.245,21.039,1.012-.1,2.232Z" transform="translate(-70.2 -74.797)" fill="#263238"/>
    <path id="Path_1906" data-name="Path 1906" d="M411.6,156.412h0l2.207-18.041.818-6.723v-.376L396.262,129v.389l-.831,6.723-2.025,16.509a6.62,6.62,0,0,0-5.5-2.155c-3.284.078-5.906,1.908-5.854,4.049,0,1.843,2.077,3.349,4.737,3.673a8.872,8.872,0,0,0,1.3,0c3.258-.091,5.866-1.882,5.853-4h0l1.895-15.5,16.873,2.064-1.7,13.939a4.193,4.193,0,0,0-1.3-1.168,7.788,7.788,0,0,0-4.166-.973c-3.3.091-5.919,1.908-5.867,4.049,0,1.843,2.077,3.349,4.737,3.673a8.953,8.953,0,0,0,1.3,0C409.008,160.318,411.6,158.527,411.6,156.412Zm-15.64-18.4.208-1.791,16.873,2.064-.208,1.791Z" transform="translate(1.833 -83.573)" fill="#263238"/>
    <path id="Path_1907" data-name="Path 1907" d="M361.572,125.344h0L350.6,102.813l-4.088-8.41-.247-.4-22.96,11.175.221.467,4.1,8.41,10.02,20.611c-2.116-.818-5.192-.273-7.969,1.622-3.751,2.6-5.425,6.632-3.751,9.085,1.441,2.1,4.906,2.323,8.229.714a11.115,11.115,0,0,0,1.6-.934c3.7-2.531,5.373-6.49,3.777-9.007h0l-10.967-22.532,21.091-10.266,10.033,20.507c-2.116-.818-5.192-.273-7.982,1.622a10.967,10.967,0,0,0-3.894,4.478,4.244,4.244,0,0,0,4.387,6.386,9.928,9.928,0,0,0,3.894-1.064,12.754,12.754,0,0,0,1.622-.934C361.494,131.821,363.143,127.745,361.572,125.344Z" transform="translate(-15.665 -94)" fill="#263238"/>
  </g>
</svg>
