<svg id="Playlist-rafiki" xmlns="http://www.w3.org/2000/svg" xmlns:xlink="http://www.w3.org/1999/xlink" width="268.542" height="252.527" viewBox="0 0 268.542 252.527">
  <defs>
    <linearGradient id="linear-gradient" x1="0.5" x2="0.5" y2="1" gradientUnits="objectBoundingBox">
      <stop offset="0" stop-color="#8c37f6"/>
      <stop offset="1" stop-color="#1431fb"/>
    </linearGradient>
  </defs>
  <g id="freepik--background-simple--inject-141" transform="translate(2.25 0)">
    <path id="Path_1962" data-name="Path 1962" d="M228.409,119.971C208,104.466,189.545,86.011,166.872,74.051S115.2,57.68,93.507,71.336C82.372,78.345,74.29,89.39,68.445,101.184c-5.325,10.734-9,22.479-9.086,34.459-.055,12.4,3.795,24.515,8.885,35.817,10.014,22.236,25.4,42.52,46.045,55.512,11.08,6.994,23.483,11.773,36.011,15.561,39.12,11.877,82.353,14.654,120.3-.547,14.3-5.727,27.8-14.079,37.783-25.8s16.226-27.049,15.235-42.423-9.854-30.47-23.725-37.16c-12.126-5.866-23.615-4.467-36.288-2.77C250.243,135.6,238.665,127.762,228.409,119.971Z" transform="translate(-59.359 -62.905)" fill="url(#linear-gradient)"/>
    <path id="Path_1963" data-name="Path 1963" d="M228.409,119.971C208,104.466,189.545,86.011,166.872,74.051S115.2,57.68,93.507,71.336C82.372,78.345,74.29,89.39,68.445,101.184c-5.325,10.734-9,22.479-9.086,34.459-.055,12.4,3.795,24.515,8.885,35.817,10.014,22.236,25.4,42.52,46.045,55.512,11.08,6.994,23.483,11.773,36.011,15.561,39.12,11.877,82.353,14.654,120.3-.547,14.3-5.727,27.8-14.079,37.783-25.8s16.226-27.049,15.235-42.423-9.854-30.47-23.725-37.16c-12.126-5.866-23.615-4.467-36.288-2.77C250.243,135.6,238.665,127.762,228.409,119.971Z" transform="translate(-59.359 -62.905)" fill="#fff" opacity="0.9"/>
  </g>
  <g id="freepik--Shadow--inject-141" transform="translate(0 236.849)">
    <ellipse id="freepik--shape--inject-141" cx="134.271" cy="7.839" rx="134.271" ry="7.839" fill="#f5f5f5"/>
  </g>
  <g id="freepik--Music--inject-141" transform="translate(0.824 54.282)">
    <path id="Path_1964" data-name="Path 1964" d="M212.817,230.1l-.623.312c-4.848-9.626-14.827-17.077-27.368-20.443-11.683-3.137-23.795-2.6-35.152-1.565-2.625.235-5.3.512-7.888.783-9,.935-18.338,1.9-27.548,1.5-16.461-.692-32.347-6.011-44.709-14.9a70.031,70.031,0,0,1-12.23-11.2l.381-.616a69.705,69.705,0,0,0,12.251,11.26c12.257,8.809,28.005,14.051,44.321,14.764,9.155.4,18.448-.561,27.444-1.5,2.59-.263,5.263-.54,7.895-.783,11.419-1.046,23.608-1.572,35.387,1.586C197.734,212.713,207.873,220.3,212.817,230.1Z" transform="translate(-57.3 -154.411)" fill="url(#linear-gradient)"/>
    <path id="Path_1965" data-name="Path 1965" d="M216.063,220.358l-.623.312c-4.848-9.626-14.827-17.077-27.368-20.443-11.683-3.137-23.795-2.611-35.152-1.572-2.625.242-5.3.519-7.888.783-9,.935-18.338,1.9-27.548,1.5-16.094-.693-32.9-7.618-46.114-18.947a77.353,77.353,0,0,1-7.77-7.618l.312-.505c13.76,15.7,34.487,25.574,53.607,26.412,9.155.4,18.455-.561,27.444-1.5,2.59-.27,5.263-.547,7.895-.79,11.42-1.039,23.608-1.572,35.387,1.593C200.994,203,211.119,210.58,216.063,220.358Z" transform="translate(-59.237 -151.308)" fill="url(#linear-gradient)"/>
    <path id="Path_1966" data-name="Path 1966" d="M218.173,210.4l-.623.312c-4.848-9.626-14.827-17.077-27.368-20.45-11.683-3.158-23.781-2.6-35.152-1.565-2.77.256-5.637.561-8.386.852-8.857.956-18.005,1.932-27.049,1.434-19.979-1.115-37.229-12.465-49.134-27.811l.374-.616c11.773,15.284,28.933,26.627,48.794,27.7,9,.5,18.116-.478,26.939-1.427,2.77-.3,5.6-.6,8.4-.859,11.42-1.039,23.608-1.572,35.387,1.593C203.1,193.007,213.228,200.59,218.173,210.4Z" transform="translate(-61.347 -147.827)" fill="url(#linear-gradient)"/>
    <path id="Path_1967" data-name="Path 1967" d="M221.581,200.558l-.623.312c-4.848-9.626-14.827-17.084-27.368-20.45-11.683-3.137-23.8-2.6-35.152-1.565-2.77.256-5.637.561-8.386.852-8.857.949-18.005,1.932-27.049,1.427-18.005-1-34.875-11.918-46.5-27.853l.381-.63c11.516,15.928,28.241,26.793,46.156,27.8,9,.5,18.109-.478,26.939-1.427,2.77-.3,5.6-.6,8.4-.859,10.872-.99,23.545-1.579,35.387,1.593C206.519,183.169,216.657,190.752,221.581,200.558Z" transform="translate(-63.204 -144.783)" fill="url(#linear-gradient)"/>
    <path id="Path_1968" data-name="Path 1968" d="M225.4,189.1l-.616.312c-4.848-9.626-14.834-17.077-27.375-20.443-11.683-3.137-23.795-2.611-35.145-1.572-2.77.256-5.644.561-8.393.859-8.857.949-18.005,1.932-27.049,1.427-18.49-1.032-33.324-12.23-43.33-27.749l.4-.644c9.889,15.485,24.6,26.676,42.97,27.7,9,.5,18.109-.478,26.939-1.427,2.77-.291,5.6-.6,8.4-.852,10.865-1,23.545-1.586,35.387,1.586C210.323,171.719,220.455,179.3,225.4,189.1Z" transform="translate(-65.353 -141.29)" fill="url(#linear-gradient)"/>
    <path id="Path_1969" data-name="Path 1969" d="M225.487,188.77c0,1.281-1.517,2.32-3.393,2.32s-3.393-1.039-3.393-2.32,1.517-2.32,3.393-2.32S225.487,187.523,225.487,188.77Z" transform="translate(-106.929 -155.176)" fill="#263238"/>
    <path id="Path_1970" data-name="Path 1970" d="M228.022,184.846l-.672-.159,3.123-12.867.568.325Z" transform="translate(-109.588 -150.678)" fill="#263238"/>
    <path id="Path_1971" data-name="Path 1971" d="M237.167,197.433c0,1.281-1.524,2.32-3.393,2.32s-3.393-1.039-3.393-2.32,1.517-2.313,3.393-2.313S237.167,196.152,237.167,197.433Z" transform="translate(-110.52 -157.842)" fill="#263238"/>
    <path id="Path_1972" data-name="Path 1972" d="M239.7,192.837l-.672-.166,3.539-14.39.589.3Z" transform="translate(-113.18 -152.664)" fill="#263238"/>
    <path id="Path_1973" data-name="Path 1973" d="M238.8,183.683l-8.421-4.591.388-1.641,8.428,4.571Z" transform="translate(-110.52 -152.409)" fill="#263238"/>
    <path id="Path_1974" data-name="Path 1974" d="M240.566,176.46l-8.823-4.64-.263,2.32,8.5,4.294Z" transform="translate(-110.858 -150.678)" fill="#263238"/>
    <path id="Path_1975" data-name="Path 1975" d="M129.135,203.379c-.381,1.385-2.285,2.029-4.245,1.482s-3.241-2.078-2.86-3.463,2.278-2.022,4.238-1.475S129.509,202.029,129.135,203.379Z" transform="translate(-77.183 -159.259)" fill="#263238"/>
    <path id="Path_1976" data-name="Path 1976" d="M123.9,180.31l-1.2,15.713-.693-.055.9-11.433.277-3.525a2.52,2.52,0,0,0,.72-.7Z" transform="translate(-77.195 -153.288)" fill="#263238"/>
    <path id="Path_1977" data-name="Path 1977" d="M120.543,180.31l-.693,3.961a3.064,3.064,0,0,1-.325.27,6.233,6.233,0,0,1-2.895,1.122c-.693.111-1.385.159-2.078.325a6.122,6.122,0,0,0-3.463,2.23c.277-1.745.644-3.643,1.981-4.806a8.687,8.687,0,0,1,3.83-1.51,10.188,10.188,0,0,0,2.922-.886,2.521,2.521,0,0,0,.72-.706Z" transform="translate(-73.84 -153.288)" fill="#263238"/>
  </g>
  <g id="freepik--Character--inject-141" transform="translate(15.971 9.802)">
    <path id="Path_1978" data-name="Path 1978" d="M174.264,120.477c-1.115,2.846-3.13,5.284-4.114,8.179-2.015,5.935-3.019,10.9-8.213,15.021-10.215,8.116-21.2,9.7-31.772,1.24a27.264,27.264,0,0,1-7.687-8.954c-2.936-5.907-2.285-14.577,4.217-17.853,3.92-1.974,8.809-1.212,12.673-3.3s5.7-6.309,8.691-9.4a16.9,16.9,0,0,1,10.457-4.764,17.43,17.43,0,0,1,4.12.09,14.931,14.931,0,0,1,5.284,1.787C173.606,105.8,176.791,113.912,174.264,120.477Z" transform="translate(-91.974 -84.287)" fill="#263238"/>
    <path id="Path_1979" data-name="Path 1979" d="M203.745,128.4s15.131-10.609,17.25-12.867,5.54-20.775,5.54-24.044l-1.863-3.947L226.515,82l4.55.893V87.54l-.99,3.677s1.018,16.987-4.044,27.375a8,8,0,0,1-2.112,2.666c-3.726,3.061-15.09,12.292-19.432,14.64C199.209,138.744,203.745,128.4,203.745,128.4Z" transform="translate(-116.919 -78.579)" fill="#ce7a63"/>
    <path id="Path_1980" data-name="Path 1980" d="M161.072,131.727s-9.605-9.093-18.7-19.321c0,0-4.965-14.224-5.589-23.054l2.105-4.716L137.61,77.06l-4.965,1.385L130.2,85.37l1.9,3.927s.457,16.973,5.346,28.739c0,0,11.219,14.875,21.191,21.627C158.634,139.691,164.507,140.487,161.072,131.727Z" transform="translate(-94.863 -77.06)" fill="#ce7a63"/>
    <path id="Path_1981" data-name="Path 1981" d="M183.176,386.635l-2.638,16.717-5.817-1.5,1.5-16.96Z" transform="translate(-108.552 -171.714)" fill="#ce7a63"/>
    <path id="Path_1982" data-name="Path 1982" d="M102.363,267.517l-7.943-9.245,2.632-4.072,10.138,7.14Z" transform="translate(-83.861 -131.529)" fill="#ce7a63"/>
    <path id="Path_1983" data-name="Path 1983" d="M174.136,278.537c-1.385,11.648-6.475,42.153-7.791,49.916-.2,1.163-.3,1.814-.3,1.814l-12.777-1.558.215-1.87,6.011-52.665c-.429-3.691-.789-8.767-1.073-13.732-.492-8.366-.776-16.426-.8-17.07a.042.042,0,0,0,0-.042v.173c0,.464-.048.866-.069,1.184v.367c-.547,8.144-3.414,42.368-13.3,41.281-9.7-1.08-30.325-24.03-35.747-30.242-.852-.976-1.33-1.544-1.33-1.544l4.986-6.863c.693.443,1.385.9,2.078,1.385,11.115,7.618,23.462,19.813,23.462,19.813s1.247-20.879,1.87-35.214,9.321-26.419,9.321-26.419h26.191S175.7,265.137,174.136,278.537Z" transform="translate(-87.781 -117.092)" fill="#263238"/>
    <path id="Path_1984" data-name="Path 1984" d="M171.28,379.6v6.35l14.342,2.458,2.05-6.759Z" transform="translate(-107.494 -170.088)" fill="url(#linear-gradient)"/>
    <path id="Path_1985" data-name="Path 1985" d="M105.2,273.965l8.573-10.485-4.391-3.4-8.539,10.6Z" transform="translate(-85.835 -133.337)" fill="url(#linear-gradient)"/>
    <path id="Path_1986" data-name="Path 1986" d="M173.505,405.93l6.323,1.219a6.475,6.475,0,0,0,4.674,5.062c4.294,1.427,4.951.99,4.848,2.424s-3.885,2.078-6.62.769-9.335-2.2-10.99-2.86S173.505,405.93,173.505,405.93Z" transform="translate(-107.496 -178.184)" fill="#263238"/>
    <path id="Path_1987" data-name="Path 1987" d="M202.816,147.783l-8.539,5.54-2.078,1.343s-2.375,24.813-2.971,31.059H163.045l-2.431-23.691-.873-8.58-6.482-5.54,6.364-10.575,9.612,6.987,12.341.145,14.633-7.133Z" transform="translate(-101.953 -95.595)" fill="url(#linear-gradient)"/>
    <path id="Path_1988" data-name="Path 1988" d="M190.266,122.8c-2.285,3.061-6.925,4.03-6.925,4.03-2.59.055-8.961-.353-9.321-11.253V114.42c.395-9.841,10.228-11.08,10.228-11.08a4.847,4.847,0,0,1,.547.332,14.882,14.882,0,0,1,5.069,5.852C192.51,114.6,192.552,119.725,190.266,122.8Z" transform="translate(-108.337 -85.141)" fill="#ce7a63"/>
    <path id="Path_1989" data-name="Path 1989" d="M186.55,125.53a4.848,4.848,0,0,0,4.155.409" transform="translate(-112.19 -91.964)" fill="none" stroke="#263238" stroke-linecap="round" stroke-linejoin="round" stroke-width="1"/>
    <path id="Path_1990" data-name="Path 1990" d="M183.36,115.3a2.323,2.323,0,0,1,2.4-1.579" transform="translate(-111.209 -88.333)" fill="none" stroke="#263238" stroke-linecap="round" stroke-linejoin="round" stroke-width="1"/>
    <path id="Path_1991" data-name="Path 1991" d="M192.3,110.111a2.521,2.521,0,0,1,2.562-.222" transform="translate(-113.958 -87.078)" fill="none" stroke="#263238" stroke-linecap="round" stroke-linejoin="round" stroke-width="1"/>
    <path id="Path_1992" data-name="Path 1992" d="M186.9,117.47c.215.443.152.914-.145,1.06s-.692-.1-.914-.554-.152-.914.145-1.053S186.687,117.027,186.9,117.47Z" transform="translate(-111.932 -89.305)" fill="#263238"/>
    <path id="Path_1993" data-name="Path 1993" d="M195.038,114.408c.208.443.145.921-.145,1.06s-.693-.1-.921-.547-.145-.914.145-1.06S194.823,113.944,195.038,114.408Z" transform="translate(-114.431 -88.362)" fill="#263238"/>
    <path id="Path_1994" data-name="Path 1994" d="M186.11,116.546l.935-.886S187.273,116.692,186.11,116.546Z" transform="translate(-112.054 -88.929)" fill="#263238"/>
    <path id="Path_1995" data-name="Path 1995" d="M194.11,113.606l.935-.886S195.273,113.78,194.11,113.606Z" transform="translate(-114.514 -88.025)" fill="#263238"/>
    <path id="Path_1996" data-name="Path 1996" d="M192.3,117.48l1.136,3.331a2.542,2.542,0,0,0,1.724-.914Z" transform="translate(-113.958 -89.489)" fill="#ba4d3c"/>
    <path id="Path_1997" data-name="Path 1997" d="M184.811,133.979c-.145.208-.852,4.1.353,5.8a5.81,5.81,0,0,0,3.5,2.078s2.5,6.288-1.281,7.562-9.924-2.541-11.08-7.708c0,0,2.285-.693,1.6-9.37S184.811,133.979,184.811,133.979Z" transform="translate(-109.038 -92.99)" fill="#ce7a63"/>
    <path id="Path_1998" data-name="Path 1998" d="M184.8,103.529c.145,9-10.339,10.651-10.775,10.713a11.87,11.87,0,0,1,9.328-11.482S184.449,103.293,184.8,103.529Z" transform="translate(-108.337 -84.962)" fill="#263238"/>
    <path id="Path_1999" data-name="Path 1999" d="M174.293,121.215c-.831-1.828-3.068-3.573-4.377-2.3-1.821,1.766.519,4.848,2.2,5.09.734.111,1.752.159,2.223-.533a2.341,2.341,0,0,0-.049-2.258Z" transform="translate(-106.872 -89.796)" fill="#ce7a63"/>
    <path id="Path_2000" data-name="Path 2000" d="M165.487,156.12l-1.994,11.669-.873-8.587Z" transform="translate(-104.831 -101.37)" opacity="0.2"/>
    <path id="Path_2001" data-name="Path 2001" d="M211.343,159.126l-2.064,1.343-.519-4.349Z" transform="translate(-119.019 -101.37)" opacity="0.2"/>
    <path id="Path_2002" data-name="Path 2002" d="M193.709,203.81l-.229,2.382h-26.2l-.242-2.382Z" transform="translate(-106.191 -116.034)" fill="#fff" stroke="#fff" stroke-width="1"/>
    <path id="Path_2003" data-name="Path 2003" d="M172.386,206.192H171.8l-.187-2.382h.6Z" transform="translate(-107.596 -116.034)" fill="url(#linear-gradient)"/>
    <path id="Path_2004" data-name="Path 2004" d="M179.248,206.192h-.6l-.062-2.382h.589Z" transform="translate(-109.742 -116.034)" fill="url(#linear-gradient)"/>
    <path id="Path_2005" data-name="Path 2005" d="M187.13,203.81l-.125,2.382h-.6l.125-2.382Z" transform="translate(-112.147 -116.034)" fill="url(#linear-gradient)"/>
    <path id="Path_2006" data-name="Path 2006" d="M194.923,203.81l-.215,2.382h-.589l.215-2.382Z" transform="translate(-114.517 -116.034)" fill="url(#linear-gradient)"/>
    <path id="Path_2007" data-name="Path 2007" d="M201.939,203.81l-.27,2.382h-.589l.263-2.382Z" transform="translate(-116.657 -116.034)" fill="url(#linear-gradient)"/>
    <path id="Path_2008" data-name="Path 2008" d="M91.013,258.345l3.317-5.138s-2.812-5.152-3.788-5.028-10.388,9.28-11.17,11.773c-.589,1.787.215,2.451,1.253,2.424S86.767,257.881,91.013,258.345Z" transform="translate(-79.172 -129.677)" fill="#263238"/>
    <path id="Path_2009" data-name="Path 2009" d="M177.076,100.732h0c-6.586,1.607-7.091,8.733-7.043,11.35v.395a3.662,3.662,0,0,0,.035.561l-1.967.519c-.055-.381-.1-.748-.132-1.108-.693-7.4,2.708-10.554,4.979-11.814A17.43,17.43,0,0,1,177.076,100.732Z" transform="translate(-106.448 -84.285)" fill="url(#linear-gradient)"/>
    <path id="Path_2010" data-name="Path 2010" d="M171.044,125.822a2.715,2.715,0,0,1-.693.159h0c-1.648.152-3.407-1.15-4.155-3.2s-.256-4.335,1.191-5.242a2.667,2.667,0,0,1,.506-.256,2.944,2.944,0,0,1,1-.173,2.459,2.459,0,0,1,.547.062,4.757,4.757,0,0,1,3.338,3.151C173.627,122.685,172.879,125.15,171.044,125.822Z" transform="translate(-105.824 -89.375)" fill="url(#linear-gradient)"/>
    <path id="Path_2011" data-name="Path 2011" d="M170.754,112.167a4.758,4.758,0,0,1,3.338,3.151c.879,2.355.118,4.848-1.7,5.492a2.714,2.714,0,0,1-.693.159c.256-.118,2.417-1.191,1.967-4.709a4.848,4.848,0,0,0-2.9-3.7,5.9,5.9,0,0,0-.561-.208V112.1c.048-1.648.692-10.769,7.618-11.295h0C171.2,102.424,170.7,109.549,170.754,112.167Z" transform="translate(-107.162 -84.363)" fill="#fff"/>
    <path id="Path_2012" data-name="Path 2012" d="M180.816,271.2c-.492-8.365-.776-16.426-.8-17.07a.041.041,0,0,0,0-.042l.789-11.849S182.645,261.166,180.816,271.2Z" transform="translate(-110.182 -127.851)" opacity="0.2"/>
  </g>
  <g id="freepik--Mobile--inject-141" transform="translate(148.314 51.699)">
    <path id="Path_2013" data-name="Path 2013" d="M295.076,137.56h73.967a9.737,9.737,0,0,1,9.7,10.388L366.965,322.9a9.737,9.737,0,0,1-9.7,9.079H283.926a9.737,9.737,0,0,1-9.7-10.353l11.122-174.956A9.737,9.737,0,0,1,295.076,137.56Z" transform="translate(-271.488 -137.56)" fill="url(#linear-gradient)"/>
    <path id="Path_2014" data-name="Path 2014" d="M295.076,137.56h73.967a9.737,9.737,0,0,1,9.7,10.388L366.965,322.9a9.737,9.737,0,0,1-9.7,9.079H283.926a9.737,9.737,0,0,1-9.7-10.353l11.122-174.956A9.737,9.737,0,0,1,295.076,137.56Z" transform="translate(-271.488 -137.56)" opacity="0.2"/>
    <path id="Path_2015" data-name="Path 2015" d="M292.038,137.56h71.883a10.762,10.762,0,0,1,10.734,11.51l-11.6,172.885A10.768,10.768,0,0,1,352.308,332H281.041A10.769,10.769,0,0,1,270.3,320.556l10.99-172.892a10.762,10.762,0,0,1,10.748-10.1Z" transform="translate(-270.279 -137.56)" fill="url(#linear-gradient)"/>
    <path id="Path_2016" data-name="Path 2016" d="M364.811,151.665H343.939A1.946,1.946,0,0,1,342,149.726h0a1.953,1.953,0,0,1,1.946-1.946h20.907a1.953,1.953,0,0,1,1.939,1.946h0a1.946,1.946,0,0,1-1.981,1.939Z" transform="translate(-292.333 -140.703)" opacity="0.2"/>
    <path id="Path_2017" data-name="Path 2017" d="M327.043,149.362a2.722,2.722,0,1,1-2.722-2.722A2.722,2.722,0,0,1,327.043,149.362Z" transform="translate(-286.06 -140.352)" opacity="0.2"/>
    <circle id="Ellipse_19" data-name="Ellipse 19" cx="6.274" cy="6.274" r="6.274" transform="translate(34.349 182.259) rotate(-45)" opacity="0.2"/>
    <path id="Path_2018" data-name="Path 2018" d="M284.54,317.255l74.431.021,11.8-154.748-76.7-.028Z" transform="translate(-274.664 -145.229)" fill="#fff"/>
    <path id="Path_2019" data-name="Path 2019" d="M283.63,317.255h-2.05L290.936,162.5h2.223Z" transform="translate(-273.754 -145.229)" opacity="0.2"/>
    <path id="Path_2020" data-name="Path 2020" d="M356.555,282.964H309.312a5.076,5.076,0,0,1-5.062-5.062h0a5.076,5.076,0,0,1,5.062-5.062h47.243a5.076,5.076,0,0,1,5.062,5.062h0a5.076,5.076,0,0,1-5.062,5.062Z" transform="translate(-280.725 -179.157)" fill="url(#linear-gradient)"/>
    <path id="Path_2021" data-name="Path 2021" d="M364.016,183.418H316.752a5.069,5.069,0,0,1-5.062-5.055h0a5.076,5.076,0,0,1,5.062-5.062H364a5.076,5.076,0,0,1,5.062,5.062h0A5.069,5.069,0,0,1,364.016,183.418Z" transform="translate(-283.013 -148.55)" fill="url(#linear-gradient)"/>
    <rect id="Rectangle_54" data-name="Rectangle 54" width="57.596" height="1.814" rx="0.54" transform="translate(19.315 160.843)" fill="#263238"/>
    <ellipse id="Ellipse_20" data-name="Ellipse 20" cx="2.645" cy="2.645" rx="2.645" ry="2.645" transform="translate(19.308 159.104)" fill="url(#linear-gradient)"/>
    <path id="Path_2022" data-name="Path 2022" d="M302.8,370.475A1.482,1.482,0,1,1,301.336,369,1.482,1.482,0,0,1,302.8,370.475Z" transform="translate(-279.369 -208.725)" fill="#fff"/>
    <path id="Path_2023" data-name="Path 2023" d="M312.478,199.2l47.956.138a4.515,4.515,0,0,1,4.5,4.806l-2.078,33.081a4.522,4.522,0,0,1-4.515,4.238H310.421a4.522,4.522,0,0,1-4.515-4.8l2.078-33.241a4.515,4.515,0,0,1,4.494-4.224Z" transform="translate(-281.231 -156.514)" fill="url(#linear-gradient)"/>
    <path id="Path_2024" data-name="Path 2024" d="M312.478,199.2l47.956.138a4.515,4.515,0,0,1,4.5,4.806l-2.078,33.081a4.522,4.522,0,0,1-4.515,4.238H310.421a4.522,4.522,0,0,1-4.515-4.8l2.078-33.241a4.515,4.515,0,0,1,4.494-4.224Z" transform="translate(-281.231 -156.514)" opacity="0.2"/>
    <path id="Path_2025" data-name="Path 2025" d="M342.84,206.73c-7.978-.457-14.84,6.1-15.332,14.654s5.575,15.852,13.552,16.316,14.84-6.1,15.332-14.654S350.818,207.187,342.84,206.73Zm-1.094,19.016a3.546,3.546,0,1,1,3.5-3.345A3.463,3.463,0,0,1,341.746,225.746Z" transform="translate(-287.868 -158.822)" fill="#fff"/>
    <path id="Path_2026" data-name="Path 2026" d="M366.9,317.713H327.621a.935.935,0,0,1,0-1.863h39.3a.935.935,0,0,1,0,1.863Z" transform="translate(-287.648 -192.382)" fill="url(#linear-gradient)"/>
    <path id="Path_2027" data-name="Path 2027" d="M366.9,317.713H327.621a.935.935,0,0,1,0-1.863h39.3a.935.935,0,0,1,0,1.863Z" transform="translate(-287.648 -192.382)" fill="#fff" opacity="0.5"/>
    <path id="Path_2028" data-name="Path 2028" d="M364.962,345.331H325.489a.935.935,0,1,1,0-1.863h39.473a.935.935,0,1,1,0,1.863Z" transform="translate(-286.943 -200.874)" fill="url(#linear-gradient)"/>
    <path id="Path_2029" data-name="Path 2029" d="M364.962,345.331H325.489a.935.935,0,1,1,0-1.863h39.473a.935.935,0,1,1,0,1.863Z" transform="translate(-286.943 -200.874)" fill="#fff" opacity="0.5"/>
    <ellipse id="Ellipse_21" data-name="Ellipse 21" cx="5.803" cy="5.803" rx="5.803" ry="5.803" transform="translate(20.341 120.87) rotate(-19.47)" fill="url(#linear-gradient)"/>
    <ellipse id="Ellipse_22" data-name="Ellipse 22" cx="5.803" cy="5.803" rx="5.803" ry="5.803" transform="translate(19.18 147.649) rotate(-75.23)" fill="url(#linear-gradient)"/>
    <path id="Path_2030" data-name="Path 2030" d="M306.86,340.35v5.727l3.483-2.86Z" transform="translate(-281.527 -199.916)" fill="#fff"/>
    <path id="Path_2031" data-name="Path 2031" d="M308.84,313.06v5.727l3.483-2.867Z" transform="translate(-282.136 -191.524)" fill="#fff"/>
  </g>
</svg>
